<?xml version="1.0" encoding="utf-8"?>
<!-- Generator: Adobe Illustrator 17.0.0, SVG Export Plug-In . SVG Version: 6.00 Build 0)  -->
<!DOCTYPE svg PUBLIC "-//W3C//DTD SVG 1.1//EN" "http://www.w3.org/Graphics/SVG/1.1/DTD/svg11.dtd">
<svg version="1.1" id="Layer_1" xmlns="http://www.w3.org/2000/svg" xmlns:xlink="http://www.w3.org/1999/xlink" x="0px" y="0px"
	 width="848.558px" height="781.305px" viewBox="0 0 848.558 781.305" enable-background="new 0 0 848.558 781.305"
	 xml:space="preserve">
<g>
	<path d="M507.614,298.496c-1.72,0-34.321,21.017-39.768,23.482c-0.059,7.685-0.099,15.358-0.155,23.031
		c0.057,7.673,0.097,15.346,0.155,23.031c5.447,2.465,38.048,23.482,39.768,23.482c1.926,0.083,35.619-23.105,40.102-24.984
		c0-7.189-0.018-14.36-0.073-21.529c0.055-7.169,0.073-14.34,0.073-21.529C543.233,321.601,509.54,298.412,507.614,298.496z"/>
	<path d="M341.45,391.522c1.72,0,34.321-21.017,39.768-23.482c0.058-7.685,0.099-15.358,0.155-23.031
		c-0.057-7.673-0.097-15.346-0.155-23.031c-5.447-2.465-38.048-23.482-39.768-23.482c-1.926-0.083-35.619,23.105-40.102,24.984
		c0,7.189,0.018,14.36,0.073,21.529c-0.055,7.169-0.073,14.34-0.073,21.529C305.831,368.418,339.524,391.606,341.45,391.522z"/>
	<path d="M284.628,448.088c2.724,1.879,20.324,14.833,21.499,14.833c0.627,0.04,15.545-8.358,17.558-9.443
		c4.525-2.55,9.134-5.179,13.742-7.939c0.758-0.458,1.596-0.919,2.431-1.379c0.839-0.458,1.76-0.667,1.718-1.837
		c-0.837-14.789-1.172-33.632-1.718-47.918c-5.405-2.758-38.592-25.111-40.144-25.151c-0.878,0.04-31.009,15.499-37.337,18.047
		c-0.795,0.461-1.55,0.919-2.304,1.379c0.586,14.456,1.635,28.994,3.353,43.491C265.982,434.635,280.565,444.997,284.628,448.088z"
		/>
	<path d="M509.207,394.404c-0.546,14.287-0.881,33.129-1.718,47.918c-0.042,1.171,0.879,1.379,1.718,1.837
		c0.835,0.461,1.674,0.921,2.431,1.379c4.608,2.76,9.217,5.389,13.742,7.939c2.013,1.085,16.931,9.483,17.558,9.443
		c1.174,0,18.774-12.953,21.499-14.833c4.063-3.091,18.645-13.453,21.202-15.918c1.718-14.497,2.767-29.036,3.353-43.491
		c-0.754-0.46-1.51-0.919-2.304-1.379c-6.328-2.548-36.459-18.007-37.337-18.047C547.799,369.293,514.612,391.645,509.207,394.404z"
		/>
	<path d="M422.537,395.866c-6.621-4.22-13.283-8.483-19.947-12.658c-2.304-1.504-18.815-12.243-19.736-12.285
		c-0.126,0-36.919,21.476-39.853,23.813c-0.209,13.203,0.671,34.633,1.635,48.587c4.192,2.675,39.558,26.03,40.563,26.069
		c0.336,0.044,35.87-22.559,37.422-24.146C422.452,428.785,422.452,412.284,422.537,395.866z"/>
	<path d="M466.211,370.924c-0.922,0.042-17.433,10.781-19.736,12.285c-6.664,4.175-13.326,8.437-19.947,12.658
		c0.085,16.418,0.085,32.919-0.083,49.381c1.552,1.587,37.086,24.19,37.422,24.146c1.004-0.039,36.371-23.394,40.563-26.069
		c0.964-13.953,1.843-35.384,1.635-48.587C503.129,392.399,466.336,370.924,466.211,370.924z"/>
	<path d="M382.854,319.094c0.922-0.041,17.432-10.78,19.736-12.285c6.664-4.175,13.326-8.437,19.947-12.658
		c-0.085-16.418-0.085-32.919,0.083-49.38c-1.552-1.588-37.086-24.191-37.422-24.147c-1.005,0.04-36.371,23.395-40.563,26.069
		c-0.964,13.953-1.843,35.384-1.635,48.587C345.935,297.619,382.728,319.094,382.854,319.094z"/>
	<path d="M339.858,295.615c0.546-14.287,0.881-33.13,1.718-47.918c0.042-1.171-0.879-1.379-1.718-1.837
		c-0.835-0.46-1.674-0.921-2.431-1.379c-4.608-2.76-9.217-5.389-13.742-7.939c-2.013-1.085-16.931-9.483-17.558-9.443
		c-1.174,0-18.774,12.953-21.499,14.832c-4.063,3.092-18.646,13.453-21.202,15.918c-1.718,14.497-2.767,29.036-3.353,43.491
		c0.754,0.46,1.51,0.919,2.304,1.379c6.328,2.548,36.459,18.007,37.337,18.047C301.265,320.726,334.453,298.373,339.858,295.615z"/>
	<path d="M549.351,320.765c0.878-0.039,31.009-15.499,37.337-18.047c0.795-0.46,1.55-0.919,2.304-1.379
		c-0.586-14.456-1.635-28.994-3.353-43.491c-2.557-2.464-17.14-12.826-21.202-15.918c-2.724-1.879-20.324-14.832-21.499-14.832
		c-0.627-0.04-15.545,8.358-17.558,9.443c-4.525,2.55-9.134,5.179-13.742,7.939c-0.758,0.458-1.596,0.919-2.431,1.379
		c-0.839,0.458-1.76,0.667-1.718,1.837c0.837,14.789,1.172,33.632,1.718,47.918C514.612,298.373,547.799,320.726,549.351,320.765z"
		/>
	<path d="M384.591,345.009c-0.048,7.691-0.088,15.386-0.145,23.073c5.278,2.464,38.299,24.817,39.89,24.609l0.196-0.121l0.196,0.121
		c1.591,0.208,34.612-22.145,39.89-24.609c-0.057-7.687-0.097-15.382-0.145-23.073c0.048-7.691,0.088-15.386,0.145-23.073
		c-5.278-2.465-38.299-24.818-39.89-24.609l-0.196,0.121l-0.196-0.121c-1.591-0.209-34.612,22.144-39.89,24.609
		C384.503,329.623,384.543,337.318,384.591,345.009z"/>
	<path d="M426.527,294.152c6.621,4.221,13.283,8.483,19.947,12.658c2.304,1.504,18.815,12.243,19.736,12.285
		c0.125,0,36.919-21.476,39.853-23.813c0.209-13.203-0.671-34.634-1.635-48.587c-4.192-2.675-39.558-26.03-40.563-26.069
		c-0.336-0.044-35.87,22.559-37.422,24.147C426.612,261.233,426.612,277.734,426.527,294.152z"/>
	<path d="M597.152,157.102H251.912c-22.857,0-41.452,18.596-41.452,41.453v19.703v4.075v245.44v4.253v19.525
		c0,22.856,18.595,41.452,41.452,41.452h345.241c22.856,0,41.452-18.596,41.452-41.452v-19.525v-4.253v-245.44v-4.075v-19.703
		C638.604,175.698,620.009,157.102,597.152,157.102z M214.711,222.342l34.147-1.378v248.194c-11.35-0.369-22.81-0.778-34.147-1.219
		V222.342z M634.353,491.551c0,20.513-16.688,37.2-37.2,37.2H251.912c-20.512,0-37.2-16.688-37.2-37.2v-19.354l38.399,1.55v-0.202
		c56.441,1.791,113.823,2.703,170.599,2.703h1.646c56.775,0,114.156-0.912,170.599-2.703v0.202l38.398-1.55V491.551z
		 M258.522,385.335c1.886,0.252,33.776-16.668,39.643-18.841c0-7.155,0.017-14.321,0.079-21.486
		c-0.062-7.165-0.079-14.33-0.079-21.486c-5.867-2.173-37.757-19.093-39.643-18.841c-0.355,0.028-2.407,1.305-5.412,3.29v-3.088
		l3.819-2.627c0.671-15.122,1.886-30.246,3.771-45.456c8.717-7.227,37.965-27.113,44.334-32.334
		c0.375-1.687,0.767-3.375,1.167-5.064c0.895-0.02,1.79-0.039,2.685-0.059c-0.3,1.304-0.592,2.606-0.877,3.91
		c0,1.252,6.872,4.427,8.212,5.096c8.761,4.889,17.77,10.029,26.948,15.376c13.286-8.513,26.49-16.987,39.612-25.458
		c1.81-0.014,3.618-0.021,5.428-0.033c0.839,0.664,1.96,1.255,2.771,1.842c10.771,7.018,21.792,14.164,32.939,21.349
		c0.088,0.022,0.303-0.044,0.613-0.185c0.309,0.141,0.524,0.206,0.613,0.185c11.147-7.185,22.168-14.33,32.939-21.349
		c0.81-0.587,1.932-1.179,2.771-1.842c1.81,0.012,3.618,0.019,5.428,0.033c13.122,8.472,26.326,16.945,39.612,25.458
		c9.178-5.348,18.187-10.487,26.948-15.376c1.34-0.669,8.212-3.843,8.212-5.096c-0.285-1.304-0.577-2.606-0.877-3.91
		c0.895,0.019,1.79,0.039,2.685,0.059c0.4,1.689,0.792,3.377,1.167,5.064c6.369,5.221,35.617,25.107,44.334,32.334
		c1.885,15.209,3.101,30.333,3.771,45.456l3.819,2.627v3.088c-3.005-1.984-5.057-3.262-5.412-3.29
		c-1.886-0.252-33.776,16.668-39.643,18.841c0,7.155-0.018,14.321-0.079,21.486c0.062,7.165,0.079,14.331,0.079,21.486
		c5.867,2.173,37.757,19.093,39.643,18.841c0.355-0.028,2.406-1.305,5.412-3.29v3.088l-3.819,2.627
		c-0.671,15.122-1.886,30.246-3.771,45.456c-8.717,7.227-37.966,27.113-44.334,32.334c-0.382,1.717-0.78,3.434-1.187,5.153
		c-0.895,0.02-1.79,0.039-2.685,0.058c0.307-1.334,0.606-2.665,0.897-3.999c0-1.252-6.872-4.427-8.212-5.095
		c-8.761-4.889-17.77-10.029-26.948-15.376c-13.333,8.543-26.582,17.046-39.75,25.547c-1.728,0.013-3.454,0.019-5.182,0.031
		c-0.847-0.7-2.033-1.317-2.879-1.929c-10.771-7.018-21.792-14.164-32.939-21.349c-0.088-0.022-0.304,0.044-0.613,0.185
		c-0.309-0.141-0.524-0.206-0.613-0.185c-11.147,7.185-22.168,14.33-32.939,21.349c-0.846,0.612-2.032,1.229-2.879,1.929
		c-1.728-0.012-3.454-0.018-5.182-0.031c-13.167-8.501-26.417-17.004-39.75-25.547c-9.178,5.348-18.187,10.487-26.948,15.376
		c-1.34,0.669-8.212,3.843-8.212,5.095c0.292,1.334,0.59,2.665,0.897,3.999c-0.895-0.019-1.79-0.039-2.685-0.058
		c-0.408-1.719-0.805-3.436-1.187-5.153c-6.369-5.221-35.617-25.107-44.334-32.334c-1.886-15.209-3.101-30.334-3.771-45.456
		l-3.819-2.627v-3.088C256.115,384.03,258.167,385.308,258.522,385.335z M634.353,467.938c-11.332,0.441-22.792,0.85-34.146,1.219
		V220.964l34.146,1.378V467.938z M634.353,217.911c-12.085-0.47-24.237-0.901-36.159-1.284l-2.24-0.09v0.023
		c-56.456-1.791-113.838-2.703-170.6-2.703h-1.645c-56.762,0-114.144,0.912-170.6,2.703v-0.023l-2.24,0.09
		c-11.916,0.382-24.069,0.814-36.159,1.284v-19.356c0-20.513,16.688-37.201,37.2-37.201h345.241c20.513,0,37.2,16.688,37.2,37.201
		V217.911z"/>
	<path d="M740.066,24.803H108.491c-27.744,0-50.315,22.571-50.315,50.315v631.069c0,27.744,22.571,50.315,50.315,50.315h631.575
		c27.744,0,50.315-22.571,50.315-50.315V75.118C790.382,47.375,767.811,24.803,740.066,24.803z M786.13,706.187
		c0,25.399-20.664,46.063-46.063,46.063H108.491c-25.399,0-46.063-20.664-46.063-46.063V75.118
		c0-25.399,20.664-46.063,46.063-46.063h631.575c25.399,0,46.063,20.664,46.063,46.063V706.187z"/>
	<path d="M815.185,232.549V75.118C815.185,33.698,781.486,0,740.066,0H108.491c-41.42,0-75.118,33.698-75.118,75.118v157.431H0
		v316.207h33.373v157.431c0,41.42,33.698,75.118,75.118,75.118h631.575c41.42,0,75.118-33.698,75.118-75.118V548.756h33.373V232.549
		H815.185z M33.373,544.504H4.252V236.801h29.121V544.504z M806.681,706.187c0,36.731-29.883,66.614-66.614,66.614H108.491
		c-36.731,0-66.614-29.883-66.614-66.614V75.118c0-36.731,29.883-66.614,66.614-66.614h631.575
		c36.731,0,66.614,29.883,66.614,66.614V706.187z M844.306,544.504h-29.121V236.801h29.121V544.504z"/>
</g>
<path d="M670.826,102.626c-78.693-7.366-160.07-11.101-241.868-11.101c-81.794,0-166.314,3.734-251.212,11.099l-1.942,0.168v53.307
	l2.254-0.136c8.244-0.497,16.483-0.964,24.717-1.414h444.723c7.686,0.45,15.356,0.916,22.993,1.413l2.264,0.147v-53.305
	L670.826,102.626z M180.055,106.693C264.18,99.45,347.91,95.778,428.958,95.778c80.999,0,161.581,3.668,239.544,10.902v44.894
	C590.531,146.548,509.953,144,428.958,144c-81.052,0-164.781,2.552-248.903,7.584V106.693z"/>
<path clip-rule="evenodd" fill="#000000" fill-rule="evenodd" d="M344.635,246.694c-0.964,13.953-1.843,35.384-1.635,48.587
	c2.934,2.338,39.728,23.813,39.853,23.813c0.922-0.041,17.432-10.78,19.736-12.285c6.664-4.175,13.326-8.437,19.947-12.658
	c-0.085-16.418-0.085-32.919,0.083-49.38c-1.552-1.588-37.086-24.191-37.421-24.147
	C384.194,220.664,348.827,244.019,344.635,246.694 M263.425,257.848c-1.718,14.497-2.767,29.036-3.353,43.491
	c0.754,0.46,1.51,0.919,2.304,1.379c6.328,2.548,36.459,18.007,37.337,18.047c1.552-0.039,34.74-22.392,40.144-25.151
	c0.546-14.287,0.881-33.13,1.718-47.918c0.042-1.171-0.879-1.379-1.718-1.838c-0.835-0.46-1.674-0.921-2.431-1.379
	c-4.608-2.76-9.217-5.389-13.742-7.939c-2.013-1.085-16.931-9.483-17.558-9.443c-1.174,0-18.774,12.953-21.499,14.832
	C280.565,245.021,265.982,255.383,263.425,257.848z M344.635,443.324c-0.964-13.953-1.843-35.384-1.635-48.587
	c2.934-2.338,39.728-23.813,39.853-23.813c0.922,0.042,17.432,10.781,19.736,12.285c6.664,4.175,13.326,8.437,19.947,12.658
	c-0.085,16.418-0.085,32.919,0.083,49.381c-1.552,1.587-37.086,24.19-37.421,24.147
	C384.194,469.354,348.827,445.999,344.635,443.324z M263.425,432.17c-1.718-14.497-2.767-29.036-3.353-43.491
	c0.754-0.46,1.51-0.919,2.304-1.379c6.328-2.548,36.459-18.007,37.337-18.047c1.552,0.04,34.74,22.393,40.144,25.151
	c0.546,14.287,0.881,33.129,1.718,47.918c0.042,1.171-0.879,1.379-1.718,1.837c-0.835,0.46-1.674,0.921-2.431,1.379
	c-4.608,2.76-9.217,5.389-13.742,7.939c-2.013,1.086-16.931,9.483-17.558,9.443c-1.174,0-18.774-12.953-21.499-14.833
	C280.565,444.997,265.982,434.635,263.425,432.17z M301.421,345.009c-0.055-7.169-0.073-14.34-0.073-21.529
	c4.483-1.879,38.176-25.067,40.102-24.984c1.72,0,34.321,21.017,39.768,23.482c0.058,7.685,0.099,15.358,0.155,23.031
	c-0.057,7.673-0.097,15.346-0.155,23.032c-5.447,2.465-38.048,23.482-39.768,23.482c-1.926,0.083-35.619-23.105-40.102-24.984
	C301.348,359.349,301.366,352.178,301.421,345.009z M504.429,246.694c0.964,13.953,1.843,35.384,1.635,48.587
	c-2.934,2.338-39.728,23.813-39.853,23.813c-0.922-0.041-17.433-10.78-19.736-12.285c-6.664-4.175-13.326-8.437-19.947-12.658
	c0.085-16.418,0.085-32.919-0.083-49.38c1.552-1.588,37.086-24.191,37.422-24.147C464.871,220.664,500.237,244.019,504.429,246.694z
	 M585.639,257.848c1.718,14.497,2.767,29.036,3.353,43.491c-0.754,0.46-1.51,0.919-2.304,1.379
	c-6.328,2.548-36.459,18.007-37.337,18.047c-1.552-0.039-34.74-22.392-40.144-25.151c-0.546-14.287-0.881-33.13-1.718-47.918
	c-0.042-1.171,0.879-1.379,1.718-1.838c0.835-0.46,1.674-0.921,2.431-1.379c4.608-2.76,9.217-5.389,13.742-7.939
	c2.013-1.085,16.931-9.483,17.558-9.443c1.174,0,18.774,12.953,21.499,14.832C568.5,245.021,583.082,255.383,585.639,257.848z
	 M504.429,443.324c0.964-13.953,1.843-35.384,1.635-48.587c-2.934-2.338-39.728-23.813-39.853-23.813
	c-0.922,0.042-17.433,10.781-19.736,12.285c-6.664,4.175-13.326,8.437-19.947,12.658c0.085,16.418,0.085,32.919-0.083,49.381
	c1.552,1.587,37.086,24.19,37.422,24.147C464.871,469.354,500.237,445.999,504.429,443.324z M585.639,432.17
	c1.718-14.497,2.767-29.036,3.353-43.491c-0.754-0.46-1.51-0.919-2.304-1.379c-6.328-2.548-36.459-18.007-37.337-18.047
	c-1.552,0.04-34.74,22.393-40.144,25.151c-0.546,14.287-0.881,33.129-1.718,47.918c-0.042,1.171,0.879,1.379,1.718,1.837
	c0.835,0.46,1.674,0.921,2.431,1.379c4.608,2.76,9.217,5.389,13.742,7.939c2.013,1.086,16.931,9.483,17.558,9.443
	c1.174,0,18.774-12.953,21.499-14.833C568.5,444.997,583.082,434.635,585.639,432.17z M467.691,345.009
	c0.057-7.673,0.097-15.346,0.155-23.031c5.447-2.465,38.048-23.482,39.768-23.482c1.926-0.083,35.619,23.105,40.102,24.984
	c0,7.189-0.018,14.36-0.073,21.529c0.055,7.169,0.073,14.34,0.073,21.529c-4.483,1.879-38.176,25.067-40.102,24.984
	c-1.72,0-34.321-21.017-39.768-23.482C467.787,360.355,467.747,352.682,467.691,345.009z M424.532,392.57l-0.196,0.121
	c-1.591,0.208-34.612-22.145-39.89-24.609c0.057-7.687,0.097-15.382,0.145-23.073c-0.048-7.691-0.088-15.386-0.145-23.073
	c5.278-2.465,38.299-24.818,39.89-24.609l0.196,0.121l0.196-0.121c1.591-0.209,34.612,22.144,39.89,24.609
	c-0.057,7.687-0.097,15.382-0.145,23.073c0.048,7.691,0.088,15.386,0.145,23.073c-5.278,2.464-38.299,24.817-39.89,24.609
	L424.532,392.57z M306.243,219.228c-17.727,0.439-35.437,0.98-53.132,1.619v84.038l3.819-2.627
	c0.671-15.122,1.886-30.246,3.771-45.456c8.717-7.227,37.965-27.113,44.334-32.334C305.424,222.722,305.828,220.976,306.243,219.228
	z M383.245,217.948c-24.802,0.213-49.576,0.615-74.317,1.215c-0.315,1.365-0.62,2.728-0.918,4.093c0,1.252,6.872,4.427,8.212,5.096
	c8.761,4.889,17.77,10.029,26.948,15.376c13.366-8.564,26.649-17.089,39.849-25.611L383.245,217.948z M461.258,217.91
	c-12.234-0.091-24.476-0.137-36.726-0.135c-12.25-0.002-24.492,0.044-36.726,0.135c0.842,0.804,2.232,1.486,3.175,2.169
	c10.771,7.018,21.792,14.164,32.939,21.349c0.088,0.022,0.303-0.044,0.613-0.185c0.309,0.141,0.524,0.206,0.613,0.185
	c11.147-7.185,22.168-14.33,32.939-21.349C459.026,219.397,460.416,218.714,461.258,217.91z M540.136,219.162
	c-24.741-0.599-49.515-1.002-74.317-1.215l0.226,0.169c13.2,8.522,26.483,17.047,39.849,25.611
	c9.178-5.348,18.187-10.487,26.948-15.376c1.34-0.669,8.212-3.843,8.212-5.096C540.756,221.891,540.45,220.527,540.136,219.162z
	 M595.954,304.885v-84.038c-17.696-0.639-35.405-1.181-53.132-1.619c0.415,1.748,0.819,3.494,1.208,5.241
	c6.369,5.221,35.617,25.107,44.334,32.334c1.885,15.209,3.101,30.333,3.771,45.456L595.954,304.885z M595.954,382.046V364.04
	v-38.062v-18.005c-3.005-1.984-5.057-3.262-5.412-3.29c-1.886-0.252-33.776,16.668-39.643,18.841c0,7.155-0.018,14.321-0.079,21.486
	c0.062,7.165,0.079,14.331,0.079,21.486c5.867,2.173,37.757,19.093,39.643,18.841C590.897,385.308,592.949,384.03,595.954,382.046z
	 M542.822,470.79c17.727-0.439,35.437-0.98,53.132-1.619v-84.038l-3.819,2.627c-0.671,15.122-1.886,30.246-3.771,45.456
	c-8.717,7.227-37.966,27.113-44.334,32.334C543.641,467.296,543.236,469.042,542.822,470.79z M465.819,472.07
	c24.802-0.212,49.576-0.615,74.317-1.214c0.315-1.365,0.62-2.728,0.918-4.094c0-1.252-6.872-4.427-8.212-5.095
	c-8.761-4.889-17.77-10.029-26.948-15.376c-13.366,8.564-26.649,17.089-39.849,25.611L465.819,472.07z M387.806,472.108
	c12.234,0.091,24.476,0.137,36.726,0.135c12.25,0.002,24.492-0.044,36.726-0.135c-0.842-0.804-2.232-1.486-3.174-2.169
	c-10.771-7.018-21.792-14.164-32.939-21.349c-0.088-0.022-0.304,0.044-0.613,0.185c-0.309-0.141-0.524-0.206-0.613-0.185
	c-11.147,7.185-22.168,14.33-32.939,21.349C390.038,470.622,388.648,471.304,387.806,472.108z M308.928,470.856
	c24.741,0.599,49.515,1.002,74.317,1.214l-0.226-0.169c-13.2-8.522-26.483-17.047-39.849-25.611
	c-9.178,5.348-18.187,10.487-26.948,15.376c-1.34,0.669-8.212,3.843-8.212,5.095C308.309,468.127,308.614,469.49,308.928,470.856z
	 M253.11,385.133v84.038c17.695,0.639,35.405,1.18,53.132,1.619c-0.415-1.748-0.819-3.494-1.208-5.241
	c-6.369-5.221-35.617-25.107-44.334-32.334c-1.886-15.209-3.101-30.334-3.771-45.456L253.11,385.133z M253.11,364.04v18.005
	c3.005,1.984,5.057,3.262,5.412,3.29c1.886,0.252,33.776-16.668,39.643-18.841c0-7.155,0.017-14.321,0.079-21.486
	c-0.062-7.165-0.079-14.33-0.079-21.486c-5.867-2.173-37.757-19.093-39.643-18.841c-0.355,0.027-2.407,1.305-5.412,3.29v18.005
	V364.04z"/>
</svg>
