<?xml version="1.0" encoding="utf-8"?>
<!-- Generator: Adobe Illustrator 17.0.0, SVG Export Plug-In . SVG Version: 6.00 Build 0)  -->
<!DOCTYPE svg PUBLIC "-//W3C//DTD SVG 1.1//EN" "http://www.w3.org/Graphics/SVG/1.1/DTD/svg11.dtd">
<svg version="1.1" id="Layer_1" xmlns="http://www.w3.org/2000/svg" xmlns:xlink="http://www.w3.org/1999/xlink" x="0px" y="0px"
	 width="817.058px" height="1522.25px" viewBox="0 0 817.058 1522.25" enable-background="new 0 0 817.058 1522.25"
	 xml:space="preserve" xmlns:pulse="-">
<g>
	<path d="M407.437,761.125c-86.109,0-167.306,33.608-228.642,94.641c-61.032,61.029-94.641,142.229-94.641,228.642
		c0,86.226,33.609,167.323,94.646,228.36c61.331,61.026,142.528,94.634,228.637,94.634s167.313-33.608,228.646-94.64
		c61.029-61.029,94.641-142.13,94.641-228.355c0-86.413-33.611-167.611-94.646-228.649
		C574.747,794.733,493.546,761.125,407.437,761.125z M626.045,1303.001c-58.591,58.296-136.223,90.401-218.601,90.401
		s-160.011-32.104-218.592-90.389c-58.293-58.592-90.398-136.226-90.398-218.604s32.104-160.011,90.392-218.598
		c58.29-58.292,135.921-90.393,218.594-90.393s160.305,32.101,218.592,90.386c58.296,58.592,90.401,136.227,90.401,218.604
		S684.329,1244.421,626.045,1303.001z"/>
	<path d="M407.404,791.892c-77.982,0-151.4,30.471-206.729,85.799c-55.144,55.145-85.513,128.563-85.513,206.729
		s30.369,151.585,85.513,206.729s128.562,85.512,206.729,85.512s151.585-30.368,206.729-85.512
		c14.744-14.744,27.502-30.533,38.92-48.179v0.537l5.744-9.728c0.268-0.531,0.498-0.989,0.949-1.44l0.153-0.154l0.633-1.583
		c0.195-0.386,0.488-0.97,0.649-1.13l0.121-0.122l0.889-1.773l1.079-1.347l0.695-1.623c0.133-0.267,0.334-0.599,0.534-0.932
		c0.231-0.384,0.461-0.769,0.615-1.076l1.357-2.716l0.343-0.343l0.121-0.362l0.292,0.004l0.247-0.735
		c0.264-0.785,0.525-1.311,0.805-1.87l0.574-1.148l0.057-0.138c0.267-0.794,0.528-1.316,0.766-1.798l0.9-1.504l0.626-1.25
		l1.661-3.883l0.521-0.781l0.124-0.255c0.261-0.78,0.53-1.587,0.775-2.098l0.536-0.803l0.123-0.253
		c0.136-0.405,0.272-0.744,0.407-1.082c0.152-0.379,0.304-0.758,0.435-1.155l0.536-1.353l0.898-1.802l1.458-3.501l0.342-1.024v-0.22
		c0.058-0.127,0.116-0.262,0.179-0.405c0.208-0.477,0.443-1.017,0.792-1.541l0.41-1.113c0.136-0.404,0.271-0.74,0.405-1.077
		c0.153-0.381,0.305-0.762,0.457-1.22l0.341-1.024v-0.283c0.118-0.337,0.235-0.629,0.353-0.921c0.125-0.311,0.249-0.621,0.373-0.973
		l0.291-0.291l0.94-3.109l0.207-0.623l0.286-0.285l0.08-0.239c0.155-0.467,0.235-0.911,0.307-1.304
		c0.05-0.275,0.098-0.539,0.158-0.723l0.317-0.317l0.421-1.265v-0.172l0.828-2.615l0.262-1.045c0.158-0.348,0.24-0.674,0.313-0.964
		c0.062-0.248,0.115-0.461,0.207-0.644l0.398-1.164v-0.173l0.831-2.612l0.26-1.041c0.214-0.452,0.59-1.393,0.629-2.478l0.236-0.71
		c0.291-0.87,0.591-1.77,0.625-2.734l0.253-0.764c4.373-16.038,7.198-31.959,8.643-48.762l-0.003-0.213
		c0.582-8.442,0.864-16.956,0.837-25.301c0-11.996-0.43-20.771-1.434-29.322v-2.673l-0.289-0.288
		c-0.007-0.74-0.047-1.503-0.285-2.304v-1.444l-0.055-0.163c-0.232-0.698-0.232-1.45-0.232-2.247v-0.173l-0.286-0.861v-0.114
		c0-0.519-0.081-1-0.158-1.465c-0.066-0.398-0.129-0.774-0.129-1.117v-0.459l-0.312-0.936l-0.263-1.838v-1.246l-0.055-0.163
		c-0.117-0.353-0.181-0.73-0.247-1.13c-0.069-0.411-0.14-0.834-0.272-1.279v-0.699l-0.016-0.182
		c-5.089-29.398-14.679-57.878-28.505-84.648l-0.303-0.587l-0.218,0.004c-0.107-0.235-0.222-0.465-0.335-0.69
		c-0.204-0.408-0.397-0.793-0.517-1.152l-0.521-0.848v-0.216l-0.111-0.225c-0.128-0.255-0.3-0.512-0.487-0.783
		c-0.242-0.354-0.473-0.688-0.604-1.085l-0.671-1.361l-0.889-1.475l-0.574-0.862l-0.255-0.285c-0.171-0.428-0.386-0.785-0.58-1.107
		c-0.198-0.33-0.37-0.616-0.477-0.937l-0.52-0.848v-0.406l-0.313-0.313c-0.451-0.448-0.681-0.906-0.984-1.508l-5.707-9.658v0.537
		c-11.418-17.646-24.176-33.435-38.92-48.179C558.804,822.362,485.387,791.892,407.404,791.892z M691.703,1114.731
		c-3.859,36.825-14.68,72.089-32.184,104.908v-104.908H691.703z M155.646,1114.731v104.922
		c-8.086-15.101-14.812-30.772-20.016-46.647c-6.281-19.12-10.471-38.72-12.459-58.274L155.646,1114.731L155.646,1114.731z
		 M123.481,1049.779c2.326-19.352,6.602-38.176,12.718-55.971c5.382-15.876,11.916-30.898,19.447-44.72v100.69L123.481,1049.779
		L123.481,1049.779z M692.195,1056.21c0.93,10.771,1.345,19.505,1.345,28.198c0,8.183-0.559,16.634-1.077,24.182H653.09v122.4
		c-12.496,20.588-27.062,39.255-43.296,55.488c-53.886,54.188-125.75,84.029-202.354,84.029
		c-76.302,0-148.166-29.843-202.355-84.031c-16.663-16.662-31.228-35.329-43.294-55.483v-122.406h-39.374
		c-0.498-7.215-1.078-15.983-1.078-24.183c0-8.724,0.416-17.457,1.345-28.196l39.11,0.002V937.539
		c12.058-19.861,26.625-38.53,43.292-55.484c54.3-54.005,126.165-83.746,202.358-83.746c76.489,0,148.353,29.74,202.349,83.737
		c16.378,16.66,30.945,35.427,43.301,55.78v118.384H692.195z M659.521,1049.779v-100.65c17.034,31.545,27.754,65.379,31.882,100.65
		H659.521z"/>
	<circle cx="554.607" cy="1084.408" r="41.596"/>
	<circle cx="260.271" cy="1084.408" r="41.596"/>
	<path d="M747.195,69.862C702.144,24.811,642.484,0,579.208,0H237.849C174.572,0,114.913,24.811,69.862,69.862S0,174.572,0,237.849
		v1046.553c0,63.276,24.811,122.936,69.862,167.986c45.051,45.052,104.71,69.862,167.987,69.862h341.359
		c63.276,0,122.936-24.811,167.987-69.862s69.862-104.71,69.862-167.986V237.849C817.058,174.572,792.246,114.913,747.195,69.862z
		 M802.884,237.849v549.81C725.078,625.291,683.965,373.508,680.59,38.501C753.111,75.532,802.884,150.986,802.884,237.849z
		 M137.891,37.792c-3.344,337.382-44.942,590.405-123.718,752.78V237.849C14.173,150.42,64.601,74.56,137.891,37.792z
		 M579.208,1508.076H237.849c-123.335,0-223.676-100.34-223.676-223.675V806.484c41.448-80.902,73.434-185.89,95.114-312.246
		C131.392,365.4,143.404,210.696,145.011,34.37c28.294-12.961,59.735-20.197,92.838-20.197h341.359
		c33.66,0,65.599,7.488,94.262,20.863c1.632,176.049,13.64,330.526,35.718,459.202c21.432,124.905,52.939,228.916,93.696,309.435
		v480.729C802.884,1407.736,702.543,1508.076,579.208,1508.076z"/>
	<path d="M373.65,402.203l0.066,0.24c4.81,15.245,18.789,25.487,34.787,25.487c16.144,0,30.551-10.82,35.037-26.312l0.047-0.18
		c0.331-1.416,0.646-2.859,0.948-4.33c6.185-30.197,6.161-71.671,6.146-96.451v-0.445c-0.015-26.624-0.034-63.086-6.063-97.012
		c-0.18-1.012-0.365-2.021-0.556-3.027l-0.029-0.143c-3.851-16.606-18.461-28.204-35.53-28.204
		c-16.586,0-31.097,11.195-35.288,27.225l-0.051,0.225c-0.31,1.606-0.605,3.22-0.888,4.839c-5.868,33.667-5.888,69.75-5.902,96.096
		v0.445c-0.014,24.52-0.036,65.558,5.989,95.669C372.769,398.354,373.202,400.331,373.65,402.203z M373.461,300.661v-0.445
		c0.015-26.089,0.034-61.818,5.797-94.883c0.268-1.539,0.549-3.073,0.843-4.599c3.412-12.854,15.075-21.821,28.402-21.821
		c13.729,0,25.483,9.31,28.61,22.648c0.18,0.956,0.356,1.914,0.527,2.876c5.921,33.314,5.94,69.417,5.954,95.778l0.001,0.445
		c0.014,24.511,0.037,65.534-6.003,95.024c-0.282,1.374-0.577,2.725-0.885,4.049c-3.642,12.433-15.227,21.108-28.205,21.108
		c-12.849,0-24.083-8.199-27.991-20.416c-0.417-1.749-0.821-3.595-1.2-5.491C373.425,365.515,373.447,324.917,373.461,300.661z"/>
</g>
<path d="M408.528,409.372c-14.824,0-26.884-12.06-26.884-26.884V338.39c0-14.824,12.06-26.884,26.884-26.884
	c14.824,0,26.884,12.06,26.884,26.884v44.098C435.412,397.312,423.352,409.372,408.528,409.372z M408.528,316.506
	c-12.067,0-21.884,9.817-21.884,21.884v44.098c0,12.067,9.817,21.884,21.884,21.884c12.066,0,21.884-9.817,21.884-21.884V338.39
	C430.412,326.323,420.594,316.506,408.528,316.506z"/>
<path d="M408.528,297.304c-14.824,0-26.884-12.06-26.884-26.884v-44.098c0-14.824,12.06-26.884,26.884-26.884
	c14.824,0,26.884,12.06,26.884,26.884v44.098C435.412,285.244,423.352,297.304,408.528,297.304z M408.528,204.438
	c-12.067,0-21.884,9.817-21.884,21.884v44.098c0,12.067,9.817,21.884,21.884,21.884c12.066,0,21.884-9.817,21.884-21.884v-44.098
	C430.412,214.255,420.594,204.438,408.528,204.438z"/>
<path fill="#000000" d="M430.412,338.39c0-12.067-9.817-21.884-21.884-21.884c-12.067,0-21.884,9.817-21.884,21.884v44.098
	c0,12.067,9.817,21.884,21.884,21.884c12.066,0,21.884-9.817,21.884-21.884V338.39z"/>
<path pulse:initial="true" fill="#000000" d="M430.412,226.322c0-12.067-9.817-21.884-21.884-21.884c-12.067,0-21.884,9.817-21.884,21.884v44.098
	c0,12.067,9.817,21.884,21.884,21.884c12.066,0,21.884-9.817,21.884-21.884V226.322z"/>
</svg>
