<?xml version="1.0" encoding="utf-8"?>
<!-- Generator: Adobe Illustrator 20.0.0, SVG Export Plug-In . SVG Version: 6.00 Build 0)  -->
<svg version="1.1" id="Layer_1" xmlns="http://www.w3.org/2000/svg" xmlns:xlink="http://www.w3.org/1999/xlink" x="0px" y="0px"
	 viewBox="0 0 1054.35 1070.55" style="enable-background:new 0 0 1054.35 1070.55;" xml:space="preserve">
<style type="text/css">
	.st0{fill:#1A1A18;}
	.st1{clip-path:url(#SVGID_2_);fill:#1A1A18;}
	.st2{clip-path:url(#SVGID_2_);fill-rule:evenodd;clip-rule:evenodd;}
	.st3{clip-path:url(#SVGID_2_);}
</style>
<rect x="381.82" y="791.51" transform="matrix(0.7497 -0.6618 0.6618 0.7497 -422.2883 473.5976)" class="st0" width="66.23" height="7.09"/>
<polygon class="st0" points="431.94,771.3 445.28,768.31 440.66,781.18 "/>
<g>
	<defs>
		<rect id="SVGID_1_" y="0" width="1054.35" height="1070.55"/>
	</defs>
	<clipPath id="SVGID_2_">
		<use xlink:href="#SVGID_1_"  style="overflow:visible;"/>
	</clipPath>
	<path class="st1" d="M437.68,811.77c-9.17,0-16.85-5.69-23.55-10.66c-9.95-7.37-18.55-13.74-30.93-5.98l-3.76-6
		c16.48-10.33,28.4-1.5,38.91,6.29c11.5,8.52,20.58,15.24,35.53,1.17l4.86,5.16C450.91,809.12,443.95,811.77,437.68,811.77"/>
	<path class="st2" d="M810.67,4.16l239.45,239.45c2.61,2.57,4.22,6.14,4.22,10.09v550.8h0c0,3.63-1.38,7.25-4.15,10.02l-251.8,251.8
		c-2.57,2.61-6.14,4.22-10.09,4.22H253.7v0c-3.63,0-7.25-1.38-10.02-4.15L4.22,826.95C1.62,824.37,0,820.8,0,816.85v-550.8h0
		c0-3.63,1.38-7.25,4.15-10.02l251.8-251.8C258.53,1.62,262.1,0,266.05,0h534.6v0C804.28,0.01,807.9,1.39,810.67,4.16
		 M1040.17,253.7L800.65,14.18h-534.6L14.17,266.05v550.8l239.52,239.52h534.6l251.87-251.88V253.7z"/>
	<path class="st3" d="M821.87,472.12H244.83c-25.82,0-46.83-21.01-46.83-46.83V153.09c0-0.94,0.37-1.84,1.04-2.51l89.34-89.34
		c0.67-0.66,1.57-1.04,2.51-1.04h483.75c0.94,0,1.84,0.37,2.51,1.04l90.52,90.52c0.66,0.66,1.04,1.57,1.04,2.51v271.03
		C868.7,451.11,847.69,472.12,821.87,472.12 M205.09,154.55v270.74c0,21.91,17.83,39.74,39.74,39.74h577.04
		c21.91,0,39.74-17.83,39.74-39.74V155.73l-88.44-88.44H292.35L205.09,154.55z"/>
	<path class="st1" d="M712.02,1016.91H329.97c-39.17,0-71.04-31.87-71.04-71.04s31.87-71.04,71.04-71.04h382.05
		c39.17,0,71.04,31.87,71.04,71.04S751.2,1016.91,712.02,1016.91 M329.97,881.91c-35.27,0-63.96,28.69-63.96,63.96
		s28.69,63.96,63.96,63.96h382.05c35.27,0,63.96-28.69,63.96-63.96s-28.69-63.96-63.96-63.96H329.97z"/>
	<path class="st1" d="M712.02,1000.61H329.97c-30.19,0-54.75-24.56-54.75-54.74c0-30.19,24.56-54.74,54.75-54.74h382.05
		c30.19,0,54.74,24.56,54.74,54.74C766.77,976.05,742.21,1000.61,712.02,1000.61 M329.97,893.96c-28.62,0-51.91,23.29-51.91,51.91
		s23.29,51.91,51.91,51.91h382.05c28.62,0,51.91-23.29,51.91-51.91s-23.29-51.91-51.91-51.91H329.97z"/>
	<path class="st1" d="M369.43,840.06h-110.5v-89.43h110.5V840.06z M266.02,832.97h96.32v-75.26h-96.32V832.97z"/>
	<path class="st1" d="M472.84,840.06h-110.5v-89.43h110.5V840.06z M369.43,832.97h96.32v-75.26h-96.32V832.97z"/>
	<path class="st1" d="M576.24,840.06h-110.5v-89.43h110.5V840.06z M472.84,832.97h96.32v-75.26h-96.32V832.97z"/>
	<path class="st1" d="M679.65,840.06H569.16v-89.43h110.49V840.06z M576.24,832.97h96.32v-75.26h-96.32V832.97z"/>
	<path class="st1" d="M783.06,840.06H672.57v-89.43h110.49V840.06z M679.65,832.97h96.32v-75.26h-96.32V832.97z"/>
	<path class="st1" d="M352.99,989.2c-23.9,0-43.34-19.44-43.34-43.33c0-23.9,19.44-43.34,43.34-43.34
		c23.89,0,43.33,19.44,43.33,43.34C396.32,969.76,376.88,989.2,352.99,989.2 M352.99,909.62c-19.99,0-36.25,16.26-36.25,36.25
		s16.26,36.25,36.25,36.25c19.99,0,36.25-16.26,36.25-36.25S372.98,909.62,352.99,909.62"/>
	<path class="st1" d="M436.99,989.2c-23.9,0-43.34-19.44-43.34-43.33c0-23.9,19.44-43.34,43.34-43.34
		c23.89,0,43.33,19.44,43.33,43.34C480.33,969.76,460.89,989.2,436.99,989.2 M436.99,909.62c-19.99,0-36.25,16.26-36.25,36.25
		s16.26,36.25,36.25,36.25s36.25-16.26,36.25-36.25S456.98,909.62,436.99,909.62"/>
	<path class="st1" d="M521,989.2c-23.9,0-43.34-19.44-43.34-43.33c0-23.9,19.44-43.34,43.34-43.34c23.9,0,43.33,19.44,43.33,43.34
		C564.33,969.76,544.89,989.2,521,989.2 M521,909.62c-19.99,0-36.25,16.26-36.25,36.25s16.26,36.25,36.25,36.25
		s36.25-16.26,36.25-36.25S540.98,909.62,521,909.62"/>
	<path class="st1" d="M605,989.2c-23.9,0-43.34-19.44-43.34-43.33c0-23.9,19.44-43.34,43.34-43.34c23.89,0,43.33,19.44,43.33,43.34
		C648.34,969.76,628.9,989.2,605,989.2 M605,909.62c-19.99,0-36.25,16.26-36.25,36.25s16.26,36.25,36.25,36.25
		s36.25-16.26,36.25-36.25S624.99,909.62,605,909.62"/>
	<path class="st1" d="M689.01,989.2c-23.9,0-43.33-19.44-43.33-43.33c0-23.9,19.44-43.34,43.33-43.34
		c23.9,0,43.33,19.44,43.33,43.34C732.34,969.76,712.9,989.2,689.01,989.2 M689.01,909.62c-19.99,0-36.25,16.26-36.25,36.25
		s16.26,36.25,36.25,36.25s36.25-16.26,36.25-36.25S708.99,909.62,689.01,909.62"/>
	<polygon class="st1" points="299.51,820.22 299.51,770.46 309.67,770.46 309.67,811.74 334.84,811.74 334.84,820.22 	"/>
	<polygon class="st1" points="705.97,820.22 705.97,770.04 715.81,770.04 736.46,803.67 736.46,770.04 745.85,770.04 745.85,820.22 
		735.7,820.22 715.36,787.23 715.36,820.22 	"/>
	<path class="st1" d="M643.17,811.77c-9.17,0-16.85-5.69-23.55-10.66c-9.95-7.37-18.55-13.74-30.93-5.98l-3.76-6
		c16.48-10.33,28.4-1.5,38.91,6.29c11.5,8.52,20.58,15.24,35.53,1.17l4.86,5.16C656.39,809.12,649.43,811.77,643.17,811.77"/>
	
		<rect x="586.8" y="791.51" transform="matrix(0.7497 -0.6618 0.6618 0.7497 -370.9824 609.2469)" class="st1" width="66.23" height="7.09"/>
	<polygon class="st1" points="636.91,771.3 650.26,768.31 645.64,781.18 	"/>
	<path class="st1" d="M497.87,800.59l6.08,2.5c-0.93,4.58-2.49,7.98-4.66,10.21c-2.17,2.22-4.92,3.33-8.26,3.33
		c-4.13,0-7.53-1.89-10.19-5.67c-2.66-3.78-3.99-8.94-3.99-15.5c0-6.93,1.34-12.31,4.01-16.15s6.19-5.75,10.55-5.75
		c3.81,0,6.9,1.51,9.27,4.52c1.42,1.78,2.48,4.34,3.19,7.68l-6.21,1.98c-0.37-2.15-1.14-3.85-2.3-5.1
		c-1.17-1.25-2.59-1.87-4.26-1.87c-2.31,0-4.18,1.1-5.62,3.32c-1.44,2.21-2.16,5.79-2.16,10.75c0,5.25,0.71,9,2.12,11.23
		c1.42,2.24,3.26,3.35,5.52,3.35c1.67,0,3.11-0.71,4.32-2.13S497.35,803.65,497.87,800.59"/>
	<path class="st1" d="M510.3,795.1c0,4.72,0.82,8.29,2.45,10.73c1.63,2.43,3.7,3.65,6.2,3.65c2.51,0,4.57-1.21,6.18-3.62
		c1.61-2.42,2.41-6.04,2.41-10.88c0-4.78-0.78-8.34-2.35-10.68c-1.56-2.35-3.64-3.53-6.24-3.53c-2.59,0-4.68,1.19-6.27,3.57
		C511.09,786.72,510.3,790.31,510.3,795.1 M503.82,795.38c0-4.24,0.48-7.81,1.43-10.69c0.7-2.12,1.67-4.03,2.9-5.71
		c1.22-1.68,2.56-2.93,4.02-3.76c1.94-1.1,4.18-1.65,6.71-1.65c4.59,0,8.25,1.91,11.01,5.72c2.75,3.82,4.13,9.12,4.13,15.91
		c0,6.73-1.37,12-4.1,15.8c-2.73,3.81-6.39,5.7-10.95,5.7c-4.63,0-8.31-1.89-11.04-5.68C505.19,807.24,503.82,802.03,503.82,795.38"
		/>
	<polygon class="st1" points="534.6,815.94 534.6,774.33 544.04,774.33 549.61,802.71 555.12,774.33 564.58,774.33 564.58,815.94 
		558.76,815.94 558.74,783.18 552.6,815.94 546.55,815.94 540.45,783.18 540.43,815.94 	"/>
	
		<rect x="381.82" y="791.51" transform="matrix(0.7497 -0.6618 0.6618 0.7497 -422.2883 473.5976)" class="st1" width="66.23" height="7.09"/>
	<polygon class="st1" points="431.94,771.3 445.28,768.31 440.66,781.18 	"/>
	<path class="st1" d="M437.68,811.77c-9.17,0-16.85-5.69-23.55-10.66c-9.95-7.37-18.55-13.74-30.93-5.98l-3.76-6
		c16.48-10.33,28.4-1.5,38.91,6.29c11.5,8.52,20.58,15.24,35.53,1.17l4.86,5.16C450.91,809.12,443.95,811.77,437.68,811.77"/>
	<path class="st1" d="M712.02,1016.91H329.97c-39.17,0-71.04-31.87-71.04-71.04s31.87-71.04,71.04-71.04h382.05
		c39.17,0,71.04,31.87,71.04,71.04S751.2,1016.91,712.02,1016.91 M329.97,881.91c-35.27,0-63.96,28.69-63.96,63.96
		s28.69,63.96,63.96,63.96h382.05c35.27,0,63.96-28.69,63.96-63.96s-28.69-63.96-63.96-63.96H329.97z"/>
	<path class="st1" d="M712.02,1000.61H329.97c-30.19,0-54.75-24.56-54.75-54.74c0-30.19,24.56-54.74,54.75-54.74h382.05
		c30.19,0,54.74,24.56,54.74,54.74C766.77,976.05,742.21,1000.61,712.02,1000.61 M329.97,893.96c-28.62,0-51.91,23.29-51.91,51.91
		s23.29,51.91,51.91,51.91h382.05c28.62,0,51.91-23.29,51.91-51.91s-23.29-51.91-51.91-51.91H329.97z"/>
	<path class="st1" d="M369.43,840.06h-110.5v-89.43h110.5V840.06z M266.02,832.97h96.32v-75.26h-96.32V832.97z"/>
	<path class="st1" d="M472.84,840.06h-110.5v-89.43h110.5V840.06z M369.43,832.97h96.32v-75.26h-96.32V832.97z"/>
	<path class="st1" d="M576.24,840.06h-110.5v-89.43h110.5V840.06z M472.84,832.97h96.32v-75.26h-96.32V832.97z"/>
	<path class="st1" d="M679.65,840.06H569.16v-89.43h110.49V840.06z M576.24,832.97h96.32v-75.26h-96.32V832.97z"/>
	<path class="st1" d="M783.06,840.06H672.57v-89.43h110.49V840.06z M679.65,832.97h96.32v-75.26h-96.32V832.97z"/>
	<path class="st1" d="M352.99,989.2c-23.9,0-43.34-19.44-43.34-43.33c0-23.9,19.44-43.34,43.34-43.34
		c23.89,0,43.33,19.44,43.33,43.34C396.32,969.76,376.88,989.2,352.99,989.2 M352.99,909.62c-19.99,0-36.25,16.26-36.25,36.25
		s16.26,36.25,36.25,36.25c19.99,0,36.25-16.26,36.25-36.25S372.98,909.62,352.99,909.62"/>
	<path class="st1" d="M436.99,989.2c-23.9,0-43.34-19.44-43.34-43.33c0-23.9,19.44-43.34,43.34-43.34
		c23.89,0,43.33,19.44,43.33,43.34C480.33,969.76,460.89,989.2,436.99,989.2 M436.99,909.62c-19.99,0-36.25,16.26-36.25,36.25
		s16.26,36.25,36.25,36.25s36.25-16.26,36.25-36.25S456.98,909.62,436.99,909.62"/>
	<path class="st1" d="M521,989.2c-23.9,0-43.34-19.44-43.34-43.33c0-23.9,19.44-43.34,43.34-43.34c23.9,0,43.33,19.44,43.33,43.34
		C564.33,969.76,544.89,989.2,521,989.2 M521,909.62c-19.99,0-36.25,16.26-36.25,36.25s16.26,36.25,36.25,36.25
		s36.25-16.26,36.25-36.25S540.98,909.62,521,909.62"/>
	<path class="st1" d="M605,989.2c-23.9,0-43.34-19.44-43.34-43.33c0-23.9,19.44-43.34,43.34-43.34c23.89,0,43.33,19.44,43.33,43.34
		C648.34,969.76,628.9,989.2,605,989.2 M605,909.62c-19.99,0-36.25,16.26-36.25,36.25s16.26,36.25,36.25,36.25
		s36.25-16.26,36.25-36.25S624.99,909.62,605,909.62"/>
	<path class="st1" d="M689.01,989.2c-23.9,0-43.33-19.44-43.33-43.33c0-23.9,19.44-43.34,43.33-43.34
		c23.9,0,43.33,19.44,43.33,43.34C732.34,969.76,712.9,989.2,689.01,989.2 M689.01,909.62c-19.99,0-36.25,16.26-36.25,36.25
		s16.26,36.25,36.25,36.25s36.25-16.26,36.25-36.25S708.99,909.62,689.01,909.62"/>
	<polygon class="st1" points="299.51,820.22 299.51,770.46 309.67,770.46 309.67,811.74 334.84,811.74 334.84,820.22 	"/>
	<polygon class="st1" points="705.97,820.22 705.97,770.04 715.81,770.04 736.46,803.67 736.46,770.04 745.85,770.04 745.85,820.22 
		735.7,820.22 715.36,787.23 715.36,820.22 	"/>
	<path class="st1" d="M643.17,811.77c-9.17,0-16.85-5.69-23.55-10.66c-9.95-7.37-18.55-13.74-30.93-5.98l-3.76-6
		c16.48-10.33,28.4-1.5,38.91,6.29c11.5,8.52,20.58,15.24,35.53,1.17l4.86,5.16C656.39,809.12,649.43,811.77,643.17,811.77"/>
	
		<rect x="586.8" y="791.51" transform="matrix(0.7497 -0.6618 0.6618 0.7497 -370.9824 609.2469)" class="st1" width="66.23" height="7.09"/>
	<polygon class="st1" points="636.91,771.3 650.26,768.31 645.64,781.18 	"/>
	<path class="st1" d="M497.87,800.59l6.08,2.5c-0.93,4.58-2.49,7.98-4.66,10.21c-2.17,2.22-4.92,3.33-8.26,3.33
		c-4.13,0-7.53-1.89-10.19-5.67c-2.66-3.78-3.99-8.94-3.99-15.5c0-6.93,1.34-12.31,4.01-16.15s6.19-5.75,10.55-5.75
		c3.81,0,6.9,1.51,9.27,4.52c1.42,1.78,2.48,4.34,3.19,7.68l-6.21,1.98c-0.37-2.15-1.14-3.85-2.3-5.1
		c-1.17-1.25-2.59-1.87-4.26-1.87c-2.31,0-4.18,1.1-5.62,3.32c-1.44,2.21-2.16,5.79-2.16,10.75c0,5.25,0.71,9,2.12,11.23
		c1.42,2.24,3.26,3.35,5.52,3.35c1.67,0,3.11-0.71,4.32-2.13S497.35,803.65,497.87,800.59"/>
	<path class="st1" d="M510.3,795.1c0,4.72,0.82,8.29,2.45,10.73c1.63,2.43,3.7,3.65,6.2,3.65c2.51,0,4.57-1.21,6.18-3.62
		c1.61-2.42,2.41-6.04,2.41-10.88c0-4.78-0.78-8.34-2.35-10.68c-1.56-2.35-3.64-3.53-6.24-3.53c-2.59,0-4.68,1.19-6.27,3.57
		C511.09,786.72,510.3,790.31,510.3,795.1 M503.82,795.38c0-4.24,0.48-7.81,1.43-10.69c0.7-2.12,1.67-4.03,2.9-5.71
		c1.22-1.68,2.56-2.93,4.02-3.76c1.94-1.1,4.18-1.65,6.71-1.65c4.59,0,8.25,1.91,11.01,5.72c2.75,3.82,4.13,9.12,4.13,15.91
		c0,6.73-1.37,12-4.1,15.8c-2.73,3.81-6.39,5.7-10.95,5.7c-4.63,0-8.31-1.89-11.04-5.68C505.19,807.24,503.82,802.03,503.82,795.38"
		/>
	<polygon class="st1" points="534.6,815.94 534.6,774.33 544.04,774.33 549.61,802.71 555.12,774.33 564.58,774.33 564.58,815.94 
		558.76,815.94 558.74,783.18 552.6,815.94 546.55,815.94 540.45,783.18 540.43,815.94 	"/>
</g>
</svg>
