<?xml version="1.0" encoding="utf-8"?>
<!-- Generator: Adobe Illustrator 20.0.0, SVG Export Plug-In . SVG Version: 6.00 Build 0)  -->
<svg version="1.1" id="Layer_1" xmlns="http://www.w3.org/2000/svg" xmlns:xlink="http://www.w3.org/1999/xlink" x="0px" y="0px"
	 viewBox="0 0 811.7 1182.3" style="enable-background:new 0 0 811.7 1182.3;" xml:space="preserve">
<g>
	<path d="M805.8,29.4C692.9,10.4,550.8,0,405.8,0S118.8,10.4,5.9,29.4l-5.9,1v48.3l4.1,1.9C13.8,85.1,23.8,88,34,89
		c-0.8,112.2,4.9,210.8,16.9,293.1c12.3,84.3,31.7,154.1,57.6,207.4l0.2,0.4c21.8,37.8,51.2,72.2,87.5,102.2l0.3,0.2
		c15.2,11.3,22.1,28.9,21.3,54v0.2v0.2c2.4,124.4,4.4,214.5,5.7,268.2c0.1,6,0.9,9.2,5.2,14c5.4,5.9,19.7,21.1,34.7,34.6
		c20.9,18.7,31,22.9,36.7,23.6v43.9h-17v46.8l1.7,0.4c1.7,0.4,3.4,0.7,5.1,1c0.6,0.1,1.3,0.2,1.9,0.3c1,0.2,2,0.4,3.1,0.5
		c0.3,0,0.5,0.1,0.8,0.1c1,0.2,2,0.3,2.9,0.4c0.2,0,0.3,0.1,0.5,0.1c4.5,0.6,9,1,13.4,1.3c3.4,0.2,6.8,0.3,10.2,0.3
		c11.1,0,22.3-1.1,33.4-3.1c1.6-0.3,3.2-0.6,4.7-1l1.7-0.4v-46.8h-17v-43.8h120.6v43.8h-17v46.8l1.7,0.4c1.7,0.4,3.4,0.7,5.1,1
		c0.7,0.1,1.3,0.2,2,0.3c1,0.2,2,0.4,3,0.5c0.3,0,0.5,0.1,0.8,0.1c1,0.2,2,0.3,2.9,0.4c0.2,0,0.4,0.1,0.5,0.1
		c4.5,0.6,8.9,1,13.4,1.3c3.4,0.2,6.8,0.3,10.2,0.3c11.1,0,22.3-1.1,33.4-3.1c1.6-0.3,3.2-0.6,4.7-1l1.7-0.4v-46.8h-17v-43.9
		c5.7-0.7,15.8-4.9,36.7-23.6c15-13.5,29.3-28.7,34.7-34.6c4.3-4.7,5.1-8,5.2-14c1.3-53.7,3.3-143.8,5.7-268.2v-0.2v-0.2
		c-0.8-25.1,6.1-42.7,21.3-54l0.3-0.2c36.3-30,65.7-64.4,87.5-102.2l0.2-0.4c25.9-53.3,45.3-123,57.6-207.4
		c12.1-82.3,17.8-180.9,16.9-293.1c10.2-1.1,20.2-3.9,29.9-8.4l4.1-1.9V30.4L805.8,29.4z M293.9,1175.6c-0.1,0-0.1,0-0.2,0
		c-0.9-0.1-1.8-0.3-2.7-0.5c-0.7-0.1-1.4-0.3-2.1-0.4c-0.5-0.1-1-0.2-1.5-0.3v-39.1h6.5V1175.6z M459.9,1175.6c-0.1,0-0.1,0-0.2,0
		c-0.9-0.1-1.7-0.3-2.6-0.5c-0.7-0.1-1.4-0.3-2.1-0.4c-0.5-0.1-1-0.2-1.5-0.3v-39.1h6.4V1175.6z M305.5,1131.1h-1.1v-43.8h1.1
		V1131.1z M345.6,1135.3h12.7v0v39.1c-0.4,0.1-0.7,0.2-1.1,0.2c-1.2,0.2-2.3,0.5-3.5,0.7c-0.6,0.1-1.3,0.2-1.9,0.3
		c-1.2,0.2-2.4,0.4-3.6,0.6c-0.6,0.1-1.2,0.2-1.7,0.3c-1.6,0.2-3.3,0.4-4.9,0.6c-0.7,0.1-1.4,0.1-2.1,0.2c-1,0.1-2.1,0.2-3.1,0.3
		c-0.9,0.1-1.9,0.1-2.8,0.2c-0.7,0-1.4,0.1-2.1,0.1c-1.1,0.1-2.2,0.1-3.2,0.1c-0.5,0-1,0-1.6,0c-1.2,0-2.5,0-3.7,0
		c-0.1,0-0.2,0-0.3,0c-2.6,0-5.2-0.1-7.8-0.2v-42.5H345.6z M320.1,1131.1v-43.8h21.2v43.8H320.1z M471.5,1131.1h-1.1v-43.8h1.1
		V1131.1z M524.3,1135.4v39c-0.4,0.1-0.7,0.1-1.1,0.2c-1.2,0.2-2.3,0.5-3.5,0.7c-0.6,0.1-1.3,0.2-1.9,0.3c-1.2,0.2-2.4,0.4-3.5,0.6
		c-0.6,0.1-1.2,0.2-1.8,0.3c-1.6,0.2-3.1,0.4-4.7,0.6c-0.8,0.1-1.6,0.2-2.4,0.2c-1,0.1-2,0.2-3,0.3c-1,0.1-2,0.1-2.9,0.2
		c-0.7,0-1.4,0.1-2.1,0.1c-1.1,0.1-2.2,0.1-3.3,0.1c-0.5,0-1,0-1.5,0c-1.3,0-2.5,0.1-3.8,0.1c-0.1,0-0.1,0-0.2,0
		c-2.6,0-5.2-0.1-7.9-0.2v-42.5h30.7H524.3z M486.1,1131.1v-43.8h21.2v43.8H486.1z M509.4,1073.1h-166h-41.1
		c-0.7,0-7.5-0.6-29.4-20.1c-11-9.9-21.7-20.8-28.5-28c29.3,5.1,81.5,7.5,161.4,7.6c80-0.1,132.1-2.5,161.4-7.6
		C537.8,1056.3,515.7,1073.1,509.4,1073.1z M606.6,681.1c-18.7,14-27.8,36.1-26.9,65.6c-2.4,124.3-4.4,214.3-5.7,268
		c-0.1,3.1-0.1,3.1-1.5,4.7c-0.1,0.1-0.2,0.3-0.4,0.4c-27.6,5.7-81,8.5-166.3,8.6c-85.3-0.1-138.7-2.9-166.3-8.6
		c-0.1-0.1-0.3-0.3-0.4-0.4c-1.4-1.6-1.4-1.6-1.5-4.7c-1.3-53.7-3.3-143.7-5.7-268c0.9-29.5-8.1-51.5-26.9-65.6
		c-24.8-20.5-46.2-43.1-64-67.5c87.9,12.1,176.3,18.1,264.8,18.1c88.4,0,176.9-6,264.8-18.1C652.8,638,631.4,660.6,606.6,681.1z
		 M770.4,75.3l-7,0.2l0.1,7c1.1,114.2-4.6,214.3-16.7,297.6c-12.1,82.8-31,151.1-56.2,203c-5.1,8.8-10.6,17.4-16.5,25.8
		c-178,24.8-358.4,24.8-536.4,0c-5.9-8.4-11.4-17-16.5-25.8C96,531.2,77.1,462.9,65,380.1C52.7,296.8,47.1,196.7,48.2,82.5l0.1-7
		l-7-0.2c-3.8-0.1-7.6-0.5-11.4-1.2c57-8.7,120.7-15.4,187.8-19.7c0.6,32.1,1,59.3,1.4,85.6c0.9,64.9,1.6,116.2,5.3,196.3
		c1,21,4.3,33.4,11.2,41.6c7.4,8.8,18.9,12.7,37.2,12.7c12.9,0,26.5-5.4,42.3-11.7c22.9-9.1,51.4-20.5,90.7-20.7
		c39.4,0.2,67.9,11.5,90.8,20.7c15.8,6.3,29.4,11.7,42.3,11.7c18.4,0,29.8-3.9,37.2-12.7c6.9-8.2,10.2-20.7,11.2-41.6
		c3.7-80.1,4.4-131.4,5.3-196.3c0.4-26.3,0.7-53.5,1.4-85.6c67.2,4.3,130.8,11,187.8,19.7C778,74.8,774.2,75.2,770.4,75.3z
		 M224.7,54c58.5-3.6,119.5-5.5,181.1-5.5s122.7,1.9,181.1,5.5c-0.6,32.2-1,59.5-1.4,85.9c-0.9,64.8-1.6,116.1-5.3,196
		c-0.9,19.3-3.7,30.5-9.5,37.4c-5.9,7.1-15.7,10.2-31.8,10.2c-11.6,0-24.6-5.2-39.7-11.2c-23.5-9.3-52.6-21-93.4-21.2
		c-40.7,0.2-69.9,11.8-93.4,21.2c-15.1,6-28.1,11.2-39.7,11.2c-16.1,0-25.9-3.1-31.8-10.2c-5.8-6.9-8.7-18.1-9.5-37.4
		c-3.7-80-4.4-131.2-5.3-196C225.7,113.5,225.4,86.2,224.7,54z M797.5,69.5C686.1,51.3,547.4,41.4,405.8,41.4
		c-141.5,0-280.2,10-391.7,28.1V42.4c111.2-18.2,250-28.2,391.7-28.2s280.5,10,391.7,28.2V69.5z"/>
	<polygon points="358.4,195 357.2,195 355.4,201.5 360.2,201.5 	"/>
	<path d="M376.8,209.4c0,0,1.5,0.1,2.2-0.4v-3.7l-2.6,0.3c0-0.2-1.6,0.1-1.6,1v1.5C374.8,208.1,374.8,209.4,376.8,209.4z"/>
	<path d="M405.9,230.5c37.9,0,78.5-1.7,120.7-5l1.8-0.1v-47.6l-1.8-0.1c-40-3.1-80.6-4.7-120.7-4.7c-40.2,0-80.8,1.6-120.7,4.7
		l-1.8,0.1v47.6l1.8,0.1C327.4,228.8,368,230.5,405.9,230.5z M405.8,176.9h4.7c34.8,0,72,1.5,113.6,4.6v40.3
		c-36.6,2.9-74.8,4.6-113.6,4.8h-4.7V176.9z M387.3,209.6v-9.7c0-0.6,0.2-0.8,0.2-0.8c2.1-2.1,6.2-2.1,6.2-2.1h1.1
		c6.3,0,6,4.1,6,4.1v8.7v1.6c0,0.2-0.1,0.3-0.3,0.3h-4.2c-0.1,0-0.2-0.1-0.2-0.2v-10.3c0,0,0-1.3-2-1.3c0,0-1.5-0.1-2.2,0.4v10.5
		v0.7c0,0.1-0.1,0.2-0.2,0.2h-4.2c-0.1,0-0.2-0.1-0.2-0.2V209.6z M370.2,208.1v-1.5c0-2.8,4-3.6,4-3.6l4.8-0.8v-0.7
		c0-1.2-1.4-1.3-1.4-1.3c-2.6-0.3-5.5,0.6-5.5,0.6c-0.7,0.1-0.6-0.4-0.6-0.4l-0.2-1.9c-0.1-0.4,0.3-0.5,0.3-0.5c2.8-1.2,7.1-1,7.1-1
		c5.2,0,5.1,4.2,5.1,4.2v8.1h-0.1c0,0.6-0.2,0.8-0.2,0.8c-2.1,2.1-6.2,2.1-6.2,2.1h-1.1C369.9,212.2,370.2,208.1,370.2,208.1z
		 M347.4,211.2l6-19.3c0.3-0.3,0.3-0.3,0.5-0.3h7.5c0.3,0,0.3,0,0.5,0.3l6,19.3c0.4,0.5-0.1,0.5-0.1,0.5h-4.7c0,0-0.2,0-0.2-0.3
		l-1.8-6.5h-6.6l-1.8,6.5c0,0.2-0.3,0.3-0.3,0.3h-4.7C347.7,211.7,347.2,211.7,347.4,211.2z M332.4,207.7v-15.6
		c0-0.1,0.1-0.2,0.2-0.2l3.6-0.8h0.3c0.5,0,0.5,0.3,0.5,0.5v11v0.4h1l3.4-5.5c0,0,0.1-0.3,0.3-0.3l4.4,0.3c0.2,0,0.2,0.3,0.2,0.3
		l-4.4,6.5l4.7,7c-0.1,0.4-0.3,0.4-0.3,0.4h-5.2l-3.1-5.5h-1v5.2c0,0.1-0.1,0.2-0.2,0.2h-4.2c0,0-0.2-0.1-0.2-0.2V207.7z
		 M327.8,198.1v13.3c0,0.1-0.1,0.2-0.2,0.2h-4.2c-0.1,0-0.2-0.1-0.2-0.2v-13.3c0-0.1,0.1-0.2,0.2-0.2h4.2
		C327.7,197.9,327.8,198,327.8,198.1z M323.1,191.3c0-0.1,0.1-0.2,0.2-0.2h4.2c0.1,0,0.2,0.1,0.2,0.2v4.5c0,0.1-0.1,0.2-0.2,0.2
		h-4.2c-0.1,0-0.2-0.1-0.2-0.2V191.3z M312.7,208.1v-16c0-0.1,0.1-0.2,0.2-0.2l3.6-0.8h0.3c0.5,0,0.5,0.3,0.5,0.5v15.6
		c0,0,0.1,1.3,1,1.3h0.8c0.3,0,0.5,0,0.5,0.3l0.5,2.3c0.1,0.1,0.1,0.3-0.1,0.3c-1.4,0.6-3.3,0.5-3.3,0.5
		C312.5,211.9,312.7,208.1,312.7,208.1z M292.4,191.9c0-0.1,0.1-0.2,0.2-0.2h4.5c0.1,0,0.2,0.1,0.2,0.2v7.8h1.3l5.6-8.1h5.6v0.8
		l-6.8,9.1l7.3,9.6v0.6h0h-5.8l-5.9-8.3h-1.3v8.1c0,0.1-0.1,0.2-0.2,0.2h-4.5c-0.1,0-0.2-0.1-0.2-0.2V191.9z"/>
	<path d="M454,211.7c0.1,0,0.2-0.1,0.2-0.2v-5.2h1l3.1,5.5h5.2c0,0,0.3,0,0.3-0.3l-4.7-7l4.4-6.5c0,0,0.1-0.2-0.2-0.3l-4.4-0.3
		c-0.3,0-0.3,0.3-0.3,0.3l-3.4,5.5h-1v-11.4c0-0.2,0-0.5-0.5-0.5h-0.3l-3.6,0.8c-0.1,0-0.2,0.1-0.2,0.2v15.6v3.7l0.2,0.1H454z"/>
	<path d="M414.7,211.5v-8.1h1.3l5.9,8.3h5.8v-0.5l-7.3-9.6l6.8-9.1v-0.8h-5.6l-5.6,8.1h-1.3V192c0-0.1-0.1-0.2-0.2-0.2H410
		c-0.1,0-0.2,0.1-0.2,0.2v19.6c0,0,0.1,0.1,0.2,0.1h4.5C414.6,211.7,414.7,211.6,414.7,211.5z"/>
	<path d="M440.7,196h4.2c0.1,0,0.2-0.1,0.2-0.2v-4.5c0-0.1-0.1-0.2-0.2-0.2h-4.2c-0.1,0-0.2,0.1-0.2,0.2v4.5
		C440.5,195.9,440.6,196,440.7,196z"/>
	<path d="M440.7,211.6h4.2c0.1,0,0.2-0.1,0.2-0.2v-13.3c0.1-0.1,0-0.2-0.2-0.2h-4.2c-0.1,0-0.2,0.1-0.2,0.2v13.3
		C440.5,211.5,440.6,211.6,440.7,211.6z"/>
	<path d="M434.1,211.9c0,0,1.9,0.1,3.3-0.5c0.2,0,0.2-0.3,0.2-0.3l-0.5-2.3c0-0.3-0.2-0.3-0.5-0.3h-0.8c-1,0-1-1.3-1-1.3v-15.6
		c0-0.3,0-0.5-0.5-0.5H434l-3.7,0.8c-0.1,0-0.2,0.1-0.2,0.2v16C430.1,208.1,429.9,211.9,434.1,211.9z"/>
	<path d="M513.5,195c1.5,0,2.8-0.5,3.9-1.6c1.1-1.1,1.6-2.4,1.6-3.9s-0.5-2.8-1.6-3.9c-1.1-1.1-2.4-1.6-3.9-1.6s-2.8,0.5-3.9,1.6
		c-1.1,1.1-1.6,2.4-1.6,3.9s0.5,2.8,1.6,3.9C510.7,194.5,512,195,513.5,195z M510.1,186.1c0.9-0.9,2.1-1.4,3.4-1.4s2.4,0.5,3.4,1.4
		c0.9,0.9,1.4,2.1,1.4,3.4s-0.5,2.5-1.4,3.4c-0.9,0.9-2.1,1.4-3.4,1.4c-1.3,0-2.4-0.5-3.4-1.4c-0.9-0.9-1.4-2.1-1.4-3.4
		S509.2,187.1,510.1,186.1z"/>
	<path d="M512.6,190.1h0.8l1.8,2.3h1.5l-2.2-2.5c0.4-0.2,0.7-0.4,0.9-0.7s0.4-0.6,0.4-1.1c0-0.3-0.1-0.6-0.2-0.8
		c-0.1-0.2-0.3-0.4-0.6-0.5c-0.2-0.1-0.5-0.2-0.7-0.3c-0.2,0-0.6,0-1,0h-1.8v5.9h1.1V190.1z M513.3,187.3c0.2,0,0.4,0,0.5,0
		s0.2,0.1,0.4,0.1c0.1,0.1,0.2,0.2,0.3,0.3c0.1,0.1,0.1,0.2,0.1,0.4c0,0.2,0,0.4-0.1,0.5c0,0.1-0.1,0.2-0.2,0.3
		c-0.1,0.1-0.2,0.2-0.4,0.2s-0.4,0.1-0.6,0.1h-0.6v-1.9H513.3z"/>
	<path d="M489.6,196h4.2c0.1,0,0.2-0.1,0.2-0.2v-4.5c0-0.1-0.1-0.2-0.2-0.2h-4.2c-0.1,0-0.2,0.1-0.2,0.2v4.5
		C489.4,195.9,489.5,196,489.6,196z"/>
	<path d="M489.7,197.9c-0.1,0-0.2,0.1-0.2,0.2v13.3c0,0.1,0.1,0.2,0.2,0.2h4.2c0.1,0,0.2-0.1,0.2-0.2v-13.3c0-0.1-0.1-0.2-0.2-0.2
		H489.7z"/>
	<path d="M502.5,211.9c0,0,3.2,0.1,4.7-0.5c0.2,0,0.2-0.2,0.2-0.2l-0.3-2.3c0-0.3-0.2-0.3-0.5-0.3h-2.4c-1,0-1-1.3-1-1.3v-6.5h3.4
		c0.3,0,0.5,0,0.5-0.3v-2.6c0-0.3-0.3-0.5-0.5-0.5h-3.4v-5.7c0-0.3,0-0.5-0.5-0.5h-0.3l-3.6,0.8c-0.1,0-0.2,0.1-0.2,0.2v16
		C498.5,208.1,498.3,211.9,502.5,211.9z"/>
	<path d="M475.4,212.2c9.2,0,9.1-6.5,9.1-6.5v-14.1c0-0.3,0-0.5-0.5-0.5h-0.3l-4.2,0.8c-0.1,0-0.2,0.1-0.2,0.2v14.4c0,0,0.2,2-3.1,2
		h-1.4c0,0-3,0.1-3-2.9v-14c0-0.3,0-0.5-0.5-0.5H471l-4.1,0.8c-0.1,0-0.2,0.1-0.2,0.2v13C466.5,205.1,466.1,212.2,475.4,212.2z"/>
</g>
</svg>
