<?xml version="1.0" encoding="utf-8"?>
<!-- Generator: Adobe Illustrator 20.0.0, SVG Export Plug-In . SVG Version: 6.00 Build 0)  -->
<svg version="1.1" id="Layer_1" xmlns="http://www.w3.org/2000/svg" xmlns:xlink="http://www.w3.org/1999/xlink" x="0px" y="0px"
	 viewBox="0 0 1056.3 1096.6" style="enable-background:new 0 0 1056.3 1096.6;" xml:space="preserve">
<style type="text/css">
	.st0{fill:#0074CC;}
</style>
<g>
	<path d="M94.1,971.4c22.6,0,41-18.4,41-41s-18.4-41-41-41s-41,18.4-41,41S71.5,971.4,94.1,971.4z M94.1,893
		c20.6,0,37.4,16.8,37.4,37.4s-16.8,37.4-37.4,37.4S56.7,951,56.7,930.4S73.4,893,94.1,893z"/>
	<path d="M271.5,971.4c22.6,0,41-18.4,41-41s-18.4-41-41-41s-41,18.4-41,41S248.9,971.4,271.5,971.4z M271.5,893
		c20.6,0,37.4,16.8,37.4,37.4s-16.8,37.4-37.4,37.4s-37.4-16.8-37.4-37.4S250.8,893,271.5,893z"/>
	<path d="M1056.3,79.2c0-1.9-0.7-3.7-2.1-5L982.1,2.1c-1.3-1.3-3.1-2.1-5-2.1H80c-1.9,0-3.7,0.7-5,2.1L2.8,74.2
		c-1.3,1.3-2.1,3.1-2.1,5v713.6c0,0-0.7,5.3-0.7,9.4v258.1c0,5.9,4.8,10.6,10.6,10.6h25.5v16c0,5.3,4.3,9.6,9.6,9.6h286
		c5.3,0,9.6-4.3,9.6-9.6v-16h13.6c5.9,0,10.6-4.8,10.6-10.6v-258c0-5.9-4.8-10.6-10.6-10.6h-340V82.2l68-68h270.3v118.1
		c0,25,20.3,45.3,45.3,45.3h251c25,0,45.3-20.3,45.3-45.3V14.2h279.3l68,68v708.6H701.2c-5.9,0-10.6,4.8-10.6,10.6v196.9H366.4v14.2
		h324.2v47.1c0,5.9,4.8,10.6,10.6,10.6H714v16.8c0,5.3,4.3,9.6,9.6,9.6h286c5.3,0,9.6-4.3,9.6-9.6v-16.8h26.2
		c5.9,0,10.6-4.8,10.6-10.6V801.4c0-3.8,0.2-9,0.2-9V79.2H1056.3z M334.3,1087c0,1.4-1.1,2.5-2.5,2.5h-286c-1.4,0-2.5-1.1-2.5-2.5
		v-16h291V1087z M358.5,802.3v258.1c0,2-1.6,3.5-3.5,3.5H10.6c-2,0-3.5-1.6-3.5-3.5V802.3c0-2,1.6-3.5,3.5-3.5h344.3
		C356.9,798.7,358.5,800.3,358.5,802.3z M687.7,132.2c0,21.1-17.1,38.2-38.2,38.2h-251c-21.1,0-38.2-17.1-38.2-38.2v-118h327.4
		L687.7,132.2L687.7,132.2z M1012.2,1087c0,1.4-1.1,2.5-2.5,2.5h-286c-1.4,0-2.5-1.1-2.5-2.5v-16.8h291V1087z M1049,1059.5
		c0,2-1.6,3.5-3.5,3.5H701.2c-2,0-3.5-1.6-3.5-3.5V801.4c0-2,1.6-3.5,3.5-3.5h344.3c2,0,3.5,1.6,3.5,3.5V1059.5z"/>
	<path d="M138.1,154.9c9.8,0,17.8-8,17.8-17.8s-8-17.8-17.8-17.8s-17.8,8-17.8,17.8S128.3,154.9,138.1,154.9z M138.1,122.9
		c7.9,0,14.2,6.4,14.2,14.2c0,7.9-6.4,14.2-14.2,14.2c-7.9,0-14.2-6.4-14.2-14.2C123.9,129.3,130.3,122.9,138.1,122.9z"/>
	<path d="M784.6,894.6c-22.6,0-41,18.4-41,41s18.4,41,41,41s41-18.4,41-41S807.2,894.6,784.6,894.6z M784.6,973
		c-20.6,0-37.4-16.8-37.4-37.4s16.8-37.4,37.4-37.4S822,915,822,935.6S805.3,973,784.6,973z"/>
	<path d="M962.1,894.6c-22.6,0-41,18.4-41,41s18.4,41,41,41s41-18.4,41-41S984.7,894.6,962.1,894.6z M962.1,973
		c-20.6,0-37.4-16.8-37.4-37.4s16.8-37.4,37.4-37.4s37.4,16.8,37.4,37.4S982.7,973,962.1,973z"/>
	<path d="M295.9,137.1c0-14.7-12-26.7-26.7-26.7s-26.7,12-26.7,26.7s12,26.7,26.7,26.7C283.9,163.8,295.9,151.8,295.9,137.1z
		 M269.2,160.3c-12.8,0-23.2-10.4-23.2-23.2s10.4-23.2,23.2-23.2s23.2,10.4,23.2,23.2C292.4,149.9,282,160.3,269.2,160.3z"/>
	<polygon points="98.9,752.3 98.9,729.6 121.5,729.6 121.5,720.1 98.9,720.1 98.9,697.4 89.3,697.4 89.3,720.1 66.6,720.1 
		66.6,729.6 89.3,729.6 89.3,752.3 	"/>
	<rect x="255.7" y="730.6" width="31.5" height="10.2"/>
	<polygon points="951.4,697.4 951.4,720.1 928.8,720.1 928.8,729.6 951.4,729.6 951.4,752.3 961.1,752.3 961.1,729.6 983.7,729.6 
		983.7,720.1 961.1,720.1 961.1,697.4 	"/>
	<rect x="763.1" y="730.6" width="31.5" height="10.2"/>
</g>
<g>
	<path class="st0" d="M269.2,117.8c10.7,0,19.3,8.6,19.3,19.3s-8.6,19.3-19.3,19.3c-10.7,0-19.3-8.6-19.3-19.3
		C249.9,126.5,258.6,117.8,269.2,117.8"/>
</g>
<g>
	<path class="st0" d="M138.1,123.6c7.5,0,13.5,6,13.5,13.5s-6,13.5-13.5,13.5s-13.5-6-13.5-13.5
		C124.6,129.7,130.7,123.6,138.1,123.6"/>
</g>
</svg>
