<?xml version="1.0" encoding="utf-8"?>
<!-- Generator: Adobe Illustrator 17.0.0, SVG Export Plug-In . SVG Version: 6.00 Build 0)  -->
<!DOCTYPE svg PUBLIC "-//W3C//DTD SVG 1.1//EN" "http://www.w3.org/Graphics/SVG/1.1/DTD/svg11.dtd">
<svg version="1.1" id="Layer_1" xmlns="http://www.w3.org/2000/svg" xmlns:xlink="http://www.w3.org/1999/xlink" x="0px" y="0px"
	 width="1479.91px" height="1479.919px" viewBox="0 0 1479.91 1479.919" enable-background="new 0 0 1479.91 1479.919"
	 xml:space="preserve">
<g>
	<path d="M1340.394,17.411H139.516c-33.578,0-64.1,13.743-86.237,35.878c-22.135,22.128-35.868,52.66-35.868,86.237v1200.87
		c0,67.161,54.944,122.112,122.106,122.112h1200.877c33.57,0,64.099-13.741,86.227-35.878c22.137-22.135,35.878-52.66,35.878-86.234
		V139.526C1462.499,72.355,1407.557,17.411,1340.394,17.411 M139.516,0h1200.877c76.735,0,139.516,62.781,139.516,139.526v1200.87
		c0,38.376-15.691,73.262-40.98,98.543c-25.281,25.29-60.16,40.98-98.536,40.98H139.516C62.781,1479.919,0,1417.131,0,1340.396
		V139.526c0-38.376,15.691-73.265,40.971-98.545C66.251,15.691,101.14,0,139.516,0z"/>
</g>
<g>
	<path fill="#2B2A29" d="M1345.364,215.527c-2.716-4.778-5.286-8.632-7.64-11.455l0.436-0.363c2.375,2.849,4.964,6.731,7.696,11.538
		L1345.364,215.527z"/>
</g>
<g>
	<path fill="#2B2A29" d="M134.545,215.527l-0.493-0.28c2.732-4.806,5.322-8.688,7.697-11.538l0.436,0.363
		C139.831,206.896,137.26,210.75,134.545,215.527z"/>
</g>
<g>
	<path fill="#2B2A29" d="M1338.16,1248.741l-0.436-0.363c2.354-2.825,4.925-6.679,7.64-11.454l0.492,0.279
		C1343.125,1242.009,1340.536,1245.891,1338.16,1248.741z"/>
</g>
<g>
	<path d="M753.095,1296.024l-13.141-0.001l-13.139,0.001l-573.224-0.021c-7.73,0-15.162-1.721-22.086-5.114l-3.006-1.474
		l0.034-0.153c-1.977-1.15-4.392-2.701-5.901-4.187c-1.917-1.887-3.072-3.022-5.032-5.511
		c-15.816-20.083-29.072-74.286-39.4-161.105c-12.207-102.613-18.917-241.912-18.895-392.235
		C59.283,575.902,65.994,436.603,78.2,333.99c10.328-86.819,23.583-141.022,39.399-161.105c1.961-2.49,3.117-3.626,5.031-5.509
		c1.51-1.485,3.889-3.019,5.85-4.161l-0.037-0.153l3.063-1.501c6.926-3.394,14.356-5.115,22.085-5.115l599.503-0.02l573.224,0.02
		c7.729,0,15.159,1.721,22.085,5.116l0.138,0.07c1.171,0.601,6.215,3.263,8.736,5.743c1.921,1.89,3.074,3.025,5.032,5.511
		c15.816,20.082,29.072,74.285,39.4,161.105c12.206,102.613,18.916,241.912,18.895,392.236
		c0.021,150.323-6.688,289.622-18.895,392.234c-10.328,86.82-23.584,141.023-39.399,161.105c-1.958,2.485-3.111,3.619-5.021,5.499
		c-1.496,1.47-3.855,2.996-5.811,4.139l0.041,0.158l-3.117,1.528c-6.925,3.394-14.355,5.114-22.085,5.114L753.095,1296.024z
		 M135.287,1283.272c5.738,2.805,11.896,4.228,18.305,4.228l599.503,0.021l573.224-0.021c6.405,0,12.563-1.422,18.3-4.226
		c2.466-1.27,5.555-3.138,6.696-4.262c1.851-1.82,2.69-2.646,4.315-4.71c10.197-12.947,25.005-50.67,37.636-156.847
		c12.167-102.29,18.856-241.231,18.835-391.23c0.021-150-6.668-288.941-18.835-391.231
		c-12.631-106.177-27.438-143.899-37.637-156.848c-1.625-2.063-2.465-2.89-4.306-4.701c-1.298-1.276-4.788-3.289-6.701-4.268
		c-5.74-2.806-11.898-4.229-18.304-4.229l-599.503-0.02l-573.223,0.02c-6.408,0-12.567,1.423-18.308,4.23
		c-1.993,1.023-5.401,2.992-6.688,4.258c-1.846,1.815-2.687,2.643-4.315,4.709c-10.198,12.949-25.005,50.672-37.636,156.848
		c-12.168,102.291-18.857,241.232-18.835,391.23c-0.022,149.999,6.667,288.941,18.835,391.231
		c12.63,106.176,27.438,143.898,37.636,156.848c1.627,2.065,2.468,2.893,4.312,4.706
		C129.785,1280.184,132.895,1282.039,135.287,1283.272z M1298.986,1268.536H180.923c-14.299,0-25.205-2.746-33.339-8.394
		c-3.548-2.465-6.579-5.497-9.012-9.017c-1.745-2.113-3.586-4.722-5.477-7.762c-0.777-0.92-0.929-1.652-0.729-3.49l-0.014-0.004
		l0.029-0.133c0.083-0.717,0.215-1.597,0.382-2.71c10.61-70.587,17.642-125.56,19.8-154.792
		c7.137-96.702,10.036-219.776,8.384-355.917l0-0.135c1.653-136.192-1.246-259.266-8.383-355.968
		c-2.161-29.272-9.196-84.271-19.811-154.866c-0.166-1.103-0.295-1.965-0.377-2.663l-0.024-0.107l0.011-0.002
		c-0.206-1.836-0.056-2.492,0.69-3.426c1.905-3.068,3.76-5.699,5.517-7.826c2.433-3.52,5.464-6.553,9.012-9.017
		c8.134-5.649,19.04-8.395,33.34-8.395h1118.063c14.3,0,25.205,2.746,33.339,8.395c3.549,2.463,6.58,5.496,9.013,9.016
		c1.756,2.126,3.609,4.756,5.515,7.823c0.748,0.928,0.905,1.548,0.693,3.432l0.011,0.002l-0.024,0.109
		c-0.084,0.721-0.22,1.623-0.395,2.787c-10.607,70.58-17.637,125.534-19.792,154.739c-7.137,96.7-10.036,219.773-8.383,355.917
		v0.135c-1.653,136.194,1.246,259.269,8.383,355.969c2.157,29.227,9.188,84.196,19.798,154.781l0.352,2.343
		c0.309,2.063-0.131,3.379-0.813,4.216c-1.845,2.95-3.641,5.486-5.345,7.551c-2.433,3.52-5.464,6.552-9.013,9.017
		C1324.19,1265.79,1313.285,1268.536,1298.986,1268.536z M140.938,1239.858c1.505,2.354,2.946,4.36,4.295,5.979l0.246,0.325
		c1.892,2.771,4.167,5.059,6.955,6.995c6.663,4.626,15.982,6.875,28.489,6.875h1118.063c12.507,0,21.826-2.249,28.489-6.875
		c2.789-1.937,5.063-4.225,6.955-6.995l0.245-0.324c1.349-1.619,2.791-3.626,4.296-5.979c-0.065-0.436-0.145-0.964-0.237-1.577
		c-10.641-70.791-17.697-125.986-19.869-155.42c-7.155-96.938-10.062-220.265-8.406-356.646
		c-1.655-136.362,1.252-259.688,8.406-356.626c2.17-29.412,9.225-84.592,19.863-155.377c0.095-0.632,0.176-1.174,0.243-1.621
		c-1.506-2.354-2.947-4.36-4.296-5.979l-0.245-0.325c-1.892-2.771-4.166-5.059-6.955-6.995c-6.662-4.626-15.981-6.875-28.489-6.875
		H180.923c-12.508,0-21.827,2.249-28.489,6.875c-2.789,1.937-5.063,4.225-6.955,6.996l-0.246,0.325
		c-1.349,1.618-2.79,3.624-4.295,5.978c0.063,0.416,0.138,0.916,0.225,1.494c6.165,41.003,16.946,115.73,19.882,155.504
		c7.155,96.94,10.062,220.266,8.406,356.646c1.655,136.36-1.251,259.686-8.406,356.626c-2.173,29.439-9.23,84.639-19.871,155.431
		C141.082,1238.901,141.003,1239.425,140.938,1239.858z"/>
</g>
<g>
	<path fill="#2B2A29" d="M141.75,1248.741c-2.376-2.853-4.966-6.734-7.697-11.538l0.493-0.279c2.714,4.774,5.285,8.628,7.64,11.454
		L141.75,1248.741z"/>
</g>
<g>
	<path fill-rule="evenodd" clip-rule="evenodd" d="M303.928,718.563h872.053c7.026,0,12.774-5.748,12.774-12.774
		c0-7.026-5.748-12.774-12.774-12.774H303.928c-7.026,0-12.774,5.748-12.774,12.774
		C291.155,712.815,296.903,718.563,303.928,718.563"/>
</g>
</svg>
