<?xml version="1.0" standalone="no"?>
<!DOCTYPE svg PUBLIC "-//W3C//DTD SVG 20010904//EN"
 "http://www.w3.org/TR/2001/REC-SVG-20010904/DTD/svg10.dtd">
<svg version="1.0" xmlns="http://www.w3.org/2000/svg"
 width="512.000000pt" height="512.000000pt" viewBox="0 0 512.000000 512.000000"
 preserveAspectRatio="xMidYMid meet">
<metadata>
Created by potrace 1.13, written by Peter Selinger 2001-2015
</metadata>
<g transform="translate(0.000000,512.000000) scale(0.100000,-0.100000)"
fill="#000000" stroke="none">
<path d="M2192 4085 c-178 -39 -354 -172 -446 -338 -60 -108 -81 -195 -81
-332 0 -205 56 -338 204 -485 145 -144 309 -208 511 -197 370 19 650 313 650
682 0 270 -148 503 -395 621 -127 61 -299 80 -443 49z"/>
<path d="M3457 3325 c-99 -25 -167 -64 -237 -134 -64 -65 -69 -75 -334 -618
l-270 -551 -40 -6 c-67 -9 -1054 -116 -1152 -125 -142 -12 -214 -65 -244 -180
-29 -110 39 -233 150 -270 26 -9 192 -10 665 -6 730 8 811 12 881 48 64 33 87
58 314 347 105 135 195 246 200 248 13 5 84 -100 133 -196 125 -243 174 -515
144 -804 l-8 -78 669 0 669 0 6 38 c15 90 19 366 8 505 -50 622 -257 1112
-618 1458 -157 150 -335 258 -513 309 -98 29 -335 37 -423 15z"/>
<path d="M163 2770 c-35 -21 -63 -66 -63 -102 0 -45 342 -1564 359 -1593 9
-16 32 -38 51 -47 32 -17 92 -18 814 -18 756 0 781 1 821 20 47 23 75 64 75
110 0 47 -53 96 -111 104 -24 3 -359 24 -743 46 -385 22 -701 42 -704 45 -3 2
-73 312 -157 687 -83 376 -157 693 -164 706 -31 57 -119 78 -178 42z"/>
</g>
</svg>
