<?xml version="1.0" encoding="utf-8"?>
<!-- Generator: Adobe Illustrator 17.0.0, SVG Export Plug-In . SVG Version: 6.00 Build 0)  -->
<!DOCTYPE svg PUBLIC "-//W3C//DTD SVG 1.1//EN" "http://www.w3.org/Graphics/SVG/1.1/DTD/svg11.dtd">
<svg version="1.1" id="Layer_1" xmlns="http://www.w3.org/2000/svg" xmlns:xlink="http://www.w3.org/1999/xlink" x="0px" y="0px"
	 width="180.709px" height="180.709px" viewBox="0 0 180.709 180.709" enable-background="new 0 0 180.709 180.709"
	 xml:space="preserve">
<g>
	<path d="M117.728,59.273H62.981c-3.634,0-6.591,2.957-6.591,6.591v3.078v0.71v34.303v0.71v3.078c0,3.634,2.957,6.591,6.591,6.591
		h54.747c3.634,0,6.591-2.957,6.591-6.591v-3.078v-0.71V69.652v-0.71v-3.078C124.318,62.229,121.361,59.273,117.728,59.273z
		 M73.124,70.453c1.394,0.685,2.827,1.406,4.287,2.156c2.126-1.201,4.239-2.396,6.339-3.59l0.016-0.01
		c0.257-0.002,0.513-0.001,0.77-0.003c0.135,0.106,0.338,0.198,0.481,0.289c1.713,0.984,3.467,1.985,5.24,2.993
		c0.014,0.003,0.049-0.006,0.098-0.026c0.049,0.02,0.083,0.029,0.097,0.026c1.773-1.008,3.527-2.009,5.24-2.993
		c0.143-0.091,0.346-0.183,0.481-0.289c0.257,0.002,0.513,0.001,0.77,0.003l0.016,0.01c2.1,1.195,4.213,2.39,6.339,3.59
		c1.46-0.75,2.893-1.47,4.287-2.156c0.213-0.094,1.306-0.539,1.306-0.714c-0.046-0.185-0.093-0.37-0.141-0.556
		c0.142,0.003,0.285,0.005,0.427,0.009c0.064,0.239,0.127,0.478,0.188,0.717c1.013,0.732,5.666,3.52,7.053,4.533
		c0.3,2.132,0.493,4.252,0.6,6.372l0.503,0.305v0.436c-0.417-0.241-0.705-0.398-0.757-0.401c-0.3-0.035-5.373,2.337-6.307,2.641
		c0,1.003-0.003,2.008-0.013,3.012c0.01,1.005,0.013,2.009,0.013,3.012c0.933,0.305,6.007,2.676,6.307,2.641
		c0.052-0.004,0.339-0.16,0.757-0.401v0.436l-0.503,0.305c-0.107,2.12-0.3,4.24-0.6,6.372c-1.387,1.013-6.04,3.801-7.053,4.533
		c-0.06,0.236-0.122,0.473-0.186,0.71c-0.142,0.003-0.285,0.005-0.427,0.009c0.048-0.183,0.094-0.366,0.14-0.549
		c0-0.175-1.093-0.62-1.306-0.714c-1.394-0.685-2.827-1.406-4.287-2.155c-2.126,1.201-4.24,2.395-6.339,3.59l-0.005,0.003
		c-0.264,0.002-0.527,0.001-0.792,0.003c-0.135-0.103-0.331-0.193-0.47-0.282c-1.713-0.984-3.467-1.985-5.24-2.993
		c-0.014-0.003-0.048,0.006-0.097,0.026c-0.049-0.02-0.083-0.029-0.098-0.026c-1.773,1.007-3.527,2.009-5.24,2.993
		c-0.14,0.089-0.335,0.179-0.47,0.282c-0.264-0.002-0.527-0.001-0.791-0.003l-0.005-0.003c-2.1-1.195-4.213-2.39-6.339-3.59
		c-1.46,0.749-2.893,1.47-4.287,2.155c-0.213,0.094-1.306,0.539-1.306,0.714c0.045,0.183,0.092,0.366,0.14,0.549
		c-0.142-0.003-0.285-0.005-0.427-0.009c-0.064-0.237-0.126-0.473-0.186-0.71c-1.013-0.732-5.666-3.52-7.053-4.533
		c-0.3-2.132-0.493-4.252-0.6-6.372l-0.503-0.305v-0.436c0.417,0.241,0.704,0.398,0.756,0.401c0.3,0.035,5.373-2.337,6.306-2.641
		c0-1.003,0.003-2.008,0.013-3.012c-0.01-1.004-0.013-2.009-0.013-3.012c-0.933-0.305-6.007-2.677-6.306-2.641
		c-0.052,0.004-0.339,0.16-0.756,0.401v-0.436l0.503-0.305c0.107-2.12,0.3-4.24,0.6-6.372c1.387-1.013,6.04-3.801,7.053-4.533
		c0.06-0.239,0.123-0.478,0.188-0.717c0.142-0.003,0.285-0.005,0.427-0.009c-0.048,0.185-0.095,0.371-0.141,0.556
		C71.818,69.914,72.911,70.359,73.124,70.453z M123.609,69.625v34.355c-1.792,0.07-3.586,0.134-5.38,0.192v-34.74l3.935,0.14
		C122.646,69.592,123.128,69.607,123.609,69.625z M62.479,69.434v34.74c-1.794-0.059-3.588-0.122-5.38-0.193V69.625
		c0.432-0.017,0.864-0.03,1.296-0.046L62.479,69.434z M117.887,104.895c1.909-0.062,3.816-0.129,5.723-0.204v3.052
		c0,3.243-2.639,5.882-5.882,5.882H62.981c-3.243,0-5.882-2.639-5.882-5.882v-3.052c1.907,0.075,3.814,0.143,5.724,0.204
		c0.017,0.001,0.033,0.001,0.05,0.001l0.316,0.011v-0.002c8.941,0.283,18.046,0.428,27.074,0.428h0.185
		c9.026,0,18.132-0.145,27.074-0.428v0.002l0.314-0.011C117.852,104.896,117.869,104.896,117.887,104.895z M123.609,68.915
		c-1.779-0.069-3.56-0.131-5.342-0.189l-0.747-0.027v0.003c-8.936-0.284-18.027-0.429-27.029-0.429h-0.274
		c-9.003,0-18.093,0.145-27.029,0.429v-0.003l-0.805,0.029c-1.762,0.057-3.524,0.119-5.284,0.187v-3.051
		c0-3.243,2.639-5.882,5.882-5.882h54.747c3.243,0,5.882,2.639,5.882,5.882V68.915z"/>
	<path d="M77.137,93.327c0.274,0,5.46-2.947,6.327-3.292c0.009-1.078,0.016-2.153,0.025-3.229c-0.009-1.075-0.015-2.151-0.025-3.229
		c-0.867-0.345-6.053-3.292-6.327-3.292c-0.306-0.012-5.666,3.239-6.379,3.503c0,1.008,0.003,2.013,0.011,3.018
		c-0.009,1.005-0.011,2.01-0.011,3.018C71.471,90.088,76.831,93.339,77.137,93.327z"/>
	<path d="M103.825,93.731c-0.087,2.003-0.14,4.644-0.273,6.718c-0.007,0.164,0.14,0.193,0.273,0.258
		c0.133,0.065,0.266,0.129,0.387,0.193c0.733,0.387,1.466,0.755,2.186,1.113c0.32,0.152,2.694,1.329,2.793,1.324
		c0.187,0,2.987-1.816,3.42-2.079c0.646-0.433,2.966-1.886,3.373-2.231c0.273-2.032,0.44-4.071,0.534-6.097
		c-0.12-0.064-0.24-0.129-0.367-0.193c-1.007-0.357-5.8-2.524-5.94-2.53C109.964,90.211,104.685,93.345,103.825,93.731z"/>
	<path d="M96.985,90.44c-0.147,0.006-2.773,1.511-3.14,1.722c-1.06,0.585-2.12,1.183-3.173,1.774
		c0.013,2.302,0.013,4.615-0.013,6.923c0.247,0.222,5.9,3.391,5.953,3.385c0.16-0.005,5.786-3.279,6.453-3.655
		c0.153-1.956,0.293-4.96,0.26-6.811C102.858,93.45,97.005,90.44,96.985,90.44z"/>
	<path d="M110.211,83.408c0.14-0.006,4.933-2.173,5.94-2.53c0.127-0.065,0.247-0.129,0.367-0.193
		c-0.093-2.026-0.26-4.065-0.534-6.097c-0.407-0.346-2.727-1.798-3.373-2.231c-0.433-0.263-3.233-2.079-3.42-2.079
		c-0.1-0.006-2.473,1.172-2.793,1.324c-0.72,0.357-1.453,0.726-2.186,1.113c-0.12,0.064-0.254,0.129-0.387,0.193
		c-0.133,0.064-0.28,0.094-0.273,0.258c0.133,2.073,0.186,4.715,0.273,6.717C104.685,80.269,109.964,83.403,110.211,83.408z"/>
	<path d="M86.864,92.162c-0.367-0.211-2.993-1.716-3.14-1.722c-0.02,0-5.873,3.011-6.34,3.338c-0.033,1.851,0.107,4.855,0.26,6.811
		c0.667,0.375,6.293,3.649,6.453,3.655c0.053,0.006,5.706-3.162,5.953-3.385c-0.027-2.308-0.027-4.621-0.013-6.923
		C88.984,93.345,87.924,92.747,86.864,92.162z"/>
	<path d="M103.571,80.286c-0.274,0-5.46,2.947-6.327,3.292c-0.009,1.077-0.016,2.153-0.025,3.229
		c0.009,1.076,0.015,2.151,0.025,3.229c0.867,0.345,6.053,3.292,6.327,3.292c0.307,0.012,5.666-3.239,6.379-3.502
		c0-1.008-0.003-2.013-0.011-3.018c0.008-1.005,0.011-2.01,0.011-3.018C109.238,83.525,103.878,80.275,103.571,80.286z"/>
	<path d="M93.845,81.452c0.367,0.211,2.993,1.716,3.14,1.722c0.02,0,5.873-3.011,6.34-3.338c0.033-1.851-0.107-4.855-0.26-6.811
		c-0.667-0.375-6.293-3.649-6.453-3.654c-0.054-0.006-5.706,3.162-5.953,3.385c0.027,2.308,0.027,4.621,0.013,6.922
		C91.725,80.269,92.785,80.866,93.845,81.452z"/>
	<path d="M68.098,72.357c-0.646,0.433-2.966,1.886-3.373,2.231c-0.273,2.032-0.44,4.07-0.534,6.097
		c0.12,0.064,0.24,0.129,0.367,0.193c1.007,0.357,5.8,2.524,5.94,2.53c0.247-0.006,5.526-3.139,6.386-3.526
		c0.087-2.003,0.14-4.644,0.273-6.717c0.007-0.164-0.14-0.193-0.273-0.258c-0.133-0.065-0.266-0.129-0.387-0.193
		c-0.733-0.387-1.466-0.755-2.186-1.113c-0.32-0.152-2.693-1.329-2.793-1.324C71.331,70.277,68.531,72.093,68.098,72.357z"/>
	<path d="M70.498,90.205c-0.139,0.006-4.933,2.173-5.94,2.53c-0.126,0.065-0.247,0.129-0.367,0.193
		c0.093,2.026,0.26,4.065,0.534,6.097c0.407,0.346,2.727,1.798,3.373,2.231c0.433,0.263,3.233,2.079,3.42,2.079
		c0.1,0.006,2.473-1.172,2.793-1.324c0.72-0.357,1.453-0.726,2.186-1.113c0.12-0.064,0.254-0.129,0.387-0.193
		c0.133-0.064,0.28-0.094,0.273-0.258c-0.133-2.073-0.187-4.715-0.273-6.718C76.024,93.345,70.745,90.211,70.498,90.205z"/>
	<path d="M83.724,83.174c0.147-0.006,2.773-1.511,3.14-1.722c1.06-0.585,2.12-1.183,3.173-1.775
		c-0.013-2.301-0.013-4.615,0.013-6.922c-0.247-0.222-5.9-3.391-5.953-3.385c-0.16,0.005-5.786,3.279-6.453,3.654
		c-0.153,1.956-0.293,4.96-0.26,6.811C77.851,80.163,83.704,83.174,83.724,83.174z"/>
	<path d="M84,86.807c-0.008,1.078-0.014,2.157-0.023,3.235c0.84,0.346,6.093,3.479,6.346,3.45l0.031-0.017l0.031,0.017
		c0.253,0.029,5.506-3.104,6.346-3.45c-0.009-1.077-0.016-2.156-0.023-3.235c0.008-1.078,0.014-2.157,0.023-3.234
		c-0.84-0.346-6.093-3.479-6.346-3.45l-0.031,0.017l-0.031-0.017c-0.253-0.029-5.506,3.105-6.346,3.45
		C83.986,84.65,83.993,85.729,84,86.807z"/>
	<path d="M163.672,0H17.036C12.351,0,8.091,1.916,5.004,5.004C1.917,8.091,0,12.351,0,17.037v146.635
		c0,9.37,7.666,17.037,17.036,17.037h146.636c4.686,0,8.946-1.916,12.033-5.004c3.087-3.087,5.004-7.347,5.004-12.033V17.037
		C180.709,7.666,173.042,0,163.672,0z M178.583,163.672c0,4.099-1.678,7.827-4.381,10.53c-2.703,2.703-6.43,4.381-10.53,4.381
		H17.036c-8.201,0-14.911-6.71-14.911-14.911V17.037c0-4.099,1.678-7.827,4.381-10.53c2.703-2.703,6.43-4.381,10.53-4.381h146.636
		c8.201,0,14.911,6.71,14.911,14.911V163.672z"/>
	<path d="M152.23,22.577H28.479c-1.779,0-3.397,0.728-4.569,1.9c-1.172,1.172-1.9,2.79-1.9,4.569v123.751
		c0,1.779,0.728,3.397,1.9,4.569c1.172,1.172,2.79,1.9,4.569,1.9H152.23c1.779,0,3.397-0.728,4.569-1.9
		c1.172-1.172,1.9-2.79,1.9-4.569V29.045c0-1.779-0.728-3.397-1.9-4.569C155.627,23.304,154.009,22.577,152.23,22.577z
		 M157.707,152.797c0,1.506-0.616,2.875-1.609,3.868c-0.993,0.993-2.362,1.609-3.868,1.609H28.479c-1.506,0-2.875-0.616-3.868-1.609
		c-0.993-0.993-1.609-2.362-1.609-3.868V29.045c0-1.506,0.616-2.875,1.609-3.868c0.993-0.993,2.362-1.609,3.868-1.609H152.23
		c1.506,0,2.875,0.616,3.868,1.609c0.993,0.993,1.609,2.362,1.609,3.868V152.797z"/>
</g>
<path fill-rule="evenodd" clip-rule="evenodd" fill="#0078CC" d="M77.644,73.024c-0.153,1.956-0.293,4.96-0.26,6.811
	c0.467,0.328,6.32,3.338,6.34,3.338c0.147-0.006,2.773-1.511,3.14-1.722c1.06-0.585,2.12-1.183,3.173-1.774
	c-0.013-2.301-0.013-4.615,0.013-6.923c-0.247-0.222-5.9-3.391-5.953-3.385C83.937,69.375,78.311,72.649,77.644,73.024
	 M64.725,74.588c-0.273,2.032-0.44,4.071-0.534,6.097c0.12,0.064,0.24,0.129,0.367,0.193c1.007,0.357,5.8,2.524,5.94,2.53
	c0.247-0.006,5.527-3.139,6.387-3.526c0.087-2.003,0.14-4.644,0.273-6.717c0.007-0.164-0.14-0.193-0.273-0.258
	c-0.133-0.065-0.266-0.129-0.387-0.193c-0.733-0.387-1.466-0.755-2.186-1.113c-0.32-0.152-2.693-1.329-2.793-1.324
	c-0.187,0-2.987,1.816-3.42,2.079C67.451,72.79,65.132,74.242,64.725,74.588z M77.644,100.589c-0.153-1.956-0.293-4.96-0.26-6.811
	c0.467-0.328,6.32-3.338,6.34-3.338c0.147,0.006,2.773,1.511,3.14,1.722c1.06,0.585,2.12,1.183,3.173,1.774
	c-0.013,2.301-0.013,4.615,0.013,6.923c-0.247,0.222-5.9,3.391-5.953,3.385C83.937,104.238,78.311,100.964,77.644,100.589z
	 M64.725,99.026c-0.273-2.033-0.44-4.071-0.534-6.097c0.12-0.064,0.24-0.129,0.367-0.193c1.007-0.357,5.8-2.524,5.94-2.53
	c0.247,0.006,5.527,3.139,6.387,3.526c0.087,2.003,0.14,4.644,0.273,6.717c0.007,0.164-0.14,0.193-0.273,0.258
	c-0.133,0.065-0.266,0.129-0.387,0.193c-0.733,0.387-1.466,0.755-2.186,1.113c-0.32,0.152-2.693,1.329-2.793,1.324
	c-0.187,0-2.987-1.816-3.42-2.079C67.451,100.824,65.132,99.371,64.725,99.026z M70.769,86.807c-0.008-1.005-0.011-2.01-0.011-3.018
	c0.713-0.263,6.073-3.514,6.379-3.503c0.274,0,5.46,2.947,6.327,3.292c0.009,1.077,0.016,2.153,0.025,3.229
	c-0.009,1.076-0.015,2.151-0.025,3.229c-0.867,0.345-6.053,3.292-6.327,3.292c-0.306,0.012-5.666-3.239-6.379-3.502
	C70.758,88.817,70.761,87.812,70.769,86.807z M103.065,73.024c0.153,1.956,0.293,4.96,0.26,6.811
	c-0.467,0.328-6.32,3.338-6.34,3.338c-0.147-0.006-2.773-1.511-3.14-1.722c-1.06-0.585-2.12-1.183-3.173-1.774
	c0.013-2.301,0.013-4.615-0.013-6.923c0.247-0.222,5.9-3.391,5.953-3.385C96.771,69.375,102.398,72.649,103.065,73.024z
	 M115.984,74.588c0.273,2.032,0.44,4.071,0.534,6.097c-0.12,0.064-0.24,0.129-0.367,0.193c-1.007,0.357-5.8,2.524-5.94,2.53
	c-0.247-0.006-5.526-3.139-6.386-3.526c-0.087-2.003-0.14-4.644-0.273-6.717c-0.007-0.164,0.14-0.193,0.273-0.258
	c0.133-0.065,0.266-0.129,0.387-0.193c0.733-0.387,1.466-0.755,2.186-1.113c0.32-0.152,2.693-1.329,2.793-1.324
	c0.187,0,2.987,1.816,3.42,2.079C113.257,72.79,115.577,74.242,115.984,74.588z M103.065,100.589c0.153-1.956,0.293-4.96,0.26-6.811
	c-0.467-0.328-6.32-3.338-6.34-3.338c-0.147,0.006-2.773,1.511-3.14,1.722c-1.06,0.585-2.12,1.183-3.173,1.774
	c0.013,2.301,0.013,4.615-0.013,6.923c0.247,0.222,5.9,3.391,5.953,3.385C96.771,104.238,102.398,100.964,103.065,100.589z
	 M115.984,99.026c0.273-2.033,0.44-4.071,0.534-6.097c-0.12-0.064-0.24-0.129-0.367-0.193c-1.007-0.357-5.8-2.524-5.94-2.53
	c-0.247,0.006-5.526,3.139-6.386,3.526c-0.087,2.003-0.14,4.644-0.273,6.717c-0.007,0.164,0.14,0.193,0.273,0.258
	c0.133,0.065,0.266,0.129,0.387,0.193c0.733,0.387,1.466,0.755,2.186,1.113c0.32,0.152,2.693,1.329,2.793,1.324
	c0.187,0,2.987-1.816,3.42-2.079C113.257,100.824,115.577,99.371,115.984,99.026z M97.22,86.807
	c0.009-1.075,0.015-2.151,0.025-3.229c0.867-0.345,6.053-3.292,6.327-3.292c0.307-0.012,5.666,3.239,6.379,3.503
	c0,1.008-0.003,2.013-0.011,3.018c0.008,1.005,0.011,2.01,0.011,3.018c-0.713,0.263-6.073,3.514-6.379,3.502
	c-0.274,0-5.46-2.947-6.327-3.292C97.235,88.958,97.229,87.882,97.22,86.807z M90.354,93.474l-0.031,0.017
	c-0.253,0.029-5.506-3.104-6.346-3.45c0.009-1.077,0.016-2.156,0.023-3.235c-0.008-1.078-0.014-2.157-0.023-3.234
	c0.84-0.346,6.093-3.479,6.346-3.45l0.031,0.017l0.031-0.017c0.253-0.029,5.506,3.105,6.346,3.45
	c-0.009,1.077-0.016,2.156-0.023,3.234c0.008,1.078,0.014,2.157,0.023,3.235c-0.84,0.346-6.093,3.479-6.346,3.45L90.354,93.474z
	 M71.536,69.174c-2.82,0.062-5.637,0.137-8.453,0.227v11.781l0.607-0.368c0.107-2.12,0.3-4.24,0.6-6.372
	c1.387-1.013,6.04-3.801,7.053-4.533C71.406,69.664,71.47,69.419,71.536,69.174z M83.786,68.995
	c-3.946,0.03-7.887,0.086-11.822,0.17c-0.05,0.192-0.099,0.383-0.146,0.574c0,0.175,1.093,0.62,1.306,0.714
	c1.394,0.685,2.827,1.406,4.287,2.155c2.126-1.2,4.239-2.396,6.339-3.59L83.786,68.995z M96.197,68.989
	c-1.946-0.013-3.894-0.019-5.842-0.019c-1.949,0-3.896,0.006-5.842,0.019c0.134,0.113,0.355,0.208,0.505,0.304
	c1.713,0.984,3.467,1.985,5.24,2.993c0.014,0.003,0.049-0.006,0.098-0.026c0.049,0.02,0.083,0.029,0.098,0.026
	c1.773-1.007,3.527-2.009,5.24-2.993C95.842,69.198,96.063,69.102,96.197,68.989z M108.745,69.165
	c-3.936-0.084-7.877-0.14-11.822-0.17l0.036,0.024c2.1,1.195,4.213,2.39,6.339,3.59c1.46-0.749,2.893-1.47,4.287-2.155
	c0.213-0.094,1.306-0.539,1.306-0.714C108.844,69.547,108.795,69.356,108.745,69.165z M117.625,81.182V69.401
	c-2.815-0.09-5.633-0.166-8.453-0.227c0.066,0.245,0.13,0.49,0.192,0.734c1.013,0.732,5.666,3.52,7.053,4.533
	c0.3,2.132,0.493,4.252,0.6,6.372L117.625,81.182z M117.625,91.999v-2.524v-5.336v-2.524c-0.478-0.278-0.805-0.457-0.861-0.461
	c-0.3-0.035-5.373,2.337-6.307,2.641c0,1.003-0.003,2.007-0.013,3.012c0.01,1.005,0.013,2.009,0.013,3.012
	c0.933,0.305,6.007,2.676,6.307,2.641C116.82,92.456,117.147,92.277,117.625,91.999z M109.172,104.44
	c2.82-0.062,5.638-0.137,8.453-0.227V92.432l-0.607,0.368c-0.107,2.12-0.3,4.24-0.6,6.372c-1.387,1.013-6.04,3.801-7.053,4.533
	C109.302,103.95,109.238,104.195,109.172,104.44z M96.923,104.619c3.945-0.03,7.886-0.086,11.822-0.17
	c0.05-0.192,0.099-0.383,0.146-0.574c0-0.175-1.093-0.62-1.306-0.714c-1.394-0.685-2.827-1.406-4.287-2.155
	c-2.126,1.201-4.24,2.396-6.339,3.59L96.923,104.619z M84.512,104.624c1.946,0.013,3.894,0.019,5.842,0.019
	c1.949,0,3.896-0.006,5.842-0.019c-0.134-0.113-0.355-0.208-0.505-0.304c-1.713-0.984-3.467-1.985-5.24-2.993
	c-0.014-0.003-0.048,0.006-0.098,0.026c-0.049-0.02-0.083-0.029-0.098-0.026c-1.773,1.007-3.527,2.009-5.24,2.993
	C84.867,104.416,84.646,104.512,84.512,104.624z M71.964,104.449c3.936,0.084,7.877,0.14,11.822,0.17l-0.036-0.024
	c-2.1-1.195-4.213-2.39-6.339-3.59c-1.46,0.749-2.893,1.47-4.287,2.155c-0.213,0.094-1.306,0.539-1.306,0.714
	C71.865,104.066,71.913,104.257,71.964,104.449z M63.084,92.432v11.781c2.815,0.09,5.632,0.165,8.453,0.227
	c-0.066-0.245-0.13-0.49-0.192-0.734c-1.013-0.732-5.666-3.52-7.053-4.533c-0.3-2.132-0.493-4.252-0.6-6.372L63.084,92.432z
	 M63.084,89.475v2.524c0.478,0.278,0.805,0.457,0.861,0.461c0.3,0.035,5.373-2.337,6.306-2.641c0-1.003,0.003-2.007,0.013-3.012
	c-0.01-1.004-0.013-2.009-0.013-3.012c-0.933-0.305-6.007-2.676-6.306-2.641c-0.056,0.004-0.383,0.183-0.861,0.461v2.524V89.475z"/>
</svg>
