<?xml version="1.0" encoding="utf-8"?>
<!-- Generator: Adobe Illustrator 17.0.0, SVG Export Plug-In . SVG Version: 6.00 Build 0)  -->
<!DOCTYPE svg PUBLIC "-//W3C//DTD SVG 1.1//EN" "http://www.w3.org/Graphics/SVG/1.1/DTD/svg11.dtd">
<svg version="1.1" id="Layer_1" xmlns="http://www.w3.org/2000/svg" xmlns:xlink="http://www.w3.org/1999/xlink" x="0px" y="0px"
	 width="593.087px" height="978.958px" viewBox="0 0 593.087 978.958" enable-background="new 0 0 593.087 978.958"
	 xml:space="preserve">
<g>
	<path d="M571.002,8.966c-34.179-2.165-68.719-3.961-102.66-5.34l-0.071-0.003l-1.205,0.006c-1.345,0.069-2.544,0.28-3.606,0.636
		c-15.854,0.117-27.635,0.832-36.432,2.216V2.138l-3.435-0.105c-2.211-0.068-4.421-0.133-6.63-0.198
		C375.051,0.617,332.855,0,291.55,0c-41.307,0-82.805,0.618-123.4,1.837l-3.685,0.123v4.708c-9.168-1.486-21.203-2.314-35.881-2.47
		c-1.128-0.413-2.403-0.66-3.836-0.732l-1.339-0.006l-0.836,0.004C89.004,4.864,55.305,6.71,22.409,8.951l-1.342,0.094
		C9.253,10.221,0,20.443,0,32.315V939.63c0,12.004,9.366,22.236,21.324,23.295c0.684,0.061,1.378,0.091,2.063,0.091h0.208
		c44.062,5.344,89.304,9.394,134.479,12.04l0.086-0.955c2.073,0.233,4.183,0.417,6.306,0.571v0.752l3.352,0.182
		c41.013,2.225,82.983,3.353,124.745,3.353c0.005,0,0.01,0,0.016,0c43.189,0,87.298-1.207,131.1-3.588l3.351-0.182v-0.744
		c1.973-0.138,3.934-0.302,5.867-0.505l0.077,0.907c45.718-2.657,92.308-6.66,138.471-11.896
		c12.182-0.901,21.645-11.042,21.645-23.321V32.315C593.087,19.892,583.395,9.653,571.002,8.966z M24.234,955.955l-0.848-0.025
		c-0.478,0-0.963-0.021-1.439-0.063c-8.333-0.738-14.86-7.87-14.86-16.236V32.315c0-8.257,6.422-15.369,14.631-16.214l1.732-0.085
		l0-0.033c32.633-2.218,66.054-4.047,99.349-5.436l0.611,0l1.065,0.001c2.192,0.12,2.705,0.567,3.193,2.711
		c0.357,1.568,0.523,3.812,0.523,7.06v930.25c0,3.966,0.736,7.484,2.188,10.457c1.028,2.107,2.383,3.892,3.978,5.408
		C97.312,963.855,60.373,960.341,24.234,955.955z M419.941,968.473c-42.577,2.255-85.414,3.397-127.379,3.397
		c-40.499,0-81.19-1.063-121.01-3.163V8.825c39.47-1.154,79.824-1.739,119.998-1.739c41.237,0,83.363,0.616,125.208,1.832
		c1.061,0.031,2.122,0.062,3.184,0.093V968.473z M586.001,939.63c0,8.606-6.67,15.705-15.228,16.264l-0.201,0.012
		c-0.012,0.001-0.023,0.002-0.035,0.002l0.001,0.015c-0.006,0-0.01,0.001-0.016,0.001l-0.001-0.014l-0.415,0.016l0.002,0.046
		c-0.003,0-0.006,0-0.009,0l-0.001-0.046l-0.397,0.005v0.087c-37.319,4.219-74.909,7.628-112.086,10.17
		c1.355-1.271,2.537-2.73,3.493-4.409c0.128-0.225,0.253-0.455,0.372-0.688c1.576-3.056,2.375-6.7,2.375-10.83V20.01
		c0-3.122,0.154-5.275,0.483-6.776c0.451-2.055,0.852-2.405,3.004-2.524l0.784,0c33.58,1.365,67.753,3.139,101.574,5.275v0.032
		c0.137,0,0.275,0.001,0.412,0.005V16.01c0.005,0,0.009,0,0.013,0.001l0.392,0.026v-0.001c0.011,0.001,0.018,0.001,0.028,0.002v0
		c8.666,0.447,15.455,7.597,15.455,16.277V939.63z"/>
	<path d="M345.775,204.234c0-27.915-22.711-50.626-50.626-50.626s-50.626,22.711-50.626,50.626v323
		c0,27.915,22.711,50.626,50.626,50.626s50.626-22.711,50.626-50.626V204.234z M341.523,527.234
		c0,25.57-20.804,46.374-46.374,46.374c-25.571,0-46.374-20.804-46.374-46.374v-323c0-25.571,20.803-46.374,46.374-46.374
		c25.57,0,46.374,20.803,46.374,46.374V527.234z"/>
	<path d="M221.642,609.635c-4.319,0-7.833,3.514-7.833,7.833s3.514,7.834,7.833,7.834c4.319,0,7.833-3.515,7.833-7.834
		S225.96,609.635,221.642,609.635z"/>
	<path d="M221.642,639.398c-4.319,0-7.833,3.515-7.833,7.834s3.514,7.833,7.833,7.833c4.319,0,7.833-3.514,7.833-7.833
		S225.96,639.398,221.642,639.398z"/>
	<path d="M221.642,669.162c-4.319,0-7.833,3.515-7.833,7.834s3.514,7.833,7.833,7.833c4.319,0,7.833-3.514,7.833-7.833
		S225.96,669.162,221.642,669.162z"/>
	<path d="M221.642,698.927c-4.319,0-7.833,3.514-7.833,7.833s3.514,7.833,7.833,7.833c4.319,0,7.833-3.514,7.833-7.833
		S225.96,698.927,221.642,698.927z"/>
	<path d="M221.642,728.69c-4.319,0-7.833,3.514-7.833,7.833s3.514,7.833,7.833,7.833c4.319,0,7.833-3.514,7.833-7.833
		S225.96,728.69,221.642,728.69z"/>
	<path d="M221.642,758.454c-4.319,0-7.833,3.514-7.833,7.833s3.514,7.833,7.833,7.833c4.319,0,7.833-3.514,7.833-7.833
		S225.96,758.454,221.642,758.454z"/>
	<path d="M221.642,788.218c-4.319,0-7.833,3.514-7.833,7.833s3.514,7.833,7.833,7.833c4.319,0,7.833-3.514,7.833-7.833
		S225.96,788.218,221.642,788.218z"/>
	<path d="M221.642,817.981c-4.319,0-7.833,3.514-7.833,7.833s3.514,7.834,7.833,7.834c4.319,0,7.833-3.515,7.833-7.834
		S225.96,817.981,221.642,817.981z"/>
	<path d="M221.642,847.745c-4.319,0-7.833,3.514-7.833,7.833s3.514,7.834,7.833,7.834c4.319,0,7.833-3.515,7.833-7.834
		S225.96,847.745,221.642,847.745z"/>
	<path d="M221.642,877.509c-4.319,0-7.833,3.515-7.833,7.834s3.514,7.833,7.833,7.833c4.319,0,7.833-3.514,7.833-7.833
		S225.96,877.509,221.642,877.509z"/>
	<path d="M251.405,609.635c-4.319,0-7.833,3.514-7.833,7.833s3.514,7.834,7.833,7.834c4.319,0,7.833-3.515,7.833-7.834
		S255.725,609.635,251.405,609.635z"/>
	<path d="M251.405,639.398c-4.319,0-7.833,3.515-7.833,7.834s3.514,7.833,7.833,7.833c4.319,0,7.833-3.514,7.833-7.833
		S255.725,639.398,251.405,639.398z"/>
	<path d="M251.405,669.162c-4.319,0-7.833,3.515-7.833,7.834s3.514,7.833,7.833,7.833c4.319,0,7.833-3.514,7.833-7.833
		S255.725,669.162,251.405,669.162z"/>
	<path d="M251.405,698.927c-4.319,0-7.833,3.514-7.833,7.833s3.514,7.833,7.833,7.833c4.319,0,7.833-3.514,7.833-7.833
		S255.725,698.927,251.405,698.927z"/>
	<path d="M251.405,728.69c-4.319,0-7.833,3.514-7.833,7.833s3.514,7.833,7.833,7.833c4.319,0,7.833-3.514,7.833-7.833
		S255.725,728.69,251.405,728.69z"/>
	<path d="M251.405,758.454c-4.319,0-7.833,3.514-7.833,7.833s3.514,7.833,7.833,7.833c4.319,0,7.833-3.514,7.833-7.833
		S255.725,758.454,251.405,758.454z"/>
	<path d="M251.405,788.218c-4.319,0-7.833,3.514-7.833,7.833s3.514,7.833,7.833,7.833c4.319,0,7.833-3.514,7.833-7.833
		S255.725,788.218,251.405,788.218z"/>
	<path d="M251.405,817.981c-4.319,0-7.833,3.514-7.833,7.833s3.514,7.834,7.833,7.834c4.319,0,7.833-3.515,7.833-7.834
		S255.725,817.981,251.405,817.981z"/>
	<path d="M251.405,847.745c-4.319,0-7.833,3.514-7.833,7.833s3.514,7.834,7.833,7.834c4.319,0,7.833-3.515,7.833-7.834
		S255.725,847.745,251.405,847.745z"/>
	<path d="M251.405,877.509c-4.319,0-7.833,3.515-7.833,7.834s3.514,7.833,7.833,7.833c4.319,0,7.833-3.514,7.833-7.833
		S255.725,877.509,251.405,877.509z"/>
	<path d="M281.169,609.635c-4.319,0-7.833,3.514-7.833,7.833s3.514,7.834,7.833,7.834c4.319,0,7.833-3.515,7.833-7.834
		S285.488,609.635,281.169,609.635z"/>
	<path d="M281.169,639.398c-4.319,0-7.833,3.515-7.833,7.834s3.514,7.833,7.833,7.833c4.319,0,7.833-3.514,7.833-7.833
		S285.488,639.398,281.169,639.398z"/>
	<path d="M281.169,669.162c-4.319,0-7.833,3.515-7.833,7.834s3.514,7.833,7.833,7.833c4.319,0,7.833-3.514,7.833-7.833
		S285.488,669.162,281.169,669.162z"/>
	<path d="M281.169,698.927c-4.319,0-7.833,3.514-7.833,7.833s3.514,7.833,7.833,7.833c4.319,0,7.833-3.514,7.833-7.833
		S285.488,698.927,281.169,698.927z"/>
	<path d="M281.169,728.69c-4.319,0-7.833,3.514-7.833,7.833s3.514,7.833,7.833,7.833c4.319,0,7.833-3.514,7.833-7.833
		S285.488,728.69,281.169,728.69z"/>
	<path d="M281.169,758.454c-4.319,0-7.833,3.514-7.833,7.833s3.514,7.833,7.833,7.833c4.319,0,7.833-3.514,7.833-7.833
		S285.488,758.454,281.169,758.454z"/>
	<path d="M281.169,788.218c-4.319,0-7.833,3.514-7.833,7.833s3.514,7.833,7.833,7.833c4.319,0,7.833-3.514,7.833-7.833
		S285.488,788.218,281.169,788.218z"/>
	<path d="M281.169,817.981c-4.319,0-7.833,3.514-7.833,7.833s3.514,7.834,7.833,7.834c4.319,0,7.833-3.515,7.833-7.834
		S285.488,817.981,281.169,817.981z"/>
	<path d="M281.169,847.745c-4.319,0-7.833,3.514-7.833,7.833s3.514,7.834,7.833,7.834c4.319,0,7.833-3.515,7.833-7.834
		S285.488,847.745,281.169,847.745z"/>
	<path d="M281.169,877.509c-4.319,0-7.833,3.515-7.833,7.834s3.514,7.833,7.833,7.833c4.319,0,7.833-3.514,7.833-7.833
		S285.488,877.509,281.169,877.509z"/>
	<path d="M310.933,609.635c-4.319,0-7.833,3.514-7.833,7.833s3.514,7.834,7.833,7.834s7.834-3.515,7.834-7.834
		S315.252,609.635,310.933,609.635z"/>
	<path d="M310.933,639.398c-4.319,0-7.833,3.515-7.833,7.834s3.514,7.833,7.833,7.833s7.834-3.514,7.834-7.833
		S315.252,639.398,310.933,639.398z"/>
	<path d="M310.933,669.162c-4.319,0-7.833,3.515-7.833,7.834s3.514,7.833,7.833,7.833s7.834-3.514,7.834-7.833
		S315.252,669.162,310.933,669.162z"/>
	<path d="M310.933,698.927c-4.319,0-7.833,3.514-7.833,7.833s3.514,7.833,7.833,7.833s7.834-3.514,7.834-7.833
		S315.252,698.927,310.933,698.927z"/>
	<path d="M310.933,728.69c-4.319,0-7.833,3.514-7.833,7.833s3.514,7.833,7.833,7.833s7.834-3.514,7.834-7.833
		S315.252,728.69,310.933,728.69z"/>
	<path d="M310.933,758.454c-4.319,0-7.833,3.514-7.833,7.833s3.514,7.833,7.833,7.833s7.834-3.514,7.834-7.833
		S315.252,758.454,310.933,758.454z"/>
	<path d="M310.933,788.218c-4.319,0-7.833,3.514-7.833,7.833s3.514,7.833,7.833,7.833s7.834-3.514,7.834-7.833
		S315.252,788.218,310.933,788.218z"/>
	<path d="M310.933,817.981c-4.319,0-7.833,3.514-7.833,7.833s3.514,7.834,7.833,7.834s7.834-3.515,7.834-7.834
		S315.252,817.981,310.933,817.981z"/>
	<path d="M310.933,847.745c-4.319,0-7.833,3.514-7.833,7.833s3.514,7.834,7.833,7.834s7.834-3.515,7.834-7.834
		S315.252,847.745,310.933,847.745z"/>
	<path d="M310.933,877.509c-4.319,0-7.833,3.515-7.833,7.834s3.514,7.833,7.833,7.833s7.834-3.514,7.834-7.833
		S315.252,877.509,310.933,877.509z"/>
	<path d="M340.696,609.635c-4.319,0-7.833,3.514-7.833,7.833s3.514,7.834,7.833,7.834s7.834-3.515,7.834-7.834
		S345.016,609.635,340.696,609.635z"/>
	<path d="M340.696,639.398c-4.319,0-7.833,3.515-7.833,7.834s3.514,7.833,7.833,7.833s7.834-3.514,7.834-7.833
		S345.016,639.398,340.696,639.398z"/>
	<path d="M340.696,669.162c-4.319,0-7.833,3.515-7.833,7.834s3.514,7.833,7.833,7.833s7.834-3.514,7.834-7.833
		S345.016,669.162,340.696,669.162z"/>
	<path d="M340.696,698.927c-4.319,0-7.833,3.514-7.833,7.833s3.514,7.833,7.833,7.833s7.834-3.514,7.834-7.833
		S345.016,698.927,340.696,698.927z"/>
	<path d="M340.696,728.69c-4.319,0-7.833,3.514-7.833,7.833s3.514,7.833,7.833,7.833s7.834-3.514,7.834-7.833
		S345.016,728.69,340.696,728.69z"/>
	<path d="M340.696,758.454c-4.319,0-7.833,3.514-7.833,7.833s3.514,7.833,7.833,7.833s7.834-3.514,7.834-7.833
		S345.016,758.454,340.696,758.454z"/>
	<path d="M340.696,788.218c-4.319,0-7.833,3.514-7.833,7.833s3.514,7.833,7.833,7.833s7.834-3.514,7.834-7.833
		S345.016,788.218,340.696,788.218z"/>
	<path d="M340.696,817.981c-4.319,0-7.833,3.514-7.833,7.833s3.514,7.834,7.833,7.834s7.834-3.515,7.834-7.834
		S345.016,817.981,340.696,817.981z"/>
	<path d="M340.696,847.745c-4.319,0-7.833,3.514-7.833,7.833s3.514,7.834,7.833,7.834s7.834-3.515,7.834-7.834
		S345.016,847.745,340.696,847.745z"/>
	<path d="M340.696,877.509c-4.319,0-7.833,3.515-7.833,7.834s3.514,7.833,7.833,7.833s7.834-3.514,7.834-7.833
		S345.016,877.509,340.696,877.509z"/>
	<path d="M370.46,609.635c-4.319,0-7.833,3.514-7.833,7.833s3.514,7.834,7.833,7.834s7.834-3.515,7.834-7.834
		S374.779,609.635,370.46,609.635z"/>
	<path d="M370.46,639.398c-4.319,0-7.833,3.515-7.833,7.834s3.514,7.833,7.833,7.833s7.834-3.514,7.834-7.833
		S374.779,639.398,370.46,639.398z"/>
	<path d="M370.46,669.162c-4.319,0-7.833,3.515-7.833,7.834s3.514,7.833,7.833,7.833s7.834-3.514,7.834-7.833
		S374.779,669.162,370.46,669.162z"/>
	<path d="M370.46,698.927c-4.319,0-7.833,3.514-7.833,7.833s3.514,7.833,7.833,7.833s7.834-3.514,7.834-7.833
		S374.779,698.927,370.46,698.927z"/>
	<path d="M370.46,728.69c-4.319,0-7.833,3.514-7.833,7.833s3.514,7.833,7.833,7.833s7.834-3.514,7.834-7.833
		S374.779,728.69,370.46,728.69z"/>
	<path d="M370.46,758.454c-4.319,0-7.833,3.514-7.833,7.833s3.514,7.833,7.833,7.833s7.834-3.514,7.834-7.833
		S374.779,758.454,370.46,758.454z"/>
	<path d="M370.46,788.218c-4.319,0-7.833,3.514-7.833,7.833s3.514,7.833,7.833,7.833s7.834-3.514,7.834-7.833
		S374.779,788.218,370.46,788.218z"/>
	<path d="M370.46,817.981c-4.319,0-7.833,3.514-7.833,7.833s3.514,7.834,7.833,7.834s7.834-3.515,7.834-7.834
		S374.779,817.981,370.46,817.981z"/>
	<path d="M370.46,847.745c-4.319,0-7.833,3.514-7.833,7.833s3.514,7.834,7.833,7.834s7.834-3.515,7.834-7.834
		S374.779,847.745,370.46,847.745z"/>
	<path d="M370.46,877.509c-4.319,0-7.833,3.515-7.833,7.834s3.514,7.833,7.833,7.833s7.834-3.514,7.834-7.833
		S374.779,877.509,370.46,877.509z"/>
</g>
</svg>
