<?xml version="1.0" encoding="utf-8"?>
<!-- Generator: Adobe Illustrator 17.0.0, SVG Export Plug-In . SVG Version: 6.00 Build 0)  -->
<!DOCTYPE svg PUBLIC "-//W3C//DTD SVG 1.1//EN" "http://www.w3.org/Graphics/SVG/1.1/DTD/svg11.dtd">
<svg version="1.1" id="Layer_1" xmlns="http://www.w3.org/2000/svg" xmlns:xlink="http://www.w3.org/1999/xlink" x="0px" y="0px"
	 width="802.14px" height="1403.548px" viewBox="0 0 802.14 1403.548" enable-background="new 0 0 802.14 1403.548"
	 xml:space="preserve">
<g>
	<path d="M406.332,751.119c-72.64,0-138.539,29.576-186.274,77.311c-47.735,47.735-77.051,113.373-77.051,186.273
		c0,72.64,29.316,138.538,77.051,186.273c47.735,47.735,113.633,77.051,186.274,77.051c72.64,0,138.538-29.316,186.273-77.051
		c14.009-14.009,26.202-29.316,36.839-46.18v0.26l3.372-5.707c0.26-0.517,0.52-1.037,1.039-1.556l0.519-1.297
		c0.26-0.517,0.52-1.037,0.78-1.297l0.779-1.556l1.039-1.297l0.519-1.297c0.259-0.519,0.779-1.297,1.039-1.816l0.519-1.039
		l0.779-1.556l0.259-0.26l0.26-0.779l0.265,0.004c0.261-0.777,0.52-1.297,0.78-1.816l0.519-1.039c0.26-0.777,0.52-1.297,0.779-1.816
		l0.78-1.297c0.26-0.517,0.52-1.037,0.78-1.556l0.519-1.297l0.779-1.816l0.519-0.78c0.26-0.779,0.52-1.556,0.78-2.075l0.519-0.78
		c0.26-0.779,0.52-1.296,0.779-2.075l0.519-1.297l0.78-1.556l0.519-1.297l0.779-1.816l0.259-0.78v-0.259
		c0.26-0.519,0.52-1.296,1.039-2.075l0.26-0.78c0.26-0.778,0.52-1.296,0.78-2.075l0.259-0.78v-0.259
		c0.26-0.779,0.52-1.296,0.78-2.075l0.259-0.26l0.26-0.78l0.519-1.816l0.259-0.779l0.26-0.259c0.259-0.779,0.259-1.556,0.519-2.075
		l0.26-0.26l0.259-0.78v-0.26l0.26-0.78l0.259-0.779l0.26-0.78l0.259-1.039c0.26-0.517,0.26-1.037,0.519-1.556l0.259-0.78v-0.259
		c0.26-0.779,0.52-1.555,0.779-2.335l0.26-1.039c0.259-0.519,0.519-1.296,0.519-2.075l0.259-0.779
		c0.26-0.778,0.519-1.555,0.519-2.335l0.259-0.78c3.891-14.268,6.485-28.796,7.782-43.844v-0.259
		c0.519-7.525,0.779-15.307,0.754-22.813c0-9.078-0.257-17.64-1.297-26.461v-0.519v-1.556l-0.26-0.26c0-0.779,0-1.555-0.259-2.335
		v-1.039v-0.26c-0.26-0.779-0.26-1.555-0.26-2.335l-0.259-0.78v-0.259c0-0.779-0.26-1.555-0.26-2.335v-0.259l-0.259-0.78
		l-0.26-1.816v-0.78v-0.26c-0.26-0.778-0.26-1.555-0.519-2.335v-0.779c-4.671-26.984-13.492-52.665-25.685-76.275l-0.26,0.004
		c-0.26-0.779-0.779-1.555-1.039-2.335l-0.519-0.779v-0.26c-0.259-0.519-0.78-1.036-1.039-1.816l-0.519-1.039l-0.779-1.297
		l-0.519-0.779l-0.259-0.26c-0.26-0.779-0.78-1.296-1.039-2.075l-0.519-0.78v-0.26c-0.52-0.517-0.779-1.037-1.039-1.556
		l-3.372-5.707v0.26c-10.637-16.864-22.83-32.171-36.839-46.18C544.87,780.694,478.972,751.119,406.332,751.119z M160.161,932.45
		c5.19-15.307,11.676-30.095,19.458-43.844v95.731h-31.131C150.563,966.437,154.454,949.054,160.161,932.45z M179.619,1140.775
		c-8.042-14.528-14.787-29.833-19.975-45.66c-5.71-17.381-9.601-35.282-11.417-53.962h31.391V1140.775z M633.368,1140.775v-99.622
		H664.5C660.869,1077.212,649.972,1110.679,633.368,1140.775z M664.243,984.337h-30.872l-0.001-95.731
		C649.455,917.403,660.352,949.831,664.243,984.337z M629.48,881.863v104.552v1.816h1.816h33.466
		c0.778,8.819,1.297,17.381,1.297,26.461c0,7.523-0.52,15.307-1.039,22.83h-33.726h-1.816v1.816v108.183
		c-11.157,18.419-24.386,35.542-39.434,50.59c-46.956,47.218-112.074,76.275-183.678,76.275s-136.462-29.059-183.678-76.275
		c-15.048-15.048-28.277-31.91-39.434-50.59v-108.186v-1.816h-1.816H147.71c-0.52-7.523-1.039-15.307-1.039-22.83
		c0-9.079,0.517-17.64,1.297-26.461h33.467v0.003h1.822v-1.816V881.604c11.157-18.419,24.386-35.282,39.434-50.59
		c47.215-46.958,112.074-76.015,183.678-76.015s136.72,29.057,183.678,76.015C605.094,846.322,618.323,863.444,629.48,881.863z"/>
	<path d="M724.187,0H77.953C34.969,0,0,34.97,0,77.953v1247.642c0,42.983,34.97,77.953,77.953,77.953h646.234
		c42.983,0,77.953-34.97,77.953-77.953V77.953C802.14,34.97,767.17,0,724.187,0z M704.345,688.404
		c27.777,21.206,43.708,53.245,43.708,87.901v465.52c0,34.678-15.947,66.729-43.736,87.923c-1.105,0.831-1.266,1.896-1.264,2.448
		v57.178H110.604l0-57.142c0.008-0.566-0.144-1.641-1.247-2.473c-27.806-21.205-43.753-53.257-43.753-87.935v-465.52
		c0-34.657,15.931-66.695,43.711-87.902c0.653-0.5,1.408-1.418,1.289-2.976V14.173h592.449l-0.002,671.272
		C702.935,686.984,703.689,687.903,704.345,688.404z M14.173,1325.594V77.953c0-35.168,28.612-63.78,63.78-63.78h26.982v670.448
		c-28.615,22.288-45,55.636-45,91.684v465.52c0,36.045,16.38,69.386,45,91.684v55.865H77.953
		C42.785,1389.374,14.173,1360.762,14.173,1325.594z M787.966,1325.594c0,35.168-28.611,63.779-63.779,63.779h-15.465v-55.864
		c28.615-22.289,45-55.635,45-91.685v-465.52c0-36.047-16.386-69.396-45-91.684V14.173h15.465c35.168,0,63.779,28.612,63.779,63.78
		V1325.594z"/>
	<path d="M406.362,722.334c-77.872,0-151.302,30.393-206.77,85.588c-55.193,55.191-85.588,128.624-85.588,206.77
		c0,77.978,30.394,151.318,85.592,206.516c55.464,55.189,128.894,85.582,206.766,85.582s151.308-30.393,206.773-85.586
		c55.192-55.191,85.587-128.533,85.587-206.511c0-78.147-30.396-151.577-85.592-206.776
		C557.667,752.727,484.234,722.334,406.362,722.334z M604.058,1212.375c-52.987,52.72-123.192,81.753-197.69,81.753
		c-74.498,0-144.705-29.033-197.682-81.742c-52.716-52.987-81.75-123.195-81.75-197.693c0-74.498,29.033-144.705,81.745-197.687
		c52.714-52.716,122.919-81.746,197.684-81.746c74.765,0,144.97,29.031,197.682,81.74c52.719,52.987,81.753,123.195,81.753,197.693
		C685.8,1089.191,656.767,1159.398,604.058,1212.375z"/>
	<circle cx="539.453" cy="1014.692" r="37.617"/>
	<circle cx="273.274" cy="1014.692" r="37.617"/>
	<path d="M197.597,163.046L585.34,316.044c5.102,2.013,10.459,3.034,15.922,3.034c17.842,0,34.212-11.104,40.733-27.629
		c8.839-22.401-2.194-47.816-24.596-56.655L229.657,81.796c-5.103-2.014-10.459-3.034-15.922-3.034
		c-17.842,0-34.211,11.104-40.732,27.629c-4.265,10.809-4.049,22.671,0.609,33.401C178.27,150.522,186.788,158.781,197.597,163.046z
		 M178.275,108.472c5.674-14.379,19.924-24.041,35.459-24.041c4.748,0,9.404,0.888,13.841,2.639l387.744,152.998
		c9.4,3.709,16.811,10.896,20.866,20.237c4.055,9.341,4.245,19.663,0.535,29.063c-5.674,14.379-19.924,24.041-35.459,24.041
		c-4.748,0-9.404-0.888-13.842-2.638L199.678,157.772C180.185,150.081,170.584,127.965,178.275,108.472z"/>
	<path d="M336.639,504.231h11.67l2.549,6.632h6.413l-11.69-29.195h-6.233l-11.372,29.195h6.253L336.639,504.231z M342.394,488.478
		l4.023,10.833h-7.966L342.394,488.478z"/>
	<path d="M375.035,481.667h-6.233l-11.372,29.195h6.253l2.41-6.632h11.67l2.549,6.632h6.413L375.035,481.667z M367.905,499.312
		l3.943-10.833l4.023,10.833H367.905z"/>
	<polygon points="413.072,510.863 413.072,481.667 407.596,481.667 407.596,501.164 395.647,481.667 389.911,481.667 
		389.911,510.863 395.388,510.863 395.388,491.824 407.158,510.863 	"/>
	<rect x="418.629" y="497.48" width="10.993" height="5.596"/>
	<path d="M432.849,481.667v15.573c0,3.266,0.192,5.736,0.577,7.409c0.266,1.128,0.816,2.208,1.653,3.236
		c0.836,1.029,1.975,1.866,3.415,2.51c1.44,0.644,3.555,0.966,6.343,0.966c2.311,0,4.183-0.296,5.616-0.886
		c1.434-0.591,2.579-1.384,3.436-2.38c0.856-0.996,1.443-2.217,1.763-3.665c0.318-1.447,0.478-3.923,0.478-7.428v-15.334h-5.895
		v16.151c0,2.31-0.087,3.963-0.259,4.959c-0.173,0.996-0.685,1.835-1.534,2.519c-0.85,0.684-2.11,1.026-3.783,1.026
		c-1.646,0-2.944-0.362-3.894-1.085s-1.55-1.683-1.803-2.878c-0.146-0.743-0.219-2.37-0.219-4.879v-15.813H432.849z"/>
	<rect x="462.163" y="481.667" width="5.895" height="29.195"/>
	<polygon points="494.784,481.667 471.583,481.667 471.583,486.606 480.246,486.606 480.246,510.863 486.142,510.863 
		486.142,486.606 494.784,486.606 	"/>
	<path d="M333.403,556.427v-29.315h-4.541c-0.637,1.779-1.812,3.336-3.525,4.67c-1.712,1.334-3.299,2.241-4.76,2.719v5.078
		c2.775-0.916,5.185-2.33,7.229-4.242v21.09H333.403z"/>
	<path d="M351.227,556.925c2.828,0,5.032-0.996,6.612-2.987c1.912-2.417,2.868-6.386,2.868-11.909c0-5.537-0.949-9.5-2.848-11.89
		c-1.593-2.018-3.804-3.027-6.631-3.027c-2.828,0-5.032,0.996-6.612,2.987c-1.912,2.417-2.868,6.373-2.868,11.869
		c0,5.603,0.869,9.497,2.609,11.68C346.095,555.833,348.385,556.925,351.227,556.925z M348.179,534.72
		c0.292-1.115,0.704-1.888,1.235-2.32c0.531-0.432,1.135-0.647,1.813-0.647c0.677,0,1.277,0.216,1.802,0.647
		c0.524,0.432,0.959,1.288,1.304,2.569s0.518,3.635,0.518,7.06s-0.193,5.855-0.578,7.289c-0.292,1.115-0.704,1.889-1.235,2.32
		c-0.531,0.432-1.135,0.647-1.812,0.647c-0.677,0-1.278-0.212-1.802-0.638c-0.525-0.425-0.959-1.277-1.305-2.559
		c-0.345-1.281-0.518-3.634-0.518-7.06S347.794,536.167,348.179,534.72z"/>
	<path d="M373.91,527.112c-2.828,0-5.032,0.996-6.612,2.987c-1.912,2.417-2.868,6.373-2.868,11.869c0,5.603,0.869,9.497,2.609,11.68
		c1.739,2.184,4.029,3.276,6.871,3.276c2.828,0,5.032-0.996,6.612-2.987c1.912-2.417,2.868-6.386,2.868-11.909
		c0-5.537-0.949-9.5-2.848-11.89C378.949,528.121,376.738,527.112,373.91,527.112z M376.957,549.317
		c-0.292,1.115-0.704,1.889-1.235,2.32c-0.531,0.432-1.135,0.647-1.812,0.647c-0.677,0-1.278-0.212-1.802-0.638
		c-0.525-0.425-0.959-1.277-1.305-2.559c-0.345-1.281-0.518-3.634-0.518-7.06s0.192-5.862,0.577-7.309
		c0.292-1.115,0.704-1.888,1.235-2.32c0.531-0.432,1.135-0.647,1.813-0.647c0.677,0,1.277,0.216,1.802,0.647
		c0.524,0.432,0.959,1.288,1.304,2.569s0.518,3.635,0.518,7.06S377.342,547.884,376.957,549.317z"/>
	<path d="M396.593,527.112c-2.828,0-5.032,0.996-6.612,2.987c-1.912,2.417-2.868,6.373-2.868,11.869
		c0,5.603,0.869,9.497,2.609,11.68c1.739,2.184,4.029,3.276,6.871,3.276c2.828,0,5.032-0.996,6.612-2.987
		c1.912-2.417,2.867-6.386,2.867-11.909c0-5.537-0.949-9.5-2.848-11.89C401.632,528.121,399.421,527.112,396.593,527.112z
		 M399.64,549.317c-0.292,1.115-0.704,1.889-1.235,2.32c-0.531,0.432-1.135,0.647-1.812,0.647c-0.677,0-1.278-0.212-1.802-0.638
		c-0.525-0.425-0.959-1.277-1.305-2.559c-0.345-1.281-0.518-3.634-0.518-7.06s0.192-5.862,0.577-7.309
		c0.292-1.115,0.704-1.888,1.235-2.32c0.531-0.432,1.135-0.647,1.813-0.647c0.677,0,1.277,0.216,1.802,0.647
		c0.524,0.432,0.959,1.288,1.304,2.569s0.518,3.635,0.518,7.06S400.025,547.884,399.64,549.317z"/>
	<polygon points="432.918,556.427 438.714,534.6 444.529,556.427 450.782,556.427 457.872,527.232 451.938,527.232 447.456,547.625 
		442.338,527.232 435.328,527.232 429.991,547.286 425.59,527.232 419.556,527.232 426.525,556.427 	"/>
	<path d="M464.88,556.905c1.235,0,2.396-0.232,3.485-0.697c1.089-0.464,2.111-1.162,3.067-2.091c0.04,0.106,0.105,0.325,0.199,0.657
		c0.212,0.73,0.391,1.281,0.537,1.653h5.537c-0.492-1.009-0.827-1.955-1.006-2.838c-0.18-0.883-0.27-2.253-0.27-4.112l0.061-6.532
		c0-2.43-0.249-4.099-0.747-5.009c-0.498-0.909-1.357-1.659-2.579-2.25c-1.222-0.59-3.08-0.886-5.576-0.886
		c-2.748,0-4.819,0.492-6.214,1.474c-1.394,0.982-2.377,2.496-2.947,4.541l5.078,0.916c0.346-0.982,0.797-1.669,1.354-2.061
		s1.334-0.588,2.33-0.588c1.474,0,2.476,0.229,3.007,0.688c0.531,0.458,0.797,1.225,0.797,2.3v0.558
		c-1.009,0.425-2.821,0.883-5.437,1.375c-1.938,0.372-3.423,0.806-4.451,1.304c-1.029,0.498-1.829,1.215-2.399,2.151
		c-0.571,0.936-0.856,2.001-0.856,3.196c0,1.806,0.627,3.299,1.882,4.481S462.703,556.905,464.88,556.905z M464.542,548.102
		c0.478-0.318,1.493-0.644,3.047-0.976c1.554-0.332,2.688-0.617,3.405-0.856v1.115c0,1.341-0.073,2.25-0.219,2.729
		c-0.213,0.73-0.657,1.348-1.335,1.852c-0.916,0.664-1.879,0.996-2.888,0.996c-0.902,0-1.646-0.285-2.23-0.856
		c-0.584-0.57-0.876-1.248-0.876-2.031C463.446,549.278,463.812,548.62,464.542,548.102z"/>
	<path d="M482.445,552.902c0.146,0.916,0.408,1.643,0.787,2.181c0.378,0.538,0.973,0.976,1.782,1.314
		c0.81,0.338,1.72,0.508,2.729,0.508c1.646,0,3.12-0.279,4.421-0.836l-0.478-4.341c-0.982,0.358-1.732,0.538-2.251,0.538
		c-0.371,0-0.687-0.093-0.945-0.279s-0.426-0.421-0.498-0.707c-0.073-0.286-0.109-1.291-0.109-3.017v-8.524h3.823v-4.461h-3.823
		v-7.468l-5.616,3.266v4.202h-2.569v4.461h2.569v9.221C482.267,550.937,482.326,552.252,482.445,552.902z"/>
	<path d="M496.027,552.902c0.146,0.916,0.408,1.643,0.787,2.181c0.378,0.538,0.973,0.976,1.782,1.314
		c0.81,0.338,1.72,0.508,2.729,0.508c1.646,0,3.12-0.279,4.421-0.836l-0.478-4.341c-0.982,0.358-1.732,0.538-2.251,0.538
		c-0.371,0-0.687-0.093-0.945-0.279s-0.426-0.421-0.498-0.707c-0.073-0.286-0.109-1.291-0.109-3.017v-8.524h3.823v-4.461h-3.823
		v-7.468l-5.616,3.266v4.202h-2.569v4.461h2.569v9.221C495.849,550.937,495.908,552.252,496.027,552.902z"/>
</g>
<path d="M601.37,308.041c9.039,0,17.291-3.537,23.19-9.433c5.896-5.895,9.433-14.151,9.433-23.19c0-9.039-3.538-17.296-9.433-23.191
	c-5.895-5.896-14.151-9.433-23.19-9.433s-17.296,3.539-23.19,9.433c-5.896,5.895-9.434,14.152-9.434,23.191
	c0,9.039,3.539,17.296,9.434,23.19C584.074,304.504,592.331,308.041,601.37,308.041z M582.504,256.553
	c4.714-5.111,11.396-7.862,18.865-7.862s14.147,2.754,18.865,7.862c5.108,4.714,8.252,11.396,8.252,18.865
	s-3.144,14.15-8.252,19.259c-4.714,4.718-11.396,7.862-18.865,7.862s-14.147-3.144-18.865-7.862
	c-5.111-5.107-8.252-11.79-8.252-19.259S577.396,261.272,582.504,256.553z"/>
<circle fill="#0078CC" cx="601.37" cy="275.419" r="23.974"/>
</svg>
