<?xml version="1.0" encoding="utf-8"?>
<!-- Generator: Adobe Illustrator 20.0.0, SVG Export Plug-In . SVG Version: 6.00 Build 0)  -->
<svg version="1.1" id="Layer_1" xmlns="http://www.w3.org/2000/svg" xmlns:xlink="http://www.w3.org/1999/xlink" x="0px" y="0px"
	 viewBox="0 0 1054.35 1070.55" style="enable-background:new 0 0 1054.35 1070.55;" xml:space="preserve" xmlns:pulse="-">
<style type="text/css">
	.st0{clip-path:url(#SVGID_2_);}
	.st1{clip-path:url(#SVGID_2_);fill-rule:evenodd;clip-rule:evenodd;fill:#000000;}
</style>
<rect x="276.83" y="957.2" transform="matrix(0.7497 -0.6618 0.6618 0.7497 -559.1655 443.0838)" width="58.65" height="7.09"/>
<polygon points="321.21,939.71 333.03,937.06 328.94,948.46 "/>
<g>
	<defs>
		<rect id="SVGID_1_" width="1054.35" height="1070.55"/>
	</defs>
	<clipPath id="SVGID_2_">
		<use xlink:href="#SVGID_1_"  style="overflow:visible;"/>
	</clipPath>
	<path class="st0" d="M326.3,975.99c-8.22,0-15.09-5.09-21.1-9.54c-10.05-7.44-16.72-11.68-26.94-5.28l-3.76-6
		c14.83-9.3,25.97-1.04,34.92,5.59c10.03,7.43,17.95,13.3,30.94,1.07l4.86,5.16C338.19,973.59,331.93,975.98,326.3,975.99"/>
	<path class="st0" d="M355.71,998.88H261.3v-75.76h94.41V998.88z M264.14,996.04h88.74v-70.09h-88.74V996.04z"/>

		<rect x="276.83" y="957.2" transform="matrix(0.7497 -0.6618 0.6618 0.7497 -559.1655 443.0838)" class="st0" width="58.65" height="7.09"/>
	<polygon class="st0" points="321.21,939.71 333.03,937.06 328.94,948.46 	"/>
	<path class="st0" d="M326.3,975.99c-8.22,0-15.09-5.09-21.1-9.54c-10.05-7.44-16.72-11.68-26.94-5.28l-3.76-6
		c14.83-9.3,25.97-1.04,34.92,5.59c10.03,7.43,17.95,13.3,30.94,1.07l4.86,5.16C338.19,973.59,331.93,975.98,326.3,975.99"/>
	<path class="st0" d="M337.83,910.03h-58.64v-65.31h58.64V910.03z M282.02,907.2h52.97v-59.65h-52.97V907.2z"/>
	<path class="st0" d="M462.89,998.88h-94.41v-75.76h94.41V998.88z M371.31,996.04h88.74v-70.09h-88.74V996.04z"/>
	<path class="st0" d="M445,910.03h-58.64v-65.31H445V910.03z M389.2,907.2h52.97v-59.65H389.2V907.2z"/>
	<path class="st0" d="M570.06,998.88h-94.41v-75.76h94.41V998.88z M478.49,996.04h88.74v-70.09h-88.74V996.04z"/>

		<rect x="491.18" y="957.2" transform="matrix(0.7497 -0.6618 0.6618 0.7497 -505.5137 584.936)" class="st0" width="58.65" height="7.09"/>
	<polygon class="st0" points="535.56,939.71 547.38,937.06 543.29,948.46 	"/>
	<path class="st0" d="M540.65,975.99c-8.22,0-15.09-5.09-21.1-9.54c-10.05-7.44-16.72-11.68-26.93-5.28l-3.76-6
		c14.83-9.3,25.97-1.04,34.92,5.59c10.03,7.43,17.95,13.3,30.94,1.07l4.86,5.16C552.54,973.59,546.28,975.98,540.65,975.99"/>
	<path class="st0" d="M552.18,910.03h-58.64v-65.31h58.64V910.03z M496.37,907.2h52.97v-59.65h-52.97V907.2z"/>
	<path class="st0" d="M677.24,998.88h-94.41v-75.76h94.41V998.88z M585.66,996.04h88.74v-70.09h-88.74V996.04z"/>
	<path class="st0" d="M659.35,910.03h-58.64v-65.31h58.64V910.03z M603.55,907.2h52.97v-59.65h-52.97V907.2z"/>
	<path class="st0" d="M784.41,998.88h-94.41v-75.76h94.41V998.88z M692.84,996.04h88.74v-70.09h-88.74V996.04z"/>
	<path class="st0" d="M1050.12,243.61L810.67,4.15C807.9,1.39,804.28,0,800.65,0v0h-534.6c-3.95,0-7.52,1.62-10.09,4.22L4.15,256.03
		C1.39,258.8,0,262.42,0,266.05h0v550.8c0,3.95,1.62,7.52,4.22,10.09l239.45,239.45c1.86,1.86,4.1,3.08,6.48,3.69v0.07h0.27
		c1.07,0.25,2.17,0.4,3.27,0.4v0h534.6c1.13,0,2.23-0.15,3.29-0.4h2.76v-0.97c1.51-0.72,2.89-1.68,4.05-2.86l251.8-251.8
		c2.77-2.77,4.15-6.39,4.15-10.02h0V253.7C1054.35,249.75,1052.73,246.18,1050.12,243.61 M787.25,1056.37H683.9V833.15h103.35
		V1056.37z M683.34,1056.37H576.73V833.15h106.61V1056.37z M576.16,1056.37H469.56V833.15h106.61V1056.37z M468.99,1056.37H362.38
		V833.15h106.61V1056.37z M361.81,1056.37H257.24V833.15h104.57V1056.37z M1040.17,804.5l-245.83,245.83V826.06H250.15v226.77
		L14.17,816.85v-550.8L266.05,14.17h534.6l239.52,239.52V804.5z"/>
	<path class="st0" d="M766.53,910.03h-58.64v-65.31h58.64V910.03z M710.72,907.2h52.97v-59.65h-52.97V907.2z"/>
	<path class="st0" d="M392.84,966.46l6.08,2.5c-0.93,4.58-2.49,7.98-4.66,10.21c-2.17,2.22-4.92,3.33-8.26,3.33
		c-4.13,0-7.53-1.89-10.19-5.67c-2.66-3.78-3.99-8.94-3.99-15.5c0-6.93,1.34-12.31,4.01-16.15c2.67-3.84,6.19-5.75,10.55-5.75
		c3.81,0,6.9,1.51,9.27,4.52c1.42,1.78,2.48,4.34,3.19,7.68l-6.21,1.98c-0.37-2.15-1.14-3.85-2.3-5.1
		c-1.17-1.25-2.59-1.87-4.26-1.87c-2.31,0-4.18,1.1-5.62,3.32c-1.44,2.21-2.16,5.79-2.16,10.75c0,5.25,0.71,9,2.12,11.23
		c1.42,2.24,3.26,3.35,5.52,3.35c1.67,0,3.11-0.71,4.32-2.13C391.45,971.74,392.32,969.51,392.84,966.46"/>
	<path class="st0" d="M405.27,960.97c0,4.72,0.82,8.29,2.45,10.73c1.63,2.43,3.7,3.65,6.21,3.65c2.51,0,4.57-1.21,6.18-3.62
		c1.61-2.42,2.41-6.04,2.41-10.88c0-4.78-0.78-8.34-2.35-10.68c-1.56-2.35-3.64-3.53-6.24-3.53c-2.59,0-4.69,1.19-6.27,3.57
		C406.06,952.59,405.27,956.18,405.27,960.97 M398.79,961.25c0-4.24,0.48-7.81,1.43-10.69c0.7-2.12,1.67-4.03,2.9-5.72
		c1.22-1.68,2.56-2.93,4.02-3.76c1.94-1.09,4.18-1.65,6.71-1.65c4.59,0,8.25,1.91,11.01,5.71c2.75,3.82,4.13,9.11,4.13,15.91
		c0,6.73-1.37,12-4.1,15.8c-2.73,3.81-6.39,5.71-10.95,5.71c-4.63,0-8.31-1.89-11.04-5.68C400.16,973.11,398.79,967.9,398.79,961.25
		"/>
	<polygon class="st0" points="429.57,981.81 429.57,940.19 439.01,940.19 444.58,968.57 450.09,940.19 459.55,940.19 459.55,981.81
		453.73,981.81 453.71,949.05 447.57,981.81 441.52,981.81 435.42,949.05 435.4,981.81 	"/>
	<polygon class="st0" points="616.69,984.98 616.69,935.22 626.86,935.22 626.86,976.5 652.02,976.5 652.02,984.98 	"/>
	<polygon class="st0" points="718.45,985.37 718.45,935.18 728.29,935.18 748.94,968.82 748.94,935.18 758.33,935.18 758.33,985.37
		748.18,985.37 727.84,952.38 727.84,985.37 	"/>
	<path class="st0" d="M570.47,384.27h-74.25c-15.4,0-27.92-12.52-27.92-27.92V160.6c0-15.39,12.52-27.92,27.92-27.92h74.25
		c15.39,0,27.92,12.53,27.92,27.92v195.75C598.39,371.74,585.87,384.27,570.47,384.27 M496.23,139.77
		c-11.49,0-20.83,9.35-20.83,20.83v195.75c0,11.49,9.35,20.83,20.83,20.83h74.25c11.49,0,20.83-9.35,20.83-20.83V160.6
		c0-11.49-9.35-20.83-20.83-20.83H496.23z"/>
	<path class="st0" d="M427.14,292.43H306.19c-11.47,0-20.79,9.33-20.79,20.79v477c0,11.47,9.33,20.79,20.79,20.79h120.95
		c11.47,0,20.79-9.33,20.79-20.79v-477C447.93,301.76,438.6,292.43,427.14,292.43 M427.14,803.93H306.19
		c-7.56,0-13.71-6.15-13.71-13.71v-477c0-7.56,6.15-13.71,13.71-13.71h120.95c7.56,0,13.71,6.15,13.71,13.71V498.2h-26.62
		c-2.11,0-3.83,1.72-3.83,3.84v99.37c0,2.11,1.72,3.83,3.83,3.83h26.62v184.98C440.84,797.78,434.7,803.93,427.14,803.93
		 M440.84,501.75v99.96h-26.62c-0.15,0-0.29-0.14-0.29-0.29v-99.37c0-0.16,0.14-0.29,0.29-0.29H440.84z"/>
	<path class="st0" d="M533.35,228c-15.25,0-27.65-12.4-27.65-27.65c0-15.24,12.4-27.65,27.65-27.65c15.24,0,27.65,12.4,27.65,27.65
		C561,215.59,548.59,228,533.35,228 M533.35,176.24c-13.29,0-24.11,10.81-24.11,24.11c0,13.29,10.81,24.11,24.11,24.11
		c13.29,0,24.1-10.81,24.1-24.11C557.45,187.06,546.64,176.24,533.35,176.24"/>
	<path class="st0" d="M533.35,337.12c-17.93,0-32.52-14.59-32.52-32.52c0-17.93,14.59-32.52,32.52-32.52
		c17.93,0,32.52,14.59,32.52,32.52C565.86,322.53,551.28,337.12,533.35,337.12 M533.35,275.63c-15.98,0-28.97,13-28.97,28.97
		c0,15.98,13,28.97,28.97,28.97c15.98,0,28.97-13,28.97-28.97C562.32,288.63,549.32,275.63,533.35,275.63"/>
	<path pulse:initial="true" class="st1" d="M533.35,175.91c13.5,0,24.44,10.94,24.44,24.44c0,13.5-10.94,24.44-24.44,24.44
		c-13.5,0-24.44-10.94-24.44-24.44C508.91,186.85,519.85,175.91,533.35,175.91"/>
</g>
</svg>
