<?xml version="1.0" encoding="utf-8"?>
<!-- Generator: Adobe Illustrator 17.0.0, SVG Export Plug-In . SVG Version: 6.00 Build 0)  -->
<!DOCTYPE svg PUBLIC "-//W3C//DTD SVG 1.1//EN" "http://www.w3.org/Graphics/SVG/1.1/DTD/svg11.dtd">
<svg version="1.1" id="Layer_1" xmlns="http://www.w3.org/2000/svg" xmlns:xlink="http://www.w3.org/1999/xlink" x="0px" y="0px"
	 width="270.67px" height="407.411px" viewBox="0 0 270.67 407.411" enable-background="new 0 0 270.67 407.411"
	 xml:space="preserve">
<g>
	<path fill="#000000" d="M135.32,407.411c-7.383-0.07-14.607-2.676-21.471-7.744c-6.745-4.98-13.331-12.487-19.572-22.311
		l-0.03-0.05c-4.049-6.906-12.281-11.001-24.47-12.173c-1.618-0.155-3.329-0.262-5.086-0.316l0.1-3.251
		c1.827,0.056,3.609,0.167,5.297,0.329c13.272,1.275,22.338,5.898,26.949,13.739c11.949,18.798,24.84,28.395,38.314,28.524
		L135.32,407.411z"/>
</g>
<g>
	<path fill="#000000" d="M135.35,407.411l-0.031-3.252c13.474-0.128,26.364-9.724,38.314-28.523
		c5.196-8.837,16.046-13.57,32.246-14.069l0.1,3.251c-15.024,0.462-24.969,4.664-29.556,12.488l-0.03,0.05
		c-6.242,9.824-12.827,17.331-19.572,22.311C149.957,404.735,142.733,407.341,135.35,407.411z"/>
</g>
<g>
	<path fill="#000000" d="M135.335,389.047c-10.341,0-18.441-4.516-18.441-10.281s8.1-10.281,18.441-10.281
		c10.34,0,18.441,4.516,18.441,10.281S145.675,389.047,135.335,389.047z M135.335,371.738c-8.951,0-15.188,3.704-15.188,7.028
		c0,3.324,6.238,7.028,15.188,7.028c8.951,0,15.188-3.704,15.188-7.028C150.523,375.442,144.285,371.738,135.335,371.738z"/>
</g>
<g>
	<path d="M135.335,407.411l-0.016,0c-7.382-0.07-14.606-2.676-21.471-7.744c-6.745-4.98-13.33-12.487-19.572-22.311l-0.03-0.05
		c-4.049-6.906-12.282-11.001-24.47-12.173c-1.607-0.155-3.309-0.26-5.061-0.315h-2.942c-26.076,0-43.559-18.13-48.949-30.316
		c-5.398-12.203-8.549-40.979-9.608-61.914l-0.278-5.474C1.494,238.664,0,209.245,0,180.4c0-39.785,1.409-80.651,3.867-112.122
		c1.469-18.818,5.04-31.529,11.578-41.215c7.92-11.733,20.445-18.914,38.29-21.954C73.309,1.776,113.702,0,135.335,0
		c21.633,0,62.025,1.776,81.6,5.109c17.845,3.039,30.37,10.221,38.29,21.954c6.538,9.685,10.108,22.396,11.578,41.215
		c2.457,31.469,3.866,72.336,3.866,112.122c0,28.851-1.494,58.276-2.94,86.732l-0.277,5.457c-1.059,20.935-4.21,49.711-9.607,61.914
		c-5.39,12.186-22.873,30.316-48.949,30.316h-2.942c-1.751,0.054-3.454,0.16-5.061,0.315c-12.188,1.171-20.421,5.267-24.47,12.173
		l-0.03,0.05c-6.242,9.824-12.827,17.331-19.572,22.311c-6.865,5.068-14.089,7.674-21.471,7.744L135.335,407.411z M97.037,375.636
		c11.945,18.792,24.83,28.388,38.298,28.523c13.469-0.135,26.353-9.731,38.298-28.523c4.611-7.842,13.678-12.464,26.95-13.74
		c1.684-0.162,3.466-0.273,5.297-0.329l0.05-0.001h2.967c13.979,0,24.391-5.562,30.663-10.227
		c6.796-5.056,12.52-11.841,15.311-18.151c5.218-11.797,8.289-40.105,9.333-60.763l0.277-5.457
		c1.443-28.416,2.936-57.799,2.936-86.568c0-39.705-1.406-80.48-3.857-111.869c-2.479-31.743-11.449-54.131-47.172-60.215
		c-19.398-3.304-59.537-5.063-81.054-5.063S73.679,5.012,54.281,8.316C18.558,14.4,9.588,36.788,7.109,68.531
		C4.658,99.921,3.253,140.696,3.253,180.4c0,28.762,1.492,58.14,2.935,86.55l0.278,5.475c1.045,20.657,4.116,48.965,9.334,60.763
		c2.791,6.31,8.515,13.096,15.311,18.151c6.272,4.665,16.684,10.227,30.663,10.227l3.017,0.001c1.831,0.056,3.613,0.167,5.297,0.329
		C83.358,363.171,92.425,367.794,97.037,375.636z M135.335,389.047c-10.341,0-18.441-4.516-18.441-10.281s8.1-10.281,18.441-10.281
		c10.34,0,18.441,4.516,18.441,10.281S145.675,389.047,135.335,389.047z M135.335,371.738c-8.951,0-15.188,3.704-15.188,7.028
		c0,3.324,6.238,7.028,15.188,7.028c8.951,0,15.188-3.704,15.188-7.028C150.523,375.442,144.285,371.738,135.335,371.738z"/>
</g>
<g>
	<path d="M124.881,48.425c-2.675-2.675-4.33-6.371-4.33-10.454c0-4.082,1.655-7.778,4.33-10.454c2.675-2.675,6.371-4.33,10.454-4.33
		c4.082,0,7.778,1.655,10.454,4.33c2.675,2.675,4.33,6.371,4.33,10.454c0,4.082-1.655,7.778-4.33,10.454
		c-2.675,2.675-6.371,4.33-10.454,4.33C131.253,52.755,127.557,51.101,124.881,48.425 M122.177,37.972
		c0,3.633,1.473,6.923,3.854,9.304c2.381,2.381,5.67,3.854,9.304,3.854c3.633,0,6.923-1.473,9.304-3.854
		c2.381-2.381,3.854-5.67,3.854-9.304c0-3.633-1.473-6.923-3.854-9.304c-2.381-2.381-5.67-3.854-9.304-3.854
		c-3.633,0-6.923,1.473-9.304,3.854C123.65,31.049,122.177,34.338,122.177,37.972z"/>
</g>
<g>
	<path fill-rule="evenodd" clip-rule="evenodd" fill="#0078CC" d="M86.915,92.884v34.339c0,0.61-0.499,1.109-1.109,1.109h-1.572
		c-0.61,0-1.109-0.499-1.109-1.109V92.884c0-0.61,0.499-1.109,1.109-1.109h1.572C86.415,91.775,86.915,92.274,86.915,92.884
		 M107.925,133.083c5.894-5.894,9.539-14.036,9.539-23.029s-3.645-17.136-9.539-23.029c-5.894-5.894-14.036-9.539-23.029-9.539
		c-8.993,0-17.136,3.645-23.029,9.539s-9.539,14.036-9.539,23.029s3.645,17.136,9.539,23.029c5.894,5.893,14.036,9.539,23.029,9.539
		S102.031,138.976,107.925,133.083z"/>
</g>
<g>
	<path fill-rule="evenodd" clip-rule="evenodd" fill="#0078CC" d="M165.628,110.053c0-11.127,9.02-20.146,20.146-20.146
		s20.146,9.02,20.146,20.146c0,11.127-9.02,20.146-20.146,20.146S165.628,121.18,165.628,110.053 M153.206,110.053
		c0,8.993,3.645,17.136,9.539,23.029c5.894,5.893,14.036,9.539,23.029,9.539c8.993,0,17.136-3.645,23.029-9.539
		c5.893-5.894,9.539-14.036,9.539-23.029s-3.645-17.136-9.539-23.029c-5.894-5.893-14.036-9.539-23.029-9.539
		c-8.994,0-17.136,3.645-23.029,9.539C156.851,92.918,153.206,101.06,153.206,110.053z M185.774,93.764
		c-8.996,0-16.289,7.293-16.289,16.289s7.293,16.289,16.289,16.289c8.996,0,16.289-7.293,16.289-16.289
		S194.771,93.764,185.774,93.764z"/>
</g>
<g>
	<path d="M135.335,283.954c-5.935,0-8.056-0.467-11.816-1.613c-13.336-4.065-25.373-10.794-35.776-20
		c-10.39-9.195-19.437-21.115-26.891-35.429c-7.438-14.286-13.499-31.361-18.013-50.751c-4.509-19.366-7.602-41.59-9.195-66.055
		l-0.002-0.03l0-0.03c0.083-10.722,1.354-18.66,4-24.982c2.985-7.133,7.92-12.586,15.088-16.67
		c14.544-8.287,39.248-11.823,82.604-11.823s68.06,3.536,82.604,11.823c7.168,4.084,12.104,9.537,15.088,16.67
		c2.646,6.322,3.917,14.26,4,24.982l-0.002,0.059c-1.593,24.465-4.687,46.689-9.195,66.055
		c-4.514,19.389-10.574,36.464-18.013,50.751c-7.453,14.314-16.5,26.234-26.891,35.429c-10.403,9.206-22.44,15.935-35.776,20
		C143.391,283.487,141.27,283.954,135.335,283.954z M35.27,110.03c3.174,48.715,12.267,87.785,27.025,116.13
		c14.709,28.251,35.467,46.629,61.698,54.624c3.595,1.096,5.627,1.542,11.341,1.542c5.714,0,7.747-0.446,11.341-1.542
		c26.231-7.996,46.989-26.374,61.698-54.624c14.759-28.345,23.851-67.415,27.026-116.13c-0.143-17.978-3.308-31.698-18.267-40.222
		c-14.282-8.137-38.745-11.61-81.798-11.61s-67.517,3.472-81.799,11.61C38.577,78.332,35.413,92.052,35.27,110.03z M185.774,144.248
		c-18.855,0-34.194-15.339-34.194-34.194s15.34-34.194,34.194-34.194c18.855,0,34.194,15.339,34.194,34.194
		S204.629,144.248,185.774,144.248z M185.774,77.485c-17.958,0-32.568,14.61-32.568,32.568s14.61,32.568,32.568,32.568
		c17.958,0,32.568-14.61,32.568-32.568S203.732,77.485,185.774,77.485z M84.896,144.248c-18.855,0-34.194-15.339-34.194-34.194
		s15.339-34.194,34.194-34.194s34.194,15.339,34.194,34.194S103.75,144.248,84.896,144.248z M84.896,77.485
		c-17.958,0-32.568,14.61-32.568,32.568s14.61,32.568,32.568,32.568c17.958,0,32.568-14.61,32.568-32.568
		S102.854,77.485,84.896,77.485z"/>
</g>
<g>
	<path fill-rule="evenodd" clip-rule="evenodd" fill="#0078CC" d="M122.177,37.972c0,3.633,1.473,6.923,3.854,9.304
		c2.381,2.381,5.67,3.854,9.304,3.854c3.633,0,6.923-1.473,9.304-3.854c2.381-2.381,3.854-5.67,3.854-9.304
		c0-3.633-1.473-6.923-3.854-9.304c-2.381-2.381-5.67-3.854-9.304-3.854c-3.633,0-6.923,1.473-9.304,3.854
		C123.65,31.049,122.177,34.338,122.177,37.972z"/>
</g>
<g>
	<path d="M135.335,51.332c-3.569,0-6.924-1.39-9.448-3.913c-2.523-2.523-3.913-5.879-3.913-9.448c0-3.569,1.39-6.924,3.913-9.448
		c2.524-2.523,5.879-3.913,9.448-3.913c3.569,0,6.924,1.39,9.447,3.913c2.524,2.523,3.913,5.879,3.913,9.448
		s-1.39,6.924-3.913,9.448C142.259,49.943,138.904,51.332,135.335,51.332z M135.335,25.017c-3.46,0-6.713,1.347-9.16,3.794
		c-2.447,2.447-3.794,5.7-3.794,9.16c0,3.46,1.347,6.713,3.794,9.16c2.447,2.447,5.7,3.794,9.16,3.794s6.713-1.347,9.16-3.794
		c2.447-2.447,3.794-5.7,3.794-9.16c0-3.46-1.347-6.714-3.794-9.16C142.048,26.365,138.795,25.017,135.335,25.017z"/>
</g>
</svg>
