<?xml version="1.0" encoding="utf-8"?>
<!-- Generator: Adobe Illustrator 20.0.0, SVG Export Plug-In . SVG Version: 6.00 Build 0)  -->
<svg version="1.1" id="Layer_1" xmlns="http://www.w3.org/2000/svg" xmlns:xlink="http://www.w3.org/1999/xlink" x="0px" y="0px"
	 viewBox="0 0 1086.54 1077.77" style="enable-background:new 0 0 1086.54 1077.77;" xml:space="preserve" xmlns:pulse="-">
<style type="text/css">
	.st0{fill:#1A1A18;}
	.st1{fill-rule:evenodd;clip-rule:evenodd;fill:#000000;}
</style>
<path class="st0" d="M550.01,502.75h-11.03c-28.16,0-51.07-22.91-51.07-51.07V299.85c0-28.16,22.91-51.07,51.07-51.07h11.03
	c28.16,0,51.07,22.91,51.07,51.07v151.84C601.08,479.85,578.17,502.75,550.01,502.75 M538.98,255.87
	c-24.25,0-43.98,19.73-43.98,43.98v151.84c0,24.25,19.73,43.98,43.98,43.98h11.03c24.25,0,43.98-19.73,43.98-43.98V299.85
	c0-24.25-19.73-43.98-43.98-43.98H538.98z"/>
<path class="st0" d="M544.5,327.3c-15.71,0-28.49-12.78-28.49-28.49c0-15.71,12.78-28.49,28.49-28.49
	c15.71,0,28.49,12.78,28.49,28.49C572.98,314.52,560.2,327.3,544.5,327.3 M544.5,273.87c-13.75,0-24.94,11.19-24.94,24.94
	c0,13.76,11.19,24.95,24.94,24.95c13.75,0,24.94-11.19,24.94-24.95C569.44,285.06,558.25,273.87,544.5,273.87"/>
<path class="st0" d="M544.5,472.65c-15.71,0-28.49-12.78-28.49-28.49c0-15.71,12.78-28.49,28.49-28.49
	c15.71,0,28.49,12.78,28.49,28.49C572.98,459.87,560.2,472.65,544.5,472.65 M544.5,419.22c-13.75,0-24.94,11.19-24.94,24.95
	c0,13.75,11.19,24.94,24.94,24.94c13.75,0,24.94-11.19,24.94-24.94C569.44,430.41,558.25,419.22,544.5,419.22"/>
<path d="M981.59,144.88l-2.5-2.61l-9.15,9.15c-1.99,1.99-4.65,3.08-7.49,3.08c-2.84,0-5.5-1.09-7.49-3.08l-33.94-33.94
	c-4.13-4.13-4.13-10.85,0-14.98l7.71-7.7l-2.94-2.49C835.69,16.01,771.5,0,733.51,0H353.03c-68.82,0-142.54,50.2-192.28,92.3
	l-2.94,2.49l7.71,7.71c1.99,1.99,3.09,4.65,3.09,7.49c0,2.84-1.1,5.5-3.09,7.49l-33.94,33.94c-4.13,4.13-10.85,4.13-14.98,0
	l-9.14-9.15l-2.5,2.61C44.14,208.26,0,275.7,0,305.24v470.79c0,29.78,44.53,97.64,105.89,161.35l2.51,2.6l8.21-8.21
	c1.99-1.99,4.65-3.09,7.49-3.09c2.84,0,5.5,1.1,7.49,3.09l33.94,33.94c1.99,1.99,3.09,4.65,3.09,7.49c0,2.84-1.1,5.5-3.09,7.49
	l-6.68,6.68l2.95,2.49c39.39,33.21,98.81,75.41,158.27,87.83l0.36,0.07h445.7l0.36-0.07c59.46-12.43,118.89-54.62,158.27-87.84
	l2.95-2.49l-6.68-6.68c-4.13-4.13-4.13-10.85,0-14.98l33.94-33.94c1.99-1.99,4.65-3.09,7.49-3.09c2.84,0,5.5,1.1,7.49,3.09
	l8.21,8.21l2.51-2.6c61.35-63.72,105.89-131.58,105.89-161.35V305.24C1086.54,275.7,1042.4,208.26,981.59,144.88 M1079.46,776.03
	c0,23.23-35.52,84.79-101.41,153.83l-3.1-3.1c-3.33-3.33-7.77-5.16-12.5-5.16c-4.73,0-9.17,1.83-12.5,5.16l-33.94,33.94
	c-6.89,6.89-6.89,18.11,0,25l1.22,1.22c-38.65,32.2-95.41,71.85-151.84,83.76H321.15c-56.43-11.91-113.18-51.56-151.84-83.76
	l1.22-1.22c3.33-3.33,5.16-7.77,5.16-12.5c0-4.73-1.83-9.17-5.16-12.5l-33.94-33.94c-3.33-3.33-7.77-5.16-12.5-5.16
	c-4.73,0-9.17,1.83-12.5,5.16l-3.1,3.1C42.6,860.83,7.09,799.27,7.09,776.03V305.24c0-27.05,43.02-92.38,100.49-152.85l4.02,4.02
	c6.89,6.89,18.11,6.89,25,0l33.94-33.94c3.33-3.33,5.16-7.77,5.16-12.5c0-4.73-1.83-9.17-5.16-12.5l-2.25-2.26
	c31.44-26.31,62.25-47.2,91.63-62.1c34.06-17.28,65.39-26.04,93.12-26.04h380.48c27.73,0,59.06,8.76,93.12,26.04
	c29.38,14.91,60.19,35.79,91.63,62.1l-2.26,2.26c-6.89,6.89-6.89,18.11,0,25l33.94,33.94c3.33,3.33,7.77,5.16,12.5,5.16
	c4.73,0,9.17-1.83,12.5-5.16l4.02-4.02c57.46,60.47,100.49,125.8,100.49,152.85V776.03z"/>
<path d="M741.83,54.43c-62.89-27.34-129.7-41.2-198.56-41.2S407.6,27.09,344.71,54.43c-60.73,26.4-115.26,64.19-162.09,112.32
	C135.81,214.87,99.05,270.9,73.38,333.29C46.8,397.87,33.33,466.46,33.33,537.17s13.47,139.3,40.05,203.88
	c25.67,62.39,62.43,118.42,109.24,166.53c46.83,48.13,101.36,85.92,162.09,112.32c62.89,27.34,129.7,41.2,198.56,41.2
	s135.67-13.86,198.56-41.2c60.73-26.4,115.27-64.19,162.09-112.32c46.81-48.12,83.57-104.15,109.24-166.53
	c26.58-64.58,40.05-133.17,40.05-203.88s-13.47-139.3-40.05-203.88c-25.67-62.39-62.43-118.42-109.24-166.53
	C857.1,118.63,802.56,80.83,741.83,54.43 M1031.12,445.77h-55.07c-6.76,0-12.29,5.53-12.29,12.29c0,6.76,5.53,12.29,12.29,12.29
	h58.79c0.5,3.91,0.95,7.83,1.36,11.75h-60.14c-6.76,0-12.29,5.53-12.29,12.29s5.53,12.29,12.29,12.29h62.12
	c0.22,3.91,0.41,7.83,0.54,11.76h-62.66c-6.76,0-12.29,5.53-12.29,12.29c0,6.76,5.53,12.29,12.29,12.29H1039
	c-0.05,4.82-0.17,9.63-0.35,14.43h-62.61c-6.76,0-12.29,5.53-12.29,12.29c0,6.76,5.53,12.29,12.29,12.29h61.11
	c-0.33,3.93-0.71,7.84-1.13,11.75h-59.98c-6.76,0-12.29,5.53-12.29,12.29c0,6.76,5.53,12.29,12.29,12.29h56.76
	c-0.61,3.93-1.27,7.85-1.97,11.76h-54.79c-6.76,0-12.29,5.53-12.29,12.29c0,6.76,5.53,12.29,12.29,12.29h49.77
	c-0.9,3.93-1.85,7.85-2.85,11.76h-46.93c-6.76,0-12.29,5.53-12.29,12.29c0,6.76,5.53,12.29,12.29,12.29h40.01
	c-4.64,15.07-9.97,29.94-16.01,44.61c-24.98,60.71-60.74,115.23-106.29,162.04c-45.53,46.8-98.55,83.55-157.58,109.21
	c-61.1,26.56-126,40.03-192.91,40.03c-66.91,0-131.81-13.47-192.91-40.03c-59.03-25.66-112.05-62.41-157.58-109.21
	c-45.55-46.82-81.31-101.34-106.29-162.04c-6.03-14.66-11.36-29.54-16.01-44.61h39.97c6.76,0,12.29-5.53,12.29-12.29
	c0-6.76-5.53-12.29-12.29-12.29H63.57c-0.99-3.91-1.94-7.83-2.85-11.76h49.72c6.76,0,12.29-5.53,12.29-12.29
	c0-6.76-5.53-12.29-12.29-12.29H55.7c-0.7-3.91-1.36-7.83-1.97-11.76h56.71c6.76,0,12.29-5.53,12.29-12.29
	c0-6.76-5.53-12.29-12.29-12.29H50.51c-0.42-3.91-0.8-7.83-1.13-11.75h61.06c6.76,0,12.29-5.53,12.29-12.29
	c0-6.76-5.53-12.29-12.29-12.29H47.89c-0.18-4.8-0.3-9.61-0.35-14.43h62.91c6.76,0,12.29-5.53,12.29-12.29
	c0-6.76-5.53-12.29-12.29-12.29H47.83c0.14-3.93,0.32-7.84,0.54-11.76h62.07c6.76,0,12.29-5.53,12.29-12.29s-5.53-12.29-12.29-12.29
	H50.35c0.35-3.33,0.72-6.66,1.13-9.98h58.96c7.75,0,14.06-6.31,14.06-14.06c0-7.75-6.31-14.06-14.06-14.06H55.74
	c6.47-36.06,16.73-71.26,30.75-105.32c24.98-60.71,60.74-115.23,106.29-162.04c45.54-46.8,98.55-83.55,157.58-109.21
	c61.1-26.56,126-40.03,192.91-40.03c66.91,0,131.81,13.47,192.91,40.03c59.03,25.66,112.05,62.41,157.58,109.21
	c45.55,46.82,81.31,101.34,106.29,162.04C1014.3,373.29,1024.67,409.09,1031.12,445.77"/>
<path d="M405.93,928.55c0,28.88,23.49,52.37,52.37,52.37h63.41V876.18H458.3C429.42,876.18,405.93,899.67,405.93,928.55
	 M514.62,973.84H458.3c-24.97,0-45.28-20.32-45.28-45.29c0-24.97,20.31-45.28,45.28-45.28h56.32V973.84z"/>
<path d="M631.53,876.18h-65.96v104.74h65.96c28.88,0,52.37-23.49,52.37-52.37C683.9,899.67,660.41,876.18,631.53,876.18
	 M631.53,973.84h-58.87v-90.57h58.87c24.97,0,45.28,20.31,45.28,45.28C676.82,953.52,656.5,973.84,631.53,973.84"/>
<path pulse:initial="true" class="st1" d="M544.5,273.82c13.8,0,24.99,11.19,24.99,24.99c0,13.8-11.19,24.99-24.99,24.99c-13.8,0-24.99-11.19-24.99-24.99
	C519.51,285.01,530.69,273.82,544.5,273.82"/>
</svg>
