<?xml version="1.0" encoding="utf-8"?>
<!-- Generator: Adobe Illustrator 20.0.0, SVG Export Plug-In . SVG Version: 6.00 Build 0)  -->
<svg version="1.1" xmlns="http://www.w3.org/2000/svg" xmlns:xlink="http://www.w3.org/1999/xlink" x="0px" y="0px"
	 viewBox="0 0 190.8 500" style="enable-background:new 0 0 190.8 500;" xml:space="preserve" xmlns:pulse="-" xmlns:show="-">
<style type="text/css">
	.st0{fill-rule:evenodd;clip-rule:evenodd;}
	.st1{fill-rule:evenodd;clip-rule:evenodd;fill:#0074CC;}
</style>
<g id="Layer_1">
	<g>
		<path class="st0" d="M3.2,495.4 M171.7,353.5H19.2v140.5c0,1,0.3,1.9,0.8,2.7c0.2,0.3,0.4,0.6,0.7,0.9c0.4,0.4,0.9,0.8,1.4,1
			c0.7,0.3,1.4,0.5,2.2,0.5h142.3c0.8,0,1.5-0.2,2.2-0.5c0.5-0.3,1-0.6,1.4-1c0.3-0.3,0.5-0.6,0.7-0.9c0.5-0.8,0.8-1.7,0.8-2.7
			V353.5z M170.5,498.6c-1.1,0.9-2.4,1.4-3.9,1.4H24.3c-1.5,0-2.8-0.5-3.9-1.4H11c-3,0-5.7-1.2-7.7-3.2c-2-2-3.2-4.7-3.2-7.7V11
			c0-3,1.2-5.8,3.2-7.7C5.2,1.2,7.9,0,11,0h168.9c3,0,5.7,1.2,7.7,3.2c2,2,3.2,4.7,3.2,7.7v476.7c0,3-1.2,5.8-3.2,7.7
			c-2,2-4.7,3.2-7.7,3.2H170.5z M20.4,1.9C20.2,2,20.1,2.1,20,2.3c-1.1,1.1-1.8,2.6-1.8,4.3v10.3v0.5V353v0.5v140.5
			c0,1,0.2,1.9,0.6,2.7H11c-2.5,0-4.8-1-6.4-2.7c-1.6-1.6-2.7-3.9-2.7-6.4V11c0-2.5,1-4.7,2.7-6.4C6.2,2.9,8.5,1.9,11,1.9H20.4z
			 M172.6,16.9V6.5c0-1.7-0.7-3.2-1.8-4.3c-0.1-0.1-0.2-0.2-0.4-0.4h9.4c2.5,0,4.8,1,6.4,2.7c1.6,1.6,2.7,3.9,2.7,6.4v476.7
			c0,2.5-1,4.7-2.7,6.4c-1.6,1.6-3.9,2.7-6.4,2.7H172c0.4-0.8,0.6-1.7,0.6-2.7V353.5V353V17.3V16.9z M19.2,16.9V6.5
			c0-1.4,0.6-2.7,1.5-3.6c0.9-0.9,2.2-1.5,3.6-1.5h142.3c1.4,0,2.7,0.6,3.6,1.5s1.5,2.2,1.5,3.6v10.3H19.2z M154.8,196.4H36
			c-1,0-2-0.4-2.7-1.1c-0.7-0.7-1.1-1.6-1.1-2.7V30.4c0-1,0.4-2,1.1-2.7C34,27,35,26.6,36,26.6h118.8c1,0,2,0.4,2.7,1.1
			c0.7,0.7,1.1,1.6,1.1,2.7v162.2c0,1-0.4,2-1.1,2.7C156.8,196,155.8,196.4,154.8,196.4z M136.2,210.2c0-0.9,0.7-1.6,1.6-1.6
			s1.6,0.7,1.6,1.6v3.4c0,0.9-0.7,1.6-1.6,1.6s-1.6-0.7-1.6-1.6V210.2z M127.4,210.2c0-0.9,0.7-1.6,1.6-1.6c0.9,0,1.6,0.7,1.6,1.6
			v3.4c0,0.9-0.7,1.6-1.6,1.6c-0.9,0-1.6-0.7-1.6-1.6V210.2z M131.8,208c0-0.9,0.7-1.6,1.6-1.6c0.9,0,1.6,0.7,1.6,1.6v7.9
			c0,0.9-0.7,1.6-1.6,1.6c-0.9,0-1.6-0.7-1.6-1.6V208z M149.1,214.3v-5.3h3v0.9H150v1.2h1.8v0.9H150v2.2H149.1z M145.6,211.3h0.6
			c0.4,0,0.6,0,0.8-0.1c0.1,0,0.2-0.1,0.3-0.2c0.1-0.1,0.1-0.2,0.1-0.4c0-0.2,0-0.3-0.1-0.4c-0.1-0.1-0.2-0.2-0.3-0.2
			c-0.1,0-0.3,0-0.7,0h-0.7V211.3z M144.8,214.3v-5.3h1.8c0.5,0,0.8,0,1,0.1c0.2,0.1,0.4,0.3,0.5,0.5c0.1,0.2,0.2,0.5,0.2,0.8
			c0,0.4-0.1,0.7-0.3,1c-0.2,0.3-0.5,0.4-0.8,0.5c0.2,0.1,0.3,0.3,0.5,0.4c0.1,0.2,0.3,0.4,0.5,0.9l0.5,1h-1l-0.6-1.1
			c-0.2-0.4-0.4-0.7-0.5-0.8c-0.1-0.1-0.2-0.2-0.3-0.2c-0.1,0-0.2-0.1-0.4-0.1h-0.2v2.2H144.8z M119.6,214.2V209h0.9v4.3h2.2v0.9
			H119.6z M115.6,211.6c0,0.6,0.1,1.1,0.3,1.4c0.2,0.3,0.5,0.5,0.9,0.5c0.3,0,0.6-0.1,0.9-0.4c0.2-0.3,0.3-0.8,0.3-1.4
			c0-0.6-0.1-1.1-0.3-1.3c-0.2-0.3-0.5-0.4-0.9-0.4c-0.4,0-0.6,0.1-0.9,0.4C115.7,210.5,115.6,211,115.6,211.6z M114.7,211.6
			c0-0.6,0.1-1.1,0.3-1.5c0.2-0.4,0.4-0.7,0.7-0.9c0.3-0.2,0.7-0.3,1.1-0.3c0.6,0,1.1,0.2,1.5,0.7c0.4,0.5,0.6,1.1,0.6,2
			c0,0.9-0.2,1.6-0.6,2.1c-0.4,0.4-0.9,0.7-1.5,0.7c-0.6,0-1.1-0.2-1.5-0.6C114.9,213.2,114.7,212.5,114.7,211.6z M111.4,211.2h0.6
			c0.4,0,0.6,0,0.8-0.1c0.1,0,0.2-0.1,0.3-0.2c0.1-0.1,0.1-0.2,0.1-0.4c0-0.2,0-0.3-0.1-0.4c-0.1-0.1-0.2-0.2-0.3-0.2
			c-0.1,0-0.3,0-0.7,0h-0.7V211.2z M110.6,214.2V209h1.8c0.5,0,0.8,0,1,0.1c0.2,0.1,0.4,0.3,0.5,0.5c0.1,0.2,0.2,0.5,0.2,0.8
			c0,0.4-0.1,0.7-0.3,1c-0.2,0.3-0.5,0.4-0.8,0.5c0.2,0.1,0.3,0.3,0.5,0.4c0.1,0.2,0.3,0.4,0.5,0.9l0.5,1h-1l-0.6-1.1
			c-0.2-0.4-0.4-0.7-0.5-0.8c-0.1-0.1-0.2-0.2-0.3-0.2c-0.1,0-0.2-0.1-0.4-0.1h-0.2v2.2H110.6z M107.9,214.2v-4.4h-1.3V209h3.4v0.9
			h-1.3v4.4H107.9z M102.6,214.2V209h0.8l1.8,3.5V209h0.8v5.3h-0.9l-1.7-3.4v3.4H102.6z M98.6,211.6c0,0.6,0.1,1.1,0.3,1.4
			c0.2,0.3,0.5,0.5,0.9,0.5c0.3,0,0.6-0.1,0.9-0.4c0.2-0.3,0.3-0.8,0.3-1.4c0-0.6-0.1-1.1-0.3-1.3c-0.2-0.3-0.5-0.4-0.9-0.4
			c-0.4,0-0.6,0.1-0.9,0.4C98.7,210.5,98.6,211,98.6,211.6z M97.7,211.6c0-0.6,0.1-1.1,0.3-1.5c0.2-0.4,0.4-0.7,0.7-0.9
			c0.3-0.2,0.7-0.3,1.1-0.3c0.6,0,1.1,0.2,1.5,0.7c0.4,0.5,0.6,1.1,0.6,2c0,0.9-0.2,1.6-0.6,2.1c-0.4,0.4-0.9,0.7-1.5,0.7
			c-0.6,0-1.1-0.2-1.5-0.6C97.9,213.2,97.7,212.5,97.7,211.6z M96.3,212.3l0.8,0.3c-0.1,0.6-0.4,1-0.7,1.3c-0.3,0.3-0.7,0.4-1.1,0.4
			c-0.6,0-1-0.2-1.4-0.6c-0.4-0.5-0.6-1.2-0.6-2c0-0.9,0.2-1.6,0.6-2.1c0.4-0.4,0.8-0.7,1.4-0.7c0.5,0,0.9,0.2,1.2,0.5
			c0.2,0.2,0.4,0.6,0.5,1l-0.9,0.3c-0.1-0.3-0.2-0.5-0.3-0.7c-0.2-0.2-0.4-0.2-0.6-0.2c-0.3,0-0.6,0.1-0.8,0.4
			c-0.2,0.3-0.3,0.7-0.3,1.4c0,0.7,0.1,1.1,0.3,1.4c0.2,0.3,0.4,0.4,0.8,0.4c0.2,0,0.4-0.1,0.6-0.3C96.1,213,96.2,212.7,96.3,212.3z
			 M88.4,211.2H89c0.4,0,0.6,0,0.8-0.1c0.1,0,0.2-0.1,0.3-0.2c0.1-0.1,0.1-0.2,0.1-0.4c0-0.2,0-0.3-0.1-0.4
			c-0.1-0.1-0.2-0.2-0.3-0.2c-0.1,0-0.3,0-0.7,0h-0.7V211.2z M87.5,214.2V209h1.8c0.5,0,0.8,0,1,0.1c0.2,0.1,0.4,0.3,0.5,0.5
			c0.1,0.2,0.2,0.5,0.2,0.8c0,0.4-0.1,0.7-0.3,1c-0.2,0.3-0.5,0.4-0.8,0.5c0.2,0.1,0.3,0.3,0.5,0.4c0.1,0.2,0.3,0.4,0.5,0.9l0.5,1
			h-1l-0.6-1.1c-0.2-0.4-0.4-0.7-0.5-0.8c-0.1-0.1-0.2-0.2-0.3-0.2c-0.1,0-0.2-0.1-0.4-0.1h-0.2v2.2H87.5z M83.5,214.2V209h3.2v0.9
			h-2.3v1.2h2.2v0.9h-2.2v1.4h2.4v0.9H83.5z M78.5,214.2V209h1.3l0.8,3.6l0.8-3.6h1.3v5.3h-0.8v-4.1l-0.9,4.1h-0.8l-0.9-4.1v4.1
			H78.5z M76.8,214.2V209h0.9v5.3H76.8z M74.1,214.2v-4.4h-1.3V209h3.4v0.9H75v4.4H74.1z M67.2,212.5l0.8-0.1c0.1,0.7,0.4,1,0.9,1
			c0.3,0,0.5-0.1,0.6-0.2c0.2-0.1,0.2-0.3,0.2-0.5c0-0.1,0-0.2-0.1-0.3c-0.1-0.1-0.1-0.2-0.2-0.2c-0.1-0.1-0.4-0.1-0.8-0.3
			c-0.4-0.1-0.6-0.2-0.8-0.4c-0.2-0.1-0.3-0.3-0.4-0.5c-0.1-0.2-0.2-0.4-0.2-0.7c0-0.3,0.1-0.5,0.2-0.8c0.1-0.2,0.3-0.4,0.5-0.5
			c0.2-0.1,0.5-0.2,0.9-0.2c0.5,0,0.9,0.1,1.2,0.4c0.3,0.3,0.4,0.7,0.5,1.2l-0.9,0c0-0.3-0.1-0.5-0.2-0.6c-0.1-0.1-0.3-0.2-0.5-0.2
			c-0.2,0-0.4,0-0.5,0.1c-0.1,0.1-0.2,0.2-0.2,0.4c0,0.1,0.1,0.3,0.2,0.4c0.1,0.1,0.4,0.2,0.8,0.3c0.4,0.1,0.8,0.3,0.9,0.4
			c0.2,0.1,0.3,0.3,0.4,0.5c0.1,0.2,0.2,0.5,0.2,0.8c0,0.5-0.1,0.8-0.4,1.1c-0.3,0.3-0.7,0.5-1.3,0.5
			C67.9,214.3,67.3,213.7,67.2,212.5z M63.2,212.5l0.8-0.1c0.1,0.7,0.4,1,0.9,1c0.3,0,0.5-0.1,0.6-0.2c0.2-0.1,0.2-0.3,0.2-0.5
			c0-0.1,0-0.2-0.1-0.3c-0.1-0.1-0.1-0.2-0.2-0.2c-0.1-0.1-0.4-0.1-0.8-0.3c-0.4-0.1-0.6-0.2-0.8-0.4c-0.2-0.1-0.3-0.3-0.4-0.5
			c-0.1-0.2-0.2-0.4-0.2-0.7c0-0.3,0.1-0.5,0.2-0.8c0.1-0.2,0.3-0.4,0.5-0.5c0.2-0.1,0.5-0.2,0.9-0.2c0.5,0,0.9,0.1,1.2,0.4
			c0.3,0.3,0.4,0.7,0.5,1.2l-0.9,0c0-0.3-0.1-0.5-0.2-0.6c-0.1-0.1-0.3-0.2-0.5-0.2c-0.2,0-0.4,0-0.5,0.1c-0.1,0.1-0.2,0.2-0.2,0.4
			c0,0.1,0.1,0.3,0.2,0.4c0.1,0.1,0.4,0.2,0.8,0.3c0.4,0.1,0.8,0.3,0.9,0.4c0.2,0.1,0.3,0.3,0.4,0.5c0.1,0.2,0.2,0.5,0.2,0.8
			c0,0.5-0.1,0.8-0.4,1.1c-0.3,0.3-0.7,0.5-1.3,0.5C63.9,214.3,63.3,213.7,63.2,212.5z M59.4,214.2V209h3.2v0.9h-2.3v1.2h2.2v0.9
			h-2.2v1.4h2.4v0.9H59.4z M55.7,214.2V209h0.9v4.3h2.2v0.9H55.7z M51.7,214.2V209h3.2v0.9h-2.3v1.2h2.2v0.9h-2.2v1.4H55v0.9H51.7z
			 M48.2,211.2h0.6c0.4,0,0.6,0,0.8-0.1c0.1,0,0.2-0.1,0.3-0.2c0.1-0.1,0.1-0.2,0.1-0.4c0-0.2,0-0.3-0.1-0.4
			c-0.1-0.1-0.2-0.2-0.3-0.2c-0.1,0-0.3,0-0.7,0h-0.7V211.2z M47.4,214.2V209h1.8c0.5,0,0.8,0,1,0.1c0.2,0.1,0.4,0.3,0.5,0.5
			c0.1,0.2,0.2,0.5,0.2,0.8c0,0.4-0.1,0.7-0.3,1c-0.2,0.3-0.5,0.4-0.8,0.5c0.2,0.1,0.3,0.3,0.5,0.4c0.1,0.2,0.3,0.4,0.5,0.9l0.5,1
			h-1l-0.6-1.1c-0.2-0.4-0.4-0.7-0.5-0.8c-0.1-0.1-0.2-0.2-0.3-0.2c-0.1,0-0.2-0.1-0.4-0.1h-0.2v2.2H47.4z M45.7,214.2V209h0.9v5.3
			H45.7z M40.6,214.2l-1-5.3h0.9l0.6,3.6l0.8-3.6h1l0.8,3.7l0.7-3.7h0.9l-1,5.3h-0.9l-0.9-3.9l-0.9,3.9H40.6z M152.8,204.6H38
			c-0.6,0-1.2,0.3-1.6,0.7c-0.4,0.4-0.7,1-0.7,1.6v9.5c0,0.6,0.3,1.2,0.7,1.6v0c0.4,0.4,1,0.7,1.6,0.7h114.9c0.6,0,1.2-0.3,1.6-0.7
			l0,0c0.4-0.4,0.7-1,0.7-1.6v-9.5c0-0.6-0.3-1.2-0.7-1.6h0C154,204.9,153.5,204.6,152.8,204.6z M38,203.3h114.9c1,0,1.8,0.4,2.5,1
			l0,0c0.6,0.6,1,1.5,1,2.5v9.5c0,1-0.4,1.8-1,2.5l0,0c-0.6,0.6-1.5,1-2.5,1H38c-1,0-1.8-0.4-2.5-1l0,0c-0.6-0.6-1-1.5-1-2.5v-9.5
			c0-1,0.4-1.8,1-2.5C36.1,203.7,37,203.3,38,203.3z M57.5,229.3v-6.4h-1.9v-1.3h5.1v1.3h-1.9v6.4H57.5z M53.6,229.3v-7.8h1.3v7.8
			H53.6z M47.2,229.3v-7.8h1.2l2.6,5.2v-5.2h1.2v7.8H51l-2.6-5.1v5.1H47.2z M40.8,221.5H42v4.2c0,0.7,0,1.1,0,1.3
			c0.1,0.3,0.2,0.6,0.4,0.8c0.2,0.2,0.5,0.3,0.9,0.3c0.3,0,0.5-0.1,0.7-0.2c0.2-0.1,0.3-0.3,0.4-0.5c0.1-0.2,0.1-0.7,0.1-1.5v-4.3
			h1.3v4.1c0,1-0.1,1.8-0.2,2.3c-0.1,0.5-0.4,0.8-0.8,1.1c-0.4,0.3-0.9,0.4-1.5,0.4c-0.7,0-1.2-0.1-1.6-0.4c-0.4-0.2-0.6-0.6-0.8-1
			c-0.2-0.4-0.3-1.2-0.3-2.4V221.5z M96.5,229.3v-7.8h1.2l2.6,5.2v-5.2h1.2v7.8h-1.3l-2.6-5.1v5.1H96.5z M90.6,225.4
			c0,0.9,0.2,1.6,0.5,2c0.3,0.4,0.8,0.7,1.3,0.7c0.5,0,0.9-0.2,1.3-0.7c0.3-0.4,0.5-1.1,0.5-2c0-0.9-0.2-1.6-0.5-2
			c-0.3-0.4-0.7-0.6-1.3-0.6c-0.5,0-0.9,0.2-1.3,0.6C90.8,223.8,90.6,224.5,90.6,225.4z M89.3,225.5c0-0.9,0.1-1.7,0.4-2.3
			c0.3-0.6,0.6-1,1.1-1.3c0.4-0.3,1-0.4,1.6-0.4c0.9,0,1.7,0.3,2.2,1c0.6,0.7,0.9,1.7,0.9,3c0,1.3-0.3,2.3-0.9,3
			c-0.5,0.6-1.3,1-2.2,1c-0.9,0-1.6-0.3-2.2-1C89.6,227.7,89.3,226.7,89.3,225.5z M144.5,229.3v-7.8h4.4v1.3h-3.1v1.8h2.7v1.3h-2.7
			v3.3H144.5z M139.1,229.3v-7.8h4.4v1.3h-3.1v1.8h2.7v1.3h-2.7v3.3H139.1z M133.2,225.4c0,0.9,0.2,1.6,0.5,2
			c0.3,0.4,0.8,0.7,1.3,0.7c0.5,0,0.9-0.2,1.3-0.7c0.3-0.4,0.5-1.1,0.5-2c0-0.9-0.2-1.6-0.5-2c-0.3-0.4-0.7-0.6-1.3-0.6
			c-0.5,0-0.9,0.2-1.3,0.6C133.4,223.8,133.2,224.5,133.2,225.4z M131.9,225.5c0-0.9,0.1-1.7,0.4-2.3c0.3-0.6,0.6-1,1.1-1.3
			c0.4-0.3,1-0.4,1.6-0.4c0.9,0,1.7,0.3,2.2,1c0.6,0.7,0.9,1.7,0.9,3c0,1.3-0.3,2.3-0.9,3c-0.5,0.6-1.3,1-2.2,1
			c-0.9,0-1.6-0.3-2.2-1C132.2,227.7,131.9,226.7,131.9,225.5z M141,264.4l4.5,5.9h-9.5L141,264.4z M95.4,270l4.5-5.9h-9.5L95.4,270
			z M59.9,266.6h1c0.6,0,1,0,1.1-0.1c0.2-0.1,0.3-0.2,0.4-0.3c0.1-0.2,0.1-0.4,0.1-0.6c0-0.2,0-0.4-0.1-0.6
			c-0.1-0.1-0.2-0.3-0.4-0.3c-0.1,0-0.5-0.1-1-0.1h-1V266.6z M58.7,271.1v-7.8h2.7c0.7,0,1.2,0.1,1.5,0.2c0.3,0.1,0.5,0.4,0.7,0.7
			c0.2,0.3,0.3,0.8,0.3,1.2c0,0.6-0.1,1.1-0.4,1.5c-0.3,0.4-0.7,0.6-1.2,0.7c0.3,0.2,0.5,0.4,0.7,0.6c0.2,0.2,0.4,0.7,0.7,1.3
			l0.8,1.5h-1.5l-0.9-1.7c-0.3-0.6-0.6-1-0.7-1.1c-0.1-0.2-0.2-0.3-0.4-0.3c-0.1-0.1-0.3-0.1-0.6-0.1h-0.3v3.2H58.7z M52.7,271.1
			v-7.8h4.7v1.3H54v1.7h3.2v1.3H54v2.1h3.6v1.3H52.7z M45.3,271.1v-7.8h1.9l1.2,5.3l1.1-5.3h1.9v7.8h-1.2V265l-1.3,6.1h-1.2
			l-1.3-6.1v6.1H45.3z M42.8,271.1v-7.8h1.3v7.8H42.8z M38.9,271.1v-6.4H37v-1.3H42v1.3h-1.9v6.4H38.9z M128.1,312.2V305v-0.3h0.3
			h1.2h0.3v0.3v7.2v0.3h-0.3h-1.2h-0.3V312.2z M124.6,312.2V305v-0.3h0.3h1.2h0.3v0.3v7.2v0.3h-0.3H125h-0.3V312.2z M132,312.6
			l1.6-8l0.1-0.3h0.3h0.9h0.4l-0.1,0.4l-1.6,8l-0.1,0.3h-0.3h-0.9H132L132,312.6z M138.5,306v5.1h1c0.4,0,0.7,0,0.9-0.1
			c0.2-0.1,0.3-0.2,0.5-0.4c0.1-0.2,0.2-0.4,0.3-0.7c0.1-0.3,0.1-0.8,0.1-1.3c0-0.6,0-1-0.1-1.4c-0.1-0.3-0.2-0.6-0.4-0.8
			c-0.2-0.2-0.4-0.3-0.6-0.4c-0.2,0-0.5-0.1-1-0.1H138.5z M137.2,304.7h2.3c0.6,0,1,0.1,1.3,0.2c0.3,0.1,0.6,0.4,0.8,0.7
			c0.3,0.3,0.5,0.7,0.6,1.2c0.1,0.5,0.2,1.1,0.2,1.9c0,0.7-0.1,1.3-0.2,1.7c-0.2,0.5-0.3,0.9-0.6,1.2c-0.2,0.3-0.5,0.5-0.8,0.7
			c-0.3,0.1-0.8,0.2-1.3,0.2h-2.4V304.7z M143.6,312.5v-7.8h4.7v1.3h-3.4v1.7h3.2v1.3h-3.2v2.1h3.6v1.3H143.6z M149.6,312.5v-7.7
			h1.3v6.4h3.2v1.3H149.6z M154.9,312.5V311h1.2v1.5H154.9z M105.7,307.9h1c0.6,0,1,0,1.1-0.1c0.2-0.1,0.3-0.2,0.4-0.3
			c0.1-0.2,0.1-0.4,0.1-0.6c0-0.2,0-0.4-0.1-0.6c-0.1-0.1-0.2-0.3-0.4-0.3c-0.1,0-0.5-0.1-1-0.1h-1V307.9z M104.4,312.4v-7.8h2.7
			c0.7,0,1.2,0.1,1.5,0.2c0.3,0.1,0.5,0.4,0.7,0.7c0.2,0.3,0.3,0.8,0.3,1.2c0,0.6-0.1,1.1-0.4,1.5c-0.3,0.4-0.7,0.6-1.2,0.7
			c0.3,0.2,0.5,0.4,0.7,0.6c0.2,0.2,0.4,0.7,0.7,1.3l0.8,1.5h-1.5l-0.9-1.7c-0.3-0.6-0.6-1-0.7-1.1c-0.1-0.2-0.2-0.3-0.4-0.3
			c-0.1-0.1-0.3-0.1-0.6-0.1h-0.3v3.2H104.4z M98.5,312.4v-7.8h4.7v1.3h-3.4v1.7h3.2v1.3h-3.2v2.1h3.6v1.3H98.5z M94.5,312.4v-6.4
			h-1.9v-1.3h5.1v1.3h-1.9v6.4H94.5z M86.7,312.4v-7.8h1.2l2.6,5.2v-5.2h1.2v7.8h-1.3l-2.6-5.1v5.1H86.7z M80.7,312.4v-7.8h4.7v1.3
			H82v1.7h3.2v1.3H82v2.1h3.6v1.3H80.7z M60.3,312.2v-7.8h1.3v3.4l2.6-3.4h1.7l-2.4,3l2.5,4.7h-1.7l-1.8-3.6l-1,1.3v2.3H60.3z
			 M57.9,309.4l1.2,0.5c-0.2,0.9-0.5,1.5-1,1.9c-0.5,0.4-1,0.6-1.7,0.6c-0.8,0-1.5-0.3-2-1c-0.6-0.7-0.9-1.7-0.9-3
			c0-1.3,0.3-2.4,0.9-3.1c0.5-0.6,1.2-1,2.1-1c0.7,0,1.3,0.2,1.8,0.7c0.3,0.3,0.6,0.9,0.8,1.5l-1.3,0.4c-0.1-0.4-0.2-0.7-0.5-1
			c-0.2-0.2-0.5-0.3-0.9-0.3c-0.5,0-0.9,0.2-1.1,0.6c-0.3,0.4-0.4,1.1-0.4,2c0,1,0.1,1.7,0.4,2.1c0.3,0.4,0.7,0.6,1.1,0.6
			c0.3,0,0.6-0.1,0.9-0.4C57.6,310.4,57.8,309.9,57.9,309.4z M48,308.3c0,0.9,0.2,1.6,0.5,2c0.3,0.4,0.8,0.7,1.3,0.7
			c0.5,0,0.9-0.2,1.3-0.7c0.3-0.4,0.5-1.1,0.5-2c0-0.9-0.2-1.6-0.5-2c-0.3-0.4-0.7-0.6-1.3-0.6c-0.5,0-0.9,0.2-1.3,0.6
			C48.2,306.8,48,307.4,48,308.3z M46.7,308.4c0-0.9,0.1-1.7,0.4-2.3c0.3-0.6,0.6-1,1.1-1.3c0.4-0.3,1-0.4,1.6-0.4
			c0.9,0,1.7,0.3,2.2,1c0.6,0.7,0.9,1.7,0.9,3c0,1.3-0.3,2.3-0.9,3c-0.5,0.6-1.3,1-2.2,1c-0.9,0-1.6-0.3-2.2-1
			C47,310.7,46.7,309.7,46.7,308.4z M41.5,312.2v-7.7h1.3v6.4H46v1.3H41.5z M39.2,309.4l1.2,0.5c-0.2,0.9-0.5,1.5-1,1.9
			c-0.5,0.4-1,0.6-1.7,0.6c-0.8,0-1.5-0.3-2-1c-0.6-0.7-0.9-1.7-0.9-3c0-1.3,0.3-2.4,0.9-3.1c0.5-0.6,1.2-1,2.1-1
			c0.7,0,1.3,0.2,1.8,0.7c0.3,0.3,0.6,0.9,0.8,1.5l-1.3,0.4c-0.1-0.4-0.2-0.7-0.5-1c-0.2-0.2-0.5-0.3-0.9-0.3
			c-0.5,0-0.9,0.2-1.1,0.6c-0.3,0.4-0.4,1.1-0.4,2c0,1,0.1,1.7,0.4,2.1c0.3,0.4,0.7,0.6,1.1,0.6c0.3,0,0.6-0.1,0.9-0.4
			C38.9,310.4,39.1,309.9,39.2,309.4z M40.8,233.2h18.4c2.4,0,4.6,1,6.2,2.6l0,0c1.6,1.6,2.6,3.8,2.6,6.2c0,2.4-1,4.6-2.6,6.2l0,0
			c-1.6,1.6-3.8,2.6-6.2,2.6H40.8c-2.4,0-4.6-1-6.2-2.6l0,0c-1.6-1.6-2.6-3.8-2.6-6.2c0-2.4,1-4.6,2.6-6.2l0,0
			C36.2,234.1,38.4,233.2,40.8,233.2z M86.2,233.2h18.4c2.4,0,4.6,1,6.2,2.6l0,0c1.6,1.6,2.6,3.8,2.6,6.2c0,2.4-1,4.6-2.6,6.2l0,0
			c-1.6,1.6-3.8,2.6-6.2,2.6H86.2c-2.4,0-4.6-1-6.2-2.6l0,0c-1.6-1.6-2.6-3.8-2.6-6.2c0-2.4,1-4.6,2.6-6.2l0,0
			C81.6,234.1,83.8,233.2,86.2,233.2z M131.6,233.2H150c2.4,0,4.6,1,6.2,2.6l0,0c1.6,1.6,2.6,3.8,2.6,6.2c0,2.4-1,4.6-2.6,6.2l0,0
			c-1.6,1.6-3.8,2.6-6.2,2.6h-18.4c-2.4,0-4.6-1-6.2-2.6l0,0c-1.6-1.6-2.6-3.8-2.6-6.2c0-2.4,1-4.6,2.6-6.2l0,0
			C127,234.1,129.2,233.2,131.6,233.2z M40.8,274.9h18.4c2.4,0,4.6,1,6.2,2.6l0,0c1.6,1.6,2.6,3.8,2.6,6.2s-1,4.6-2.6,6.2l0,0
			c-1.6,1.6-3.8,2.6-6.2,2.6H40.8c-2.4,0-4.6-1-6.2-2.6l0,0c-1.6-1.6-2.6-3.8-2.6-6.2s1-4.6,2.6-6.2l0,0
			C36.2,275.9,38.4,274.9,40.8,274.9z M86.2,274.9h18.4c2.4,0,4.6,1,6.2,2.6l0,0c1.6,1.6,2.6,3.8,2.6,6.2s-1,4.6-2.6,6.2l0,0
			c-1.6,1.6-3.8,2.6-6.2,2.6H86.2c-2.4,0-4.6-1-6.2-2.6l0,0c-1.6-1.6-2.6-3.8-2.6-6.2s1-4.6,2.6-6.2l0,0
			C81.6,275.9,83.8,274.9,86.2,274.9z M131.6,274.9H150c2.4,0,4.6,1,6.2,2.6l0,0c1.6,1.6,2.6,3.8,2.6,6.2s-1,4.6-2.6,6.2l0,0
			c-1.6,1.6-3.8,2.6-6.2,2.6h-18.4c-2.4,0-4.6-1-6.2-2.6l0,0c-1.6-1.6-2.6-3.8-2.6-6.2s1-4.6,2.6-6.2l0,0
			C127,275.9,129.2,274.9,131.6,274.9z M40.8,316.7h18.4c2.4,0,4.6,1,6.2,2.6l0,0c1.6,1.6,2.6,3.8,2.6,6.2c0,2.4-1,4.6-2.6,6.2l0,0
			c-1.6,1.6-3.8,2.6-6.2,2.6H40.8c-2.4,0-4.6-1-6.2-2.6l0,0c-1.6-1.6-2.6-3.8-2.6-6.2c0-2.4,1-4.6,2.6-6.2l0,0
			C36.2,317.7,38.4,316.7,40.8,316.7z M86.2,316.7h18.4c2.4,0,4.6,1,6.2,2.6l0,0c1.6,1.6,2.6,3.8,2.6,6.2c0,2.4-1,4.6-2.6,6.2l0,0
			c-1.6,1.6-3.8,2.6-6.2,2.6H86.2c-2.4,0-4.6-1-6.2-2.6l0,0c-1.6-1.6-2.6-3.8-2.6-6.2c0-2.4,1-4.6,2.6-6.2l0,0
			C81.6,317.7,83.8,316.7,86.2,316.7z M131.6,316.7H150c2.4,0,4.6,1,6.2,2.6l0,0c1.6,1.6,2.6,3.8,2.6,6.2c0,2.4-1,4.6-2.6,6.2l0,0
			c-1.6,1.6-3.8,2.6-6.2,2.6h-18.4c-2.4,0-4.6-1-6.2-2.6l0,0c-1.6-1.6-2.6-3.8-2.6-6.2c0-2.4,1-4.6,2.6-6.2l0,0
			C127,317.7,129.2,316.7,131.6,316.7z"/>
	</g>
	<g>
		<path d="M40.8,250h18.4c1.1,0,2.1-0.2,3.1-0.6c1-0.4,1.9-1,2.6-1.8c0.7-0.7,1.4-1.6,1.8-2.6c0.4-1,0.6-2,0.6-3.1
			c0-1.1-0.2-2.1-0.6-3.1c-0.4-1-1-1.9-1.8-2.6l0,0c-0.7-0.7-1.6-1.4-2.6-1.8c-0.9-0.4-2-0.6-3.1-0.6H40.8c-1.1,0-2.1,0.2-3.1,0.6
			c-1,0.4-1.9,1-2.6,1.8c-0.7,0.7-1.4,1.6-1.8,2.6c-0.4,1-0.6,2-0.6,3.1c0,1.1,0.2,2.1,0.6,3.1c0.4,1,1,1.9,1.8,2.6l0,0
			c0.7,0.7,1.6,1.4,2.6,1.8C38.7,249.8,39.7,250,40.8,250"/>
	</g>
	<g>
		<path pulse:state="1" d="M78.3,241.9c0,1.1,0.2,2.1,0.6,3c0.4,1,1,1.8,1.7,2.6c0.7,0.7,1.6,1.3,2.6,1.7c0.9,0.4,2,0.6,3,0.6h18.4
			c1.1,0,2.1-0.2,3-0.6c1-0.4,1.8-1,2.6-1.7c0.7-0.7,1.3-1.6,1.7-2.6c0.4-0.9,0.6-2,0.6-3s-0.2-2.1-0.6-3c-0.4-1-1-1.8-1.7-2.6
			c-0.7-0.7-1.6-1.3-2.6-1.7c-0.9-0.4-2-0.6-3-0.6H86.2c-1.1,0-2.1,0.2-3,0.6c-1,0.4-1.8,1-2.6,1.7c-0.7,0.7-1.3,1.6-1.7,2.6
			C78.5,239.8,78.3,240.8,78.3,241.9"/>
	</g>
	<g>
		<path pulse:state="0" d="M123.6,241.9c0,1.1,0.2,2.1,0.6,3c0.4,1,1,1.8,1.7,2.6c0.7,0.7,1.6,1.3,2.6,1.7c0.9,0.4,2,0.6,3,0.6H150
			c1.1,0,2.1-0.2,3-0.6c1-0.4,1.8-1,2.6-1.7c0.7-0.7,1.3-1.6,1.7-2.6c0.4-0.9,0.6-2,0.6-3s-0.2-2.1-0.6-3c-0.4-1-1-1.8-1.7-2.6
			c-0.7-0.7-1.6-1.3-2.6-1.7c-0.9-0.4-2-0.6-3-0.6h-18.4c-1.1,0-2.1,0.2-3,0.6c-1,0.4-1.8,1-2.6,1.7c-0.7,0.7-1.3,1.6-1.7,2.6
			C123.9,239.8,123.6,240.8,123.6,241.9"/>
	</g>
	<g>
		<path d="M67.2,283.7c0-1.1-0.2-2.1-0.6-3c-0.4-1-1-1.8-1.7-2.6c-0.7-0.7-1.6-1.3-2.6-1.7c-0.9-0.4-2-0.6-3-0.6H40.8
			c-1.1,0-2.1,0.2-3,0.6c-1,0.4-1.8,1-2.6,1.7c-0.7,0.7-1.3,1.6-1.7,2.6c-0.4,0.9-0.6,2-0.6,3c0,1.1,0.2,2.1,0.6,3
			c0.4,1,1,1.8,1.7,2.6c0.7,0.7,1.6,1.3,2.6,1.7c0.9,0.4,2,0.6,3,0.6h18.4c1.1,0,2.1-0.2,3-0.6c1-0.4,1.8-1,2.6-1.7
			c0.7-0.7,1.3-1.6,1.7-2.6C67,285.8,67.2,284.8,67.2,283.7"/>
	</g>
	<g>
		<path d="M80.6,278.1c-0.7,0.7-1.3,1.6-1.7,2.6c-0.4,0.9-0.6,2-0.6,3c0,1.1,0.2,2.1,0.6,3c0.4,1,1,1.8,1.7,2.6
			c0.7,0.7,1.6,1.3,2.6,1.7c0.9,0.4,2,0.6,3,0.6h18.4c1.1,0,2.1-0.2,3-0.6c1-0.4,1.8-1,2.6-1.7c0.7-0.7,1.3-1.6,1.7-2.6
			c0.4-0.9,0.6-2,0.6-3c0-1.1-0.2-2.1-0.6-3c-0.4-1-1-1.8-1.7-2.6c-0.7-0.7-1.6-1.3-2.6-1.7c-0.9-0.4-2-0.6-3-0.6H86.2
			c-1.1,0-2.1,0.2-3,0.6C82.2,276.7,81.3,277.3,80.6,278.1"/>
	</g>
	<g>
		<path d="M126,278.1c-0.7,0.7-1.3,1.6-1.7,2.6c-0.4,0.9-0.6,2-0.6,3c0,1.1,0.2,2.1,0.6,3c0.4,1,1,1.8,1.7,2.6
			c0.7,0.7,1.6,1.3,2.6,1.7c0.9,0.4,2,0.6,3,0.6H150c1.1,0,2.1-0.2,3-0.6c1-0.4,1.8-1,2.6-1.7c0.7-0.7,1.3-1.6,1.7-2.6
			c0.4-0.9,0.6-2,0.6-3c0-1.1-0.2-2.1-0.6-3c-0.4-1-1-1.8-1.7-2.6c-0.7-0.7-1.6-1.3-2.6-1.7c-0.9-0.4-2-0.6-3-0.6h-18.4
			c-1.1,0-2.1,0.2-3,0.6C127.6,276.7,126.7,277.3,126,278.1"/>
	</g>
	<g>
		<path d="M150,317.5h-18.4c-1.1,0-2.1,0.2-3,0.6c-1,0.4-1.8,1-2.6,1.7c-0.7,0.7-1.3,1.6-1.7,2.6c-0.4,0.9-0.6,2-0.6,3
			c0,1.1,0.2,2.1,0.6,3c0.4,1,1,1.8,1.7,2.6c0.7,0.7,1.6,1.3,2.6,1.7c0.9,0.4,2,0.6,3,0.6H150c1.1,0,2.1-0.2,3-0.6
			c1-0.4,1.8-1,2.6-1.7c0.7-0.7,1.3-1.6,1.7-2.6c0.4-0.9,0.6-2,0.6-3c0-1.1-0.2-2.1-0.6-3c-0.4-1-1-1.8-1.7-2.6
			c-0.7-0.7-1.6-1.3-2.6-1.7C152.1,317.7,151.1,317.5,150,317.5"/>
	</g>
	<g>
		<path d="M112.6,325.5c0-1.1-0.2-2.1-0.6-3c-0.4-1-1-1.8-1.7-2.6c-0.7-0.7-1.6-1.3-2.6-1.7c-0.9-0.4-2-0.6-3-0.6H86.2
			c-1.1,0-2.1,0.2-3,0.6c-1,0.4-1.8,1-2.6,1.7c-0.7,0.7-1.3,1.6-1.7,2.6c-0.4,0.9-0.6,2-0.6,3c0,1.1,0.2,2.1,0.6,3
			c0.4,1,1,1.8,1.7,2.6c0.7,0.7,1.6,1.3,2.6,1.7c0.9,0.4,2,0.6,3,0.6h18.4c1.1,0,2.1-0.2,3-0.6c1-0.4,1.8-1,2.6-1.7
			c0.7-0.7,1.3-1.6,1.7-2.6C112.4,327.6,112.6,326.5,112.6,325.5"/>
	</g>
	<g>
		<path d="M64.9,331.1c0.7-0.7,1.3-1.6,1.7-2.6c0.4-0.9,0.6-2,0.6-3c0-1.1-0.2-2.1-0.6-3c-0.4-1-1-1.8-1.7-2.6
			c-0.7-0.7-1.6-1.3-2.6-1.7c-0.9-0.4-2-0.6-3-0.6H40.8c-1.1,0-2.1,0.2-3,0.6c-1,0.4-1.8,1-2.6,1.7c-0.7,0.7-1.3,1.6-1.7,2.6
			c-0.4,0.9-0.6,2-0.6,3c0,1.1,0.2,2.1,0.6,3c0.4,1,1,1.8,1.7,2.6c0.7,0.7,1.6,1.3,2.6,1.7c0.9,0.4,2,0.6,3,0.6h18.4
			c1.1,0,2.1-0.2,3-0.6C63.2,332.4,64.1,331.8,64.9,331.1"/>
	</g>
	<g>
		<path d="M126,108.9h11.8c0.1,0,0.7,0.6,1.7,1.6c-1,1.1-1.6,1.6-1.7,1.6H126c-0.1,0-0.7-0.6-1.7-1.6
			C125.3,109.5,125.9,108.9,126,108.9"/>
	</g>
	<g>
		<path d="M140.3,96.5c1.2,0.9,1.8,1.4,1.8,1.5v10.3c0,0.1-0.6,0.6-1.8,1.5c-1.2-0.9-1.8-1.4-1.8-1.5V98
			C138.5,97.9,139.1,97.4,140.3,96.5"/>
	</g>
	<g>
		<path d="M123.6,96.4c1.2,0.9,1.8,1.4,1.8,1.5v10.3c0,0.1-0.6,0.6-1.8,1.5c-1.2-0.9-1.8-1.4-1.8-1.5V97.9
			C121.8,97.8,122.4,97.3,123.6,96.4"/>
	</g>
	<g>
		<path d="M125.9,94.2H138c0.5,0.4,1,1,1.6,1.6c-0.6,0.6-1.1,1.2-1.6,1.6h-12.1c-0.5-0.4-1-1-1.6-1.6
			C124.9,95.2,125.4,94.6,125.9,94.2"/>
	</g>
	<g>
		<path d="M140.3,81.7c1.2,0.9,1.8,1.4,1.8,1.5v10.3c0,0.1-0.6,0.6-1.8,1.5c-1.2-0.9-1.8-1.4-1.8-1.5V83.2
			C138.5,83.1,139.1,82.6,140.3,81.7"/>
	</g>
	<g>
		<path d="M123.6,81.7c1.2,0.9,1.8,1.4,1.8,1.5v10.3c0,0.1-0.6,0.6-1.8,1.5c-1.2-0.9-1.8-1.4-1.8-1.5V83.2
			C121.8,83.1,122.4,82.6,123.6,81.7"/>
	</g>
	<g>
		<path d="M126,79.4h11.8c0.1,0,0.7,0.6,1.7,1.6c-1,1.1-1.6,1.6-1.7,1.6H126c-0.1,0-0.7-0.6-1.7-1.6C125.3,80,125.9,79.4,126,79.4"
			/>
	</g>
	<g>
		<path d="M102.6,108.9h11.8c0.1,0,0.7,0.6,1.7,1.6c-1,1.1-1.6,1.6-1.7,1.6h-11.8c-0.1,0-0.7-0.6-1.7-1.6
			C101.9,109.5,102.5,108.9,102.6,108.9"/>
	</g>
	<g>
		<path d="M116.9,96.5c1.2,0.9,1.8,1.4,1.8,1.5v10.3c0,0.1-0.6,0.6-1.8,1.5c-1.2-0.9-1.8-1.4-1.8-1.5V98
			C115.1,97.9,115.7,97.4,116.9,96.5"/>
	</g>
	<g>
		<path d="M102.6,94.2h11.8c0.1,0,0.7,0.6,1.7,1.6c-1,1.1-1.6,1.6-1.7,1.6h-11.8c-0.1,0-0.7-0.6-1.7-1.6
			C101.9,94.7,102.5,94.2,102.6,94.2"/>
	</g>
	<g>
		<path d="M116.9,81.7c1.2,0.9,1.8,1.4,1.8,1.5v10.3c0,0.1-0.6,0.6-1.8,1.5c-1.2-0.9-1.8-1.4-1.8-1.5V83.2
			C115.1,83.1,115.7,82.6,116.9,81.7"/>
	</g>
	<g>
		<path d="M102.6,79.4h11.8c0.1,0,0.7,0.6,1.7,1.6c-1,1.1-1.6,1.6-1.7,1.6h-11.8c-0.1,0-0.7-0.6-1.7-1.6
			C101.9,80,102.5,79.4,102.6,79.4"/>
	</g>
	<g>
		<path d="M73.5,108.9h11.8c0.1,0,0.7,0.6,1.7,1.6c-1,1.1-1.6,1.6-1.7,1.6H73.5c-0.1,0-0.7-0.6-1.7-1.6
			C72.7,109.5,73.3,108.9,73.5,108.9"/>
	</g>
	<g>
		<path d="M71,96.4c1.2,0.9,1.8,1.4,1.8,1.5v10.3c0,0.1-0.6,0.6-1.8,1.5c-1.2-0.9-1.8-1.4-1.8-1.5V97.9C69.2,97.8,69.8,97.3,71,96.4
			"/>
	</g>
	<g>
		<path d="M73.3,94.2h12.1c0.5,0.4,1,1,1.6,1.6c-0.6,0.6-1.1,1.2-1.6,1.6H73.3c-0.5-0.4-1-1-1.6-1.6C72.3,95.2,72.8,94.6,73.3,94.2"
			/>
	</g>
	<g>
		<path d="M87.7,81.7c1.2,0.9,1.8,1.4,1.8,1.5v10.3c0,0.1-0.6,0.6-1.8,1.5c-1.2-0.9-1.8-1.4-1.8-1.5V83.2
			C85.9,83.1,86.5,82.6,87.7,81.7"/>
	</g>
	<g>
		<path d="M73.5,79.4h11.8c0.1,0,0.7,0.6,1.7,1.6c-1,1.1-1.6,1.6-1.7,1.6H73.5c-0.1,0-0.7-0.6-1.7-1.6C72.7,80,73.3,79.4,73.5,79.4"
			/>
	</g>
	<g>
		<path d="M49.5,108.9h11.8c0.1,0,0.7,0.6,1.7,1.6c-1,1.1-1.6,1.6-1.7,1.6H49.5c-0.1,0-0.7-0.6-1.7-1.6
			C48.8,109.5,49.3,108.9,49.5,108.9"/>
	</g>
	<g>
		<path d="M47,96.4c1.2,0.9,1.8,1.4,1.8,1.5v10.3c0,0.1-0.6,0.6-1.8,1.5c-1.2-0.9-1.8-1.4-1.8-1.5V97.9C45.2,97.8,45.8,97.3,47,96.4
			"/>
	</g>
	<g>
		<path d="M49.3,94.2h12.1c0.5,0.4,1,1,1.6,1.6c-0.6,0.6-1.1,1.2-1.6,1.6H49.3c-0.5-0.4-1-1-1.6-1.6C48.3,95.2,48.8,94.6,49.3,94.2"
			/>
	</g>
	<g>
		<path d="M63.8,81.7c1.2,0.9,1.8,1.4,1.8,1.5v10.3c0,0.1-0.6,0.6-1.8,1.5c-1.2-0.9-1.8-1.4-1.8-1.5V83.2
			C61.9,83.1,62.5,82.6,63.8,81.7"/>
	</g>
	<g>
		<path d="M49.5,79.4h11.8c0.1,0,0.7,0.6,1.7,1.6c-1,1.1-1.6,1.6-1.7,1.6H49.5c-0.1,0-0.7-0.6-1.7-1.6C48.8,80,49.3,79.4,49.5,79.4"
			/>
	</g>
	<g>
		<path d="M144.6,47.8h4.4c0.1,0,0.3,0.2,0.6,0.6c-0.4,0.4-0.6,0.6-0.6,0.6h-4.4c-0.1,0-0.3-0.2-0.6-0.6
			C144.3,48,144.6,47.8,144.6,47.8 M149.9,43.5c0.4,0.3,0.7,0.5,0.7,0.5v3.6c0,0-0.2,0.2-0.7,0.5c-0.5-0.3-0.7-0.5-0.7-0.5v-3.6
			C149.2,44,149.5,43.8,149.9,43.5z M143.7,43.5c0.5,0.3,0.7,0.5,0.7,0.5v3.6c0,0-0.2,0.2-0.7,0.5c-0.4-0.3-0.7-0.5-0.7-0.5V44
			C143,44,143.3,43.8,143.7,43.5z M144.6,42.7h4.5c0.2,0.2,0.4,0.3,0.6,0.6c-0.2,0.2-0.4,0.4-0.6,0.6h-4.5c-0.2-0.2-0.4-0.3-0.6-0.6
			C144.2,43.1,144.4,42.9,144.6,42.7z M143.7,38.4c0.5,0.3,0.7,0.5,0.7,0.5v3.6c0,0-0.2,0.2-0.7,0.5c-0.4-0.3-0.7-0.5-0.7-0.5v-3.6
			C143,38.8,143.3,38.7,143.7,38.4z M144.6,37.6h4.4c0.1,0,0.3,0.2,0.6,0.6c-0.4,0.4-0.6,0.6-0.6,0.6h-4.4c-0.1,0-0.3-0.2-0.6-0.6
			C144.3,37.8,144.6,37.6,144.6,37.6z M124.1,47.8h4.4c0.1,0,0.3,0.2,0.6,0.6c-0.4,0.4-0.6,0.6-0.6,0.6h-4.4c-0.1,0-0.3-0.2-0.6-0.6
			C123.8,48,124,47.8,124.1,47.8z M129.4,43.5c0.4,0.3,0.7,0.5,0.7,0.5v3.6c0,0-0.2,0.2-0.7,0.5c-0.5-0.3-0.7-0.5-0.7-0.5v-3.6
			C128.7,44,128.9,43.8,129.4,43.5z M124,42.7h4.5c0.2,0.2,0.4,0.3,0.6,0.6c-0.2,0.2-0.4,0.4-0.6,0.6H124c-0.2-0.2-0.4-0.3-0.6-0.6
			C123.6,43.1,123.8,42.9,124,42.7z M123.2,38.4c0.4,0.3,0.7,0.5,0.7,0.5v3.6c0,0-0.2,0.2-0.7,0.5c-0.4-0.3-0.7-0.5-0.7-0.5v-3.6
			C122.5,38.8,122.7,38.7,123.2,38.4z M124.1,37.6h4.4c0.1,0,0.3,0.2,0.6,0.6c-0.4,0.4-0.6,0.6-0.6,0.6h-4.4c-0.1,0-0.3-0.2-0.6-0.6
			C123.8,37.8,124,37.6,124.1,37.6z M108.8,43.7c0.4,0.3,0.7,0.5,0.7,0.5V49c0,0-0.5-0.4-1.4-1.1v-3.6
			C108.2,44.2,108.4,44,108.8,43.7z M103.5,42.9h4.4c0.1,0,0.3,0.2,0.6,0.6c-0.4,0.4-0.6,0.6-0.6,0.6h-4.4c-0.1,0-0.3-0.2-0.6-0.6
			C103.3,43.1,103.5,42.9,103.5,42.9z M109.5,38v4.7c0,0-0.2,0.2-0.7,0.6c0,0-0.3-0.2-0.7-0.6v-3.6C108.1,39.1,108.6,38.7,109.5,38z
			 M101.9,38c0,0,0.5,0.4,1.4,1.1v3.6c0,0-0.2,0.2-0.7,0.6c0,0-0.3-0.2-0.7-0.6V38z M83.2,47.8h4.4c0.1,0,0.3,0.2,0.6,0.6
			c-0.4,0.4-0.6,0.6-0.6,0.6h-4.4c-0.1,0-0.3-0.2-0.6-0.6C82.9,48,83.1,47.8,83.2,47.8z M88.5,43.5c0.5,0.3,0.7,0.5,0.7,0.5v3.6
			c0,0-0.2,0.2-0.7,0.5c-0.4-0.3-0.7-0.5-0.7-0.5v-3.6C87.8,44,88,43.8,88.5,43.5z M83.2,42.7h4.4c0.1,0,0.3,0.2,0.6,0.6
			c-0.4,0.4-0.6,0.6-0.6,0.6h-4.4c-0.1,0-0.3-0.2-0.6-0.6C82.9,42.9,83.1,42.7,83.2,42.7z M88.5,38.4c0.5,0.3,0.7,0.5,0.7,0.5v3.6
			c0,0-0.2,0.2-0.7,0.5c-0.4-0.3-0.7-0.5-0.7-0.5v-3.6C87.8,38.8,88,38.7,88.5,38.4z M83.2,37.6h4.4c0.1,0,0.3,0.2,0.6,0.6
			c-0.4,0.4-0.6,0.6-0.6,0.6h-4.4c-0.1,0-0.3-0.2-0.6-0.6C82.9,37.8,83.1,37.6,83.2,37.6z M63.6,47.8H68c0.1,0,0.3,0.2,0.6,0.6
			C68.3,48.8,68,49,68,49h-4.4c-0.1,0-0.3-0.2-0.6-0.6C63.3,48,63.5,47.8,63.6,47.8z M62.7,43.5c0.4,0.3,0.7,0.5,0.7,0.5v3.6
			c0,0-0.2,0.2-0.7,0.5c-0.4-0.3-0.7-0.5-0.7-0.5V44C62,44,62.2,43.8,62.7,43.5z M63.6,42.7H68c0.2,0.2,0.4,0.3,0.6,0.6
			c-0.2,0.2-0.4,0.4-0.6,0.6h-4.5c-0.2-0.2-0.4-0.3-0.6-0.6C63.2,43.1,63.4,42.9,63.6,42.7z M68.9,38.4c0.4,0.3,0.7,0.5,0.7,0.5v3.6
			c0,0-0.2,0.2-0.7,0.5c-0.5-0.3-0.7-0.5-0.7-0.5v-3.6C68.2,38.8,68.5,38.7,68.9,38.4z M63.6,37.6H68c0.1,0,0.3,0.2,0.6,0.6
			c-0.4,0.4-0.6,0.6-0.6,0.6h-4.4c-0.1,0-0.3-0.2-0.6-0.6C63.3,37.8,63.5,37.6,63.6,37.6z M48.4,43.7c0,0,0.3,0.2,0.7,0.6V49
			c0,0-0.5-0.4-1.4-1.1v-3.6C47.8,44.2,48,44.1,48.4,43.7z M49.1,38v4.7c0,0-0.2,0.2-0.7,0.6c0,0-0.3-0.2-0.7-0.6v-3.6L49.1,38z"/>
	</g>
	<g>
		<rect x="92.9" y="86.5" class="st0" width="3.7" height="3.2"/>
	</g>
	<g>
		<rect x="92.9" y="107.3" class="st0" width="3.7" height="3.2"/>
	</g>
	<g>
		<path d="M145,68.8h4.4c0.1,0,0.3,0.2,0.6,0.6c-0.4,0.4-0.6,0.6-0.6,0.6H145c-0.1,0-0.3-0.2-0.6-0.6C144.8,69,145,68.8,145,68.8
			 M144.1,64.4c0.4,0.3,0.7,0.5,0.7,0.5v3.6c0,0-0.2,0.2-0.7,0.5c-0.4-0.3-0.7-0.5-0.7-0.5v-3.6C143.4,64.9,143.7,64.7,144.1,64.4z
			 M145,63.6h4.5c0.2,0.2,0.4,0.3,0.6,0.6c-0.2,0.2-0.4,0.4-0.6,0.6H145c-0.2-0.2-0.4-0.3-0.6-0.6C144.6,64,144.8,63.8,145,63.6z
			 M150.3,59.3c0.4,0.3,0.7,0.5,0.7,0.5v3.6c0,0-0.2,0.2-0.7,0.5c-0.5-0.3-0.7-0.5-0.7-0.5v-3.6C149.7,59.8,149.9,59.6,150.3,59.3z
			 M145,58.5h4.4c0.1,0,0.3,0.2,0.6,0.6c-0.4,0.4-0.6,0.6-0.6,0.6H145c-0.1,0-0.3-0.2-0.6-0.6C144.8,58.7,145,58.5,145,58.5z
			 M141.5,64.6c0,0,0.3,0.2,0.7,0.6v4.7c0,0-0.5-0.4-1.4-1.1v-3.6C140.8,65.2,141,65,141.5,64.6z M142.2,58.9v4.7
			c0,0-0.2,0.2-0.7,0.6c0,0-0.3-0.2-0.7-0.6V60L142.2,58.9z M127.3,64.6c0,0,0.3,0.2,0.7,0.6v4.7c0,0-0.5-0.4-1.4-1.1v-3.6
			C126.6,65.2,126.8,65,127.3,64.6z M127.9,58.9v4.7c0,0-0.2,0.2-0.7,0.6c0,0-0.3-0.2-0.7-0.6V60L127.9,58.9z M124.6,64.6
			c0,0,0.3,0.2,0.7,0.6v4.7c0,0-0.5-0.4-1.4-1.1v-3.6C123.9,65.2,124.2,65,124.6,64.6z M125.3,58.9v4.7c0,0-0.2,0.2-0.7,0.6
			c0,0-0.3-0.2-0.7-0.6V60L125.3,58.9z M105.1,68.8h4.4c0.1,0,0.3,0.2,0.6,0.6c-0.4,0.4-0.6,0.6-0.6,0.6h-4.4
			c-0.1,0-0.3-0.2-0.6-0.6C104.8,69,105,68.8,105.1,68.8z M110.4,64.5c0.4,0.3,0.7,0.5,0.7,0.5v3.6c0,0-0.2,0.2-0.7,0.5
			c-0.5-0.3-0.7-0.5-0.7-0.5V65C109.7,64.9,109.9,64.8,110.4,64.5z M104.1,64.4c0.4,0.3,0.7,0.5,0.7,0.5v3.6c0,0-0.2,0.2-0.7,0.5
			c-0.4-0.3-0.7-0.5-0.7-0.5v-3.6C103.5,64.9,103.7,64.7,104.1,64.4z M110.4,59.3c0.4,0.3,0.7,0.5,0.7,0.5v3.6c0,0-0.2,0.2-0.7,0.5
			c-0.5-0.3-0.7-0.5-0.7-0.5v-3.6C109.7,59.8,109.9,59.6,110.4,59.3z M104.1,59.3c0.4,0.3,0.7,0.5,0.7,0.5v3.6c0,0-0.2,0.2-0.7,0.5
			c-0.4-0.3-0.7-0.5-0.7-0.5v-3.6C103.5,59.8,103.7,59.6,104.1,59.3z M105.1,58.5h4.4c0.1,0,0.3,0.2,0.6,0.6
			c-0.4,0.4-0.6,0.6-0.6,0.6h-4.4c-0.1,0-0.3-0.2-0.6-0.6C104.8,58.7,105,58.5,105.1,58.5z M101.5,64.6c0,0,0.3,0.2,0.7,0.6v4.7
			c0,0-0.5-0.4-1.4-1.1v-3.6C100.8,65.2,101.1,65,101.5,64.6z M102.2,58.9v4.7c0,0-0.2,0.2-0.7,0.6c0,0-0.3-0.2-0.7-0.6V60
			L102.2,58.9z M93,64.6c0.4,0.3,0.7,0.5,0.7,0.5v4.7c0,0-0.5-0.4-1.4-1.1v-3.6C92.3,65.1,92.6,65,93,64.6z M87.7,63.8h4.4
			c0.1,0,0.3,0.2,0.6,0.6c-0.4,0.4-0.6,0.6-0.6,0.6h-4.4c-0.1,0-0.3-0.2-0.6-0.6C87.4,64,87.6,63.8,87.7,63.8z M93,59.5
			c0.4,0.3,0.7,0.5,0.7,0.5v3.6c0,0-0.2,0.2-0.7,0.5c-0.5-0.3-0.7-0.5-0.7-0.5V60C92.3,60,92.6,59.8,93,59.5z M86.1,58.9
			c0,0,0.5,0.4,1.4,1.1v3.6c0,0-0.2,0.2-0.7,0.6c0,0-0.3-0.2-0.7-0.6V58.9z M86.3,58.7h5.8c0.1,0,0.3,0.2,0.6,0.6
			c-0.4,0.4-0.6,0.6-0.6,0.6h-4.4C87.7,59.8,87.2,59.4,86.3,58.7z M67,68.8h4.4c0.1,0,0.3,0.2,0.6,0.6c-0.4,0.4-0.6,0.6-0.6,0.6H67
			c-0.1,0-0.3-0.2-0.6-0.6C66.8,69,67,68.8,67,68.8z M72.4,64.5c0.4,0.3,0.7,0.5,0.7,0.5v3.6c0,0-0.2,0.2-0.7,0.5
			c-0.5-0.3-0.7-0.5-0.7-0.5V65C71.7,64.9,71.9,64.8,72.4,64.5z M66.1,64.4c0.4,0.3,0.7,0.5,0.7,0.5v3.6c0,0-0.2,0.2-0.7,0.5
			c-0.4-0.3-0.7-0.5-0.7-0.5v-3.6C65.4,64.9,65.7,64.7,66.1,64.4z M67,63.6h4.5c0.2,0.2,0.4,0.3,0.6,0.6c-0.2,0.2-0.4,0.4-0.6,0.6
			H67c-0.2-0.2-0.4-0.3-0.6-0.6C66.6,64,66.8,63.8,67,63.6z M72.4,59.3c0.4,0.3,0.7,0.5,0.7,0.5v3.6c0,0-0.2,0.2-0.7,0.5
			c-0.5-0.3-0.7-0.5-0.7-0.5v-3.6C71.7,59.8,71.9,59.6,72.4,59.3z M66.1,59.3c0.4,0.3,0.7,0.5,0.7,0.5v3.6c0,0-0.2,0.2-0.7,0.5
			c-0.4-0.3-0.7-0.5-0.7-0.5v-3.6C65.4,59.8,65.7,59.6,66.1,59.3z M67,58.5h4.4c0.1,0,0.3,0.2,0.6,0.6c-0.4,0.4-0.6,0.6-0.6,0.6H67
			c-0.1,0-0.3-0.2-0.6-0.6C66.8,58.7,67,58.5,67,58.5z M51.7,64.6c0.4,0.3,0.7,0.5,0.7,0.5v4.7c0,0-0.5-0.4-1.4-1.1v-3.6
			C51,65.1,51.2,65,51.7,64.6z M51.7,59.5c0.4,0.3,0.7,0.5,0.7,0.5v3.6c0,0-0.2,0.2-0.7,0.5c-0.4-0.3-0.7-0.5-0.7-0.5V60
			C51,60,51.2,59.8,51.7,59.5z M45,58.7h5.8c0.1,0,0.3,0.2,0.6,0.6c-0.4,0.4-0.6,0.6-0.6,0.6h-4.4C46.3,59.8,45.9,59.4,45,58.7z"/>
	</g>
	<g>
		<path d="M74.9,72.5H63.3c-1.4,0-2.5-1.1-2.5-2.5V58.4c0-1.4,1.1-2.5,2.5-2.5h11.6c1.4,0,2.5,1.1,2.5,2.5V70
			C77.5,71.4,76.3,72.5,74.9,72.5z M63.3,57.1c-0.7,0-1.3,0.6-1.3,1.3V70c0,0.7,0.6,1.3,1.3,1.3h11.6c0.7,0,1.3-0.6,1.3-1.3V58.4
			c0-0.7-0.6-1.3-1.3-1.3H63.3z"/>
	</g>
	<g>
		<path d="M140.8,136.6h5.3c0.1,0,0.3,0.3,0.8,0.8c-0.4,0.5-0.7,0.8-0.8,0.8h-5.3c-0.1,0-0.3-0.3-0.8-0.8
			C140.5,136.9,140.7,136.6,140.8,136.6 M147.2,130.7c0.5,0.4,0.8,0.7,0.8,0.7v4.9c0,0.1-0.3,0.3-0.8,0.7c-0.5-0.4-0.8-0.7-0.8-0.7
			v-4.9C146.3,131.4,146.6,131.1,147.2,130.7z M139.7,130.7c0.5,0.4,0.8,0.7,0.8,0.7v4.9c0,0.1-0.3,0.3-0.8,0.7
			c-0.5-0.4-0.8-0.7-0.8-0.7v-4.9C138.9,131.3,139.1,131.1,139.7,130.7z M147.2,123.6c0.5,0.4,0.8,0.7,0.8,0.7v4.9
			c0,0.1-0.3,0.3-0.8,0.7c-0.5-0.4-0.8-0.7-0.8-0.7v-4.9C146.3,124.3,146.6,124.1,147.2,123.6z M139.7,123.6
			c0.5,0.4,0.8,0.7,0.8,0.7v4.9c0,0.1-0.3,0.3-0.8,0.7c-0.5-0.4-0.8-0.7-0.8-0.7v-4.9C138.9,124.3,139.1,124.1,139.7,123.6z
			 M140.8,122.6h5.3c0.1,0,0.3,0.3,0.8,0.8c-0.4,0.5-0.7,0.8-0.8,0.8h-5.3c-0.1,0-0.3-0.3-0.8-0.8
			C140.5,122.8,140.7,122.6,140.8,122.6z M130.1,136.6h5.3c0.1,0,0.3,0.3,0.8,0.8c-0.4,0.5-0.7,0.8-0.8,0.8h-5.3
			c-0.1,0-0.3-0.3-0.8-0.8C129.8,136.9,130.1,136.6,130.1,136.6z M136.5,130.7c0.5,0.4,0.8,0.7,0.8,0.7v4.9c0,0.1-0.3,0.3-0.8,0.7
			c-0.5-0.4-0.8-0.7-0.8-0.7v-4.9C135.7,131.4,136,131.1,136.5,130.7z M129,130.7c0.5,0.4,0.8,0.7,0.8,0.7v4.9
			c0,0.1-0.3,0.3-0.8,0.7c-0.5-0.4-0.8-0.7-0.8-0.7v-4.9C128.2,131.3,128.5,131.1,129,130.7z M136.5,123.6c0.5,0.4,0.8,0.7,0.8,0.7
			v4.9c0,0.1-0.3,0.3-0.8,0.7c-0.5-0.4-0.8-0.7-0.8-0.7v-4.9C135.7,124.3,136,124.1,136.5,123.6z M129,123.6
			c0.5,0.4,0.8,0.7,0.8,0.7v4.9c0,0.1-0.3,0.3-0.8,0.7c-0.5-0.4-0.8-0.7-0.8-0.7v-4.9C128.2,124.3,128.5,124.1,129,123.6z
			 M130.1,122.6h5.3c0.1,0,0.3,0.3,0.8,0.8c-0.4,0.5-0.7,0.8-0.8,0.8h-5.3c-0.1,0-0.3-0.3-0.8-0.8
			C129.8,122.8,130.1,122.6,130.1,122.6z M125.9,136.4h0.3c0.2,0,0.5,0.3,1,0.8v0.1c-0.5,0.5-0.8,0.8-1,0.8h-0.3
			c-0.2,0-0.5-0.3-1-0.8v-0.1C125.4,136.7,125.7,136.4,125.9,136.4z M125.8,125.2h0.3c0.2,0,0.5,0.3,1,0.8v0.1
			c-0.5,0.5-0.8,0.8-1,0.8h-0.3c-0.2,0-0.5-0.3-1-0.8V126C125.3,125.4,125.6,125.2,125.8,125.2z M122.4,131c0,0,0.3,0.3,0.8,0.8v6.4
			c0,0-0.6-0.5-1.7-1.5v-4.9C121.6,131.7,121.9,131.5,122.4,131z M123.2,123.1v6.4c0,0-0.3,0.3-0.8,0.8c0,0-0.3-0.3-0.8-0.8v-4.9
			L123.2,123.1z M112.8,136.6h5.3c0.1,0,0.3,0.3,0.8,0.8c-0.4,0.5-0.7,0.8-0.8,0.8h-5.3c-0.1,0-0.3-0.3-0.8-0.8
			C112.5,136.9,112.7,136.6,112.8,136.6z M111.7,130.7c0.5,0.4,0.8,0.7,0.8,0.7v4.9c0,0.1-0.3,0.3-0.8,0.7c-0.5-0.4-0.8-0.7-0.8-0.7
			v-4.9C110.9,131.3,111.2,131.1,111.7,130.7z M112.7,129.6h5.4c0.2,0.2,0.5,0.5,0.7,0.8c-0.2,0.3-0.5,0.6-0.7,0.8h-5.4
			c-0.2-0.2-0.5-0.5-0.7-0.8C112.3,130.1,112.5,129.8,112.7,129.6z M119.2,123.6c0.5,0.4,0.8,0.7,0.8,0.7v4.9c0,0.1-0.3,0.3-0.8,0.7
			c-0.5-0.4-0.8-0.7-0.8-0.7v-4.9C118.4,124.3,118.6,124.1,119.2,123.6z M112.8,122.6h5.3c0.1,0,0.3,0.3,0.8,0.8
			c-0.4,0.5-0.7,0.8-0.8,0.8h-5.3c-0.1,0-0.3-0.3-0.8-0.8C112.5,122.8,112.7,122.6,112.8,122.6z"/>
	</g>
	<g>
		<path d="M140.8,164.9h5.3c0.1,0,0.3,0.3,0.8,0.8c-0.4,0.5-0.7,0.8-0.8,0.8h-5.3c-0.1,0-0.3-0.3-0.8-0.8
			C140.5,165.2,140.7,164.9,140.8,164.9 M147.2,159c0.5,0.4,0.8,0.7,0.8,0.7v4.9c0,0.1-0.3,0.3-0.8,0.7c-0.5-0.4-0.8-0.7-0.8-0.7
			v-4.9C146.3,159.7,146.6,159.4,147.2,159z M139.7,159c0.5,0.4,0.8,0.7,0.8,0.7v4.9c0,0.1-0.3,0.3-0.8,0.7
			c-0.5-0.4-0.8-0.7-0.8-0.7v-4.9C138.9,159.6,139.1,159.4,139.7,159z M147.2,151.9c0.5,0.4,0.8,0.7,0.8,0.7v4.9
			c0,0.1-0.3,0.3-0.8,0.7c-0.5-0.4-0.8-0.7-0.8-0.7v-4.9C146.3,152.6,146.6,152.4,147.2,151.9z M139.7,151.9
			c0.5,0.4,0.8,0.7,0.8,0.7v4.9c0,0.1-0.3,0.3-0.8,0.7c-0.5-0.4-0.8-0.7-0.8-0.7v-4.9C138.9,152.6,139.1,152.4,139.7,151.9z
			 M140.8,150.9h5.3c0.1,0,0.3,0.3,0.8,0.8c-0.4,0.5-0.7,0.8-0.8,0.8h-5.3c-0.1,0-0.3-0.3-0.8-0.8
			C140.5,151.1,140.7,150.9,140.8,150.9z M130.1,164.9h5.3c0.1,0,0.3,0.3,0.8,0.8c-0.4,0.5-0.7,0.8-0.8,0.8h-5.3
			c-0.1,0-0.3-0.3-0.8-0.8C129.8,165.2,130.1,164.9,130.1,164.9z M136.5,159c0.5,0.4,0.8,0.7,0.8,0.7v4.9c0,0.1-0.3,0.3-0.8,0.7
			c-0.5-0.4-0.8-0.7-0.8-0.7v-4.9C135.7,159.7,136,159.4,136.5,159z M129,159c0.5,0.4,0.8,0.7,0.8,0.7v4.9c0,0.1-0.3,0.3-0.8,0.7
			c-0.5-0.4-0.8-0.7-0.8-0.7v-4.9C128.2,159.6,128.5,159.4,129,159z M136.5,151.9c0.5,0.4,0.8,0.7,0.8,0.7v4.9
			c0,0.1-0.3,0.3-0.8,0.7c-0.5-0.4-0.8-0.7-0.8-0.7v-4.9C135.7,152.6,136,152.4,136.5,151.9z M129,151.9c0.5,0.4,0.8,0.7,0.8,0.7
			v4.9c0,0.1-0.3,0.3-0.8,0.7c-0.5-0.4-0.8-0.7-0.8-0.7v-4.9C128.2,152.6,128.5,152.4,129,151.9z M130.1,150.9h5.3
			c0.1,0,0.3,0.3,0.8,0.8c-0.4,0.5-0.7,0.8-0.8,0.8h-5.3c-0.1,0-0.3-0.3-0.8-0.8C129.8,151.1,130.1,150.9,130.1,150.9z M125.9,164.7
			h0.3c0.2,0,0.5,0.3,1,0.8v0.1c-0.5,0.5-0.8,0.8-1,0.8h-0.3c-0.2,0-0.5-0.3-1-0.8v-0.1C125.4,165,125.7,164.7,125.9,164.7z
			 M125.8,153.5h0.3c0.2,0,0.5,0.3,1,0.8v0.1c-0.5,0.5-0.8,0.8-1,0.8h-0.3c-0.2,0-0.5-0.3-1-0.8v-0.1
			C125.3,153.7,125.6,153.5,125.8,153.5z M116.2,164.9h5.3c0.1,0,0.3,0.3,0.8,0.8c-0.5,0.5-0.7,0.8-0.8,0.8h-5.3
			c-0.1,0-0.3-0.3-0.8-0.8C115.9,165.2,116.1,164.9,116.2,164.9z M122.6,159c0.5,0.4,0.8,0.7,0.8,0.7v4.9c0,0.1-0.3,0.3-0.8,0.7
			c-0.5-0.4-0.8-0.7-0.8-0.7v-4.9C121.8,159.7,122,159.4,122.6,159z M116.2,157.9h5.3c0.1,0,0.3,0.3,0.8,0.8
			c-0.5,0.5-0.7,0.8-0.8,0.8h-5.3c-0.1,0-0.3-0.3-0.8-0.8C115.9,158.2,116.1,157.9,116.2,157.9z M122.6,151.9
			c0.5,0.4,0.8,0.7,0.8,0.7v4.9c0,0.1-0.3,0.3-0.8,0.7c-0.5-0.4-0.8-0.7-0.8-0.7v-4.9C121.8,152.6,122,152.4,122.6,151.9z
			 M116.2,150.9h5.3c0.1,0,0.3,0.3,0.8,0.8c-0.5,0.5-0.7,0.8-0.8,0.8h-5.3c-0.1,0-0.3-0.3-0.8-0.8
			C115.9,151.1,116.1,150.9,116.2,150.9z M106.6,164.9h5.3c0.1,0,0.3,0.3,0.8,0.8c-0.4,0.5-0.7,0.8-0.8,0.8h-5.3
			c-0.1,0-0.3-0.3-0.8-0.8C106.3,165.2,106.6,164.9,106.6,164.9z M105.5,159c0.5,0.4,0.8,0.7,0.8,0.7v4.9c0,0.1-0.3,0.3-0.8,0.7
			c-0.5-0.4-0.8-0.7-0.8-0.7v-4.9C104.7,159.6,105,159.4,105.5,159z M106.6,157.9h5.4c0.2,0.2,0.5,0.5,0.7,0.8
			c-0.2,0.3-0.5,0.6-0.7,0.8h-5.4c-0.2-0.2-0.5-0.5-0.7-0.8C106.1,158.4,106.4,158.1,106.6,157.9z M113,151.9
			c0.5,0.4,0.8,0.7,0.8,0.7v4.9c0,0.1-0.3,0.3-0.8,0.7c-0.5-0.4-0.8-0.7-0.8-0.7v-4.9C112.2,152.6,112.5,152.4,113,151.9z
			 M106.6,150.9h5.3c0.1,0,0.3,0.3,0.8,0.8c-0.4,0.5-0.7,0.8-0.8,0.8h-5.3c-0.1,0-0.3-0.3-0.8-0.8
			C106.3,151.1,106.6,150.9,106.6,150.9z"/>
	</g>
	<g>
		<path d="M89.7,127c0,0,0.2,0.2,0.5,0.5v4.2l-1.1-1v-3.2C89.2,127.4,89.4,127.3,89.7,127 M84.8,127c0.4,0.3,0.5,0.4,0.5,0.5v3.2
			c0,0-0.4,0.4-1.1,1v-4.2C84.3,127.4,84.5,127.2,84.8,127z M85.7,123L85.7,123c0,0,0.6,0.5,1.7,1.5c1,0.9,1.5,1.4,1.5,1.5v0.6
			c0,0,0,0.1-0.1,0.1h-0.6c-0.1,0-0.4-0.3-0.9-0.8c0,0-0.6-0.5-1.6-1.5V123z M90.3,121.9v4.2c0,0-0.2,0.2-0.5,0.5
			c0,0-0.2-0.2-0.5-0.5v-3.2L90.3,121.9z M84.3,121.9l1.1,1v3.3c0,0-0.2,0.2-0.5,0.5c-0.4-0.3-0.5-0.4-0.5-0.5V121.9z M78.8,130.7
			h3.5c0,0,0.4,0.3,1.1,1h-5.6C77.7,131.7,78,131.3,78.8,130.7z M82.9,126.8c0,0,0.2,0.2,0.5,0.5v4.2l-1.1-1v-3.2
			C82.4,127.2,82.6,127.1,82.9,126.8z M78,126.8c0.4,0.3,0.5,0.4,0.5,0.5v3.2c0,0-0.4,0.4-1.1,1v-4.2C77.5,127.2,77.7,127,78,126.8z
			 M83.5,121.7v4.2c0,0-0.2,0.2-0.5,0.5c0,0-0.2-0.2-0.5-0.5v-3.2L83.5,121.7z M77.5,121.7l1.1,1v3.3c0,0-0.2,0.2-0.5,0.5
			c-0.4-0.3-0.5-0.4-0.5-0.5V121.7z M77.7,121.4h5.6l-1,1h-3.5C78.7,122.5,78.4,122.1,77.7,121.4z"/>
	</g>
	<g>
		<path d="M90.9,155.1c0.4,0.3,0.5,0.4,0.5,0.5v3.2c0,0-0.4,0.4-1.1,1v-4.2C90.3,155.5,90.5,155.3,90.9,155.1 M91.6,154.4H95
			c0,0,0.2,0.2,0.5,0.5c-0.3,0.3-0.5,0.5-0.5,0.5h-3.5c0,0-0.2-0.2-0.5-0.5C91.4,154.5,91.5,154.4,91.6,154.4z M90.3,150l1.1,1v3.2
			c0,0-0.2,0.2-0.5,0.5c0,0-0.2-0.2-0.5-0.5V150z M90.5,149.8H95c0,0,0.2,0.2,0.5,0.5c-0.3,0.3-0.5,0.5-0.5,0.5h-3.5
			C91.5,150.8,91.2,150.4,90.5,149.8z M84.8,155.1c0.4,0.3,0.5,0.4,0.5,0.5v3.2c0,0-0.4,0.4-1.1,1v-4.2
			C84.3,155.5,84.5,155.3,84.8,155.1z M85.6,154.4H89c0,0,0.2,0.2,0.5,0.5c-0.3,0.3-0.5,0.5-0.5,0.5h-3.5c0,0-0.2-0.2-0.5-0.5
			C85.3,154.5,85.5,154.4,85.6,154.4z M84.3,150l1.1,1v3.2c0,0-0.2,0.2-0.5,0.5c0,0-0.2-0.2-0.5-0.5V150z M84.5,149.8H89
			c0,0,0.2,0.2,0.5,0.5c-0.3,0.3-0.5,0.5-0.5,0.5h-3.5C85.5,150.8,85.2,150.4,84.5,149.8z M78.8,158.8h3.5c0,0,0.4,0.3,1.1,1h-5.6
			C77.7,159.8,78,159.4,78.8,158.8z M82.9,154.9c0,0,0.2,0.2,0.5,0.5v4.2l-1.1-1v-3.2C82.4,155.3,82.6,155.2,82.9,154.9z M78,154.9
			c0.4,0.3,0.5,0.4,0.5,0.5v3.2c0,0-0.4,0.4-1.1,1v-4.2C77.5,155.3,77.7,155.1,78,154.9z M83.5,149.8v4.2c0,0-0.2,0.2-0.5,0.5
			c0,0-0.2-0.2-0.5-0.5v-3.2L83.5,149.8z M77.5,149.8l1.1,1v3.3c0,0-0.2,0.2-0.5,0.5c-0.4-0.3-0.5-0.4-0.5-0.5V149.8z M77.7,149.6
			h5.6l-1,1h-3.5C78.7,150.6,78.4,150.2,77.7,149.6z"/>
	</g>
	<g>
		<path d="M57.9,127.5c0.4,0.3,0.5,0.4,0.5,0.5v3.2c0,0-0.2,0.2-0.5,0.5c-0.4-0.3-0.5-0.4-0.5-0.5V128
			C57.4,127.9,57.6,127.8,57.9,127.5 M57.9,122.9c0.4,0.3,0.5,0.4,0.5,0.5v3.2c0,0-0.2,0.2-0.5,0.5c-0.4-0.3-0.5-0.4-0.5-0.5v-3.2
			C57.4,123.4,57.6,123.2,57.9,122.9z M55.1,121.6h5.6l-1,1h-3.5C56.2,122.6,55.8,122.3,55.1,121.6z M53.8,127c0,0,0.2,0.2,0.5,0.5
			v3.2c0,0-0.4,0.4-1.1,1v-4.2C53.3,127.4,53.5,127.3,53.8,127z M53.3,121.6c0,0,0.4,0.3,1.1,1v3.4c0,0-0.2,0.2-0.5,0.5
			c-0.4-0.3-0.5-0.4-0.5-0.5V121.6z M51.9,127c0,0,0.2,0.2,0.5,0.5v4.2l-1.1-1v-3.2C51.3,127.4,51.5,127.3,51.9,127z M47,127
			c0.4,0.3,0.5,0.4,0.5,0.5v3.2c0,0-0.4,0.4-1.1,1v-4.2C46.5,127.4,46.6,127.2,47,127z M47.8,123L47.8,123c0,0,0.6,0.5,1.7,1.5
			c1,0.9,1.5,1.4,1.5,1.5v0.6c0,0,0,0.1-0.1,0.1h-0.6c-0.1,0-0.4-0.3-0.9-0.8c0,0-0.6-0.5-1.6-1.5V123z M52.4,121.9v4.2
			c0,0-0.2,0.2-0.5,0.5c0,0-0.2-0.2-0.5-0.5v-3.2L52.4,121.9z M46.4,121.9l1.1,1v3.3c0,0-0.2,0.2-0.5,0.5c-0.4-0.3-0.5-0.4-0.5-0.5
			V121.9z M40.8,130.7h3.5c0,0,0.4,0.3,1.1,1h-5.6C39.7,131.7,40.1,131.3,40.8,130.7z M45,126.8c0,0,0.2,0.2,0.5,0.5v4.2l-1.1-1
			v-3.2C44.4,127.2,44.6,127.1,45,126.8z M40.1,126.8c0.4,0.3,0.5,0.4,0.5,0.5v3.2c0,0-0.4,0.4-1.1,1v-4.2
			C39.5,127.2,39.7,127,40.1,126.8z M45.5,121.7v4.2c0,0-0.2,0.2-0.5,0.5c0,0-0.2-0.2-0.5-0.5v-3.2L45.5,121.7z M39.5,121.7l1.1,1
			v3.3c0,0-0.2,0.2-0.5,0.5c-0.4-0.3-0.5-0.4-0.5-0.5V121.7z"/>
	</g>
	<g>
		<path d="M152.8,141.8H74.8c-1.4,0-2.5-1.1-2.5-2.5v-19.1c0-1.4,1.1-2.5,2.5-2.5h78.1c1.4,0,2.5,1.1,2.5,2.5v19.1
			C155.4,140.7,154.2,141.8,152.8,141.8z M74.8,118.9c-0.7,0-1.3,0.6-1.3,1.3v19.1c0,0.7,0.6,1.3,1.3,1.3h78.1
			c0.7,0,1.3-0.6,1.3-1.3v-19.1c0-0.7-0.6-1.3-1.3-1.3H74.8z"/>
	</g>
	<g>
		<path d="M152.8,170.5H74.8c-1.4,0-2.5-1.1-2.5-2.5v-19.1c0-1.4,1.1-2.5,2.5-2.5h78.1c1.4,0,2.5,1.1,2.5,2.5v19.1
			C155.4,169.3,154.2,170.5,152.8,170.5z M74.8,147.6c-0.7,0-1.3,0.6-1.3,1.3v19.1c0,0.7,0.6,1.3,1.3,1.3h78.1
			c0.7,0,1.3-0.6,1.3-1.3v-19.1c0-0.7-0.6-1.3-1.3-1.3H74.8z"/>
	</g>
	<g>
		<path d="M91.7,51.6H80.1c-1.4,0-2.5-1.1-2.5-2.5V37.5c0-1.4,1.1-2.5,2.5-2.5h11.6c1.4,0,2.5,1.1,2.5,2.5v11.6
			C94.2,50.5,93.1,51.6,91.7,51.6z M80.1,36.2c-0.7,0-1.3,0.6-1.3,1.3v11.6c0,0.7,0.6,1.3,1.3,1.3h11.6c0.7,0,1.3-0.6,1.3-1.3V37.5
			c0-0.7-0.6-1.3-1.3-1.3H80.1z"/>
	</g>
</g>
<g id="Units">
	<g id="1" show:initial="true" show:unit="00" show:channel="00">
		<path d="M56.6,137.6v8.2c0,0.1-0.3,0.4-1,1c-0.1,0-0.4-0.3-1-1v-6.3L56.6,137.6z M55.6,147.6c0.1,0,0.4,0.3,1,1v8.2
			c-0.1,0-0.7-0.7-2-2v-6.2C54.6,148.6,55,148.2,55.6,147.6z"/>
	</g>
	<g id="2" show:initial="false" show:unit="10" show:channel="00">
		<path d="M48.1,147.2c0.6,0.5,1,0.8,1,0.9v6.2c0,0.1-0.3,0.4-1,0.9c-0.6-0.5-1-0.8-1-0.9v-6.2C47.1,148,47.4,147.7,48.1,147.2z
			 M49.4,137h6.2c0.1,0,0.4,0.3,0.9,1c-0.5,0.6-0.8,1-0.9,1h-6.2c-0.1,0-0.4-0.3-0.9-1C49,137.3,49.3,137,49.4,137z M49.3,145.8h6.3
			c0.3,0.3,0.5,0.6,0.8,1c-0.3,0.4-0.6,0.7-0.8,1h-6.3c-0.3-0.3-0.5-0.6-0.8-1C48.8,146.4,49,146.1,49.3,145.8z M49.4,154.6h6.2
			c0.1,0,0.4,0.3,0.9,1c-0.5,0.6-0.8,1-0.9,1h-6.2c-0.1,0-0.4-0.3-0.9-1C49,155,49.3,154.6,49.4,154.6z M56.8,138.3
			c0.6,0.5,1,0.8,1,0.9v6.2c0,0.1-0.3,0.4-1,0.9c-0.6-0.5-1-0.8-1-0.9v-6.2C55.9,139.1,56.2,138.8,56.8,138.3z"/>
	</g>
	<g id="3" show:initial="false" show:unit="01" show:channel="00">
		<path d="M48,137h6.2c0.1,0,0.4,0.3,0.9,1c-0.5,0.6-0.8,1-0.9,1H48c-0.1,0-0.4-0.3-0.9-1C47.6,137.3,47.9,137,48,137z M48,145.8
			h6.2c0.1,0,0.4,0.3,0.9,1c-0.5,0.6-0.8,1-0.9,1H48c-0.1,0-0.4-0.3-0.9-1C47.6,146.1,47.9,145.8,48,145.8z M48,154.6h6.2
			c0.1,0,0.4,0.3,0.9,1c-0.5,0.6-0.8,1-0.9,1H48c-0.1,0-0.4-0.3-0.9-1C47.6,155,47.9,154.6,48,154.6z M55.5,138.3
			c0.6,0.5,1,0.8,1,0.9v6.2c0,0.1-0.3,0.4-1,0.9c-0.6-0.5-1-0.8-1-0.9v-6.2C54.5,139.1,54.9,138.8,55.5,138.3z M55.5,147.2
			c0.6,0.5,1,0.8,1,0.9v6.2c0,0.1-0.3,0.4-1,0.9c-0.6-0.5-1-0.8-1-0.9v-6.2C54.5,148,54.9,147.7,55.5,147.2z"/>
	</g>
	<g id="4" show:initial="false" show:unit="11" show:channel="00">
		<path d="M47.1,137.7c0.1,0,0.7,0.6,1.9,1.9v6.1c0,0.1-0.3,0.4-1,1c-0.1,0-0.4-0.3-1-1V137.7z M49.4,146.1h6.2c0.1,0,0.4,0.3,0.9,1
			c-0.5,0.6-0.8,1-0.9,1h-6.2c-0.1,0-0.4-0.3-0.9-1C49,146.5,49.3,146.1,49.4,146.1z M57.8,137.7v8.1c0,0.1-0.3,0.4-1,1
			c-0.1,0-0.4-0.3-1-1v-6.1C55.9,139.6,56.5,138.9,57.8,137.7z M56.8,147.5c0.6,0.5,1,0.8,1,0.9v8.1c-0.1,0-0.7-0.6-1.9-1.9v-6.2
			C55.9,148.4,56.2,148.1,56.8,147.5z"/>
	</g>
	<g id="5" show:initial="false" show:unit="00" show:channel="10">
		<path d="M48.1,138.3c0.6,0.5,1,0.8,1,0.9v6.2c0,0.1-0.3,0.4-1,0.9c-0.6-0.5-1-0.8-1-0.9v-6.2C47.1,139.1,47.4,138.8,48.1,138.3z
			 M49.4,137h6.2c0.1,0,0.4,0.3,0.9,1c-0.5,0.6-0.8,1-0.9,1h-6.2c-0.1,0-0.4-0.3-0.9-1C49,137.3,49.3,137,49.4,137z M49.3,145.8h6.3
			c0.3,0.3,0.5,0.6,0.8,1c-0.3,0.4-0.6,0.7-0.8,1h-6.3c-0.3-0.3-0.5-0.6-0.8-1C48.8,146.4,49,146.1,49.3,145.8z M49.4,154.6h6.2
			c0.1,0,0.4,0.3,0.9,1c-0.5,0.6-0.8,1-0.9,1h-6.2c-0.1,0-0.4-0.3-0.9-1C49,155,49.3,154.6,49.4,154.6z M56.8,147.2
			c0.6,0.5,1,0.8,1,0.9v6.2c0,0.1-0.3,0.4-1,0.9c-0.6-0.5-1-0.8-1-0.9v-6.2C55.9,148,56.2,147.7,56.8,147.2z"/>
	</g>
	<g id="6" show:initial="false" show:unit="10" show:channel="10">
		<path d="M48.1,138.3c0.6,0.5,1,0.8,1,0.9v6.2c0,0.1-0.3,0.4-1,0.9c-0.6-0.5-1-0.8-1-0.9v-6.2C47.1,139.1,47.4,138.8,48.1,138.3z
			 M48.1,147.2c0.6,0.5,1,0.8,1,0.9v6.2c0,0.1-0.3,0.4-1,0.9c-0.6-0.5-1-0.8-1-0.9v-6.2C47.1,148,47.4,147.7,48.1,147.2z M49.4,137
			h6.2c0.1,0,0.4,0.3,0.9,1c-0.5,0.6-0.8,1-0.9,1h-6.2c-0.1,0-0.4-0.3-0.9-1C49,137.3,49.3,137,49.4,137z M49.3,145.8h6.3
			c0.3,0.3,0.5,0.6,0.8,1c-0.3,0.4-0.6,0.7-0.8,1h-6.3c-0.3-0.3-0.5-0.6-0.8-1C48.8,146.4,49,146.1,49.3,145.8z M49.4,154.6h6.2
			c0.1,0,0.4,0.3,0.9,1c-0.5,0.6-0.8,1-0.9,1h-6.2c-0.1,0-0.4-0.3-0.9-1C49,155,49.3,154.6,49.4,154.6z M56.8,147.2
			c0.6,0.5,1,0.8,1,0.9v6.2c0,0.1-0.3,0.4-1,0.9c-0.6-0.5-1-0.8-1-0.9v-6.2C55.9,148,56.2,147.7,56.8,147.2z"/>
	</g>
	<g id="7" show:initial="false" show:unit="01" show:channel="10">
		<g>
			<path d="M47.1,137.3h8.1c0.1,0,0.4,0.3,0.9,1c-0.5,0.6-0.8,1-0.9,1H49C49,139.2,48.3,138.6,47.1,137.3z M56.5,138.6
				c0.6,0.5,1,0.8,1,0.9v6.2c0,0.1-0.3,0.4-1,0.9c-0.6-0.5-1-0.8-1-0.9v-6.2C55.6,139.5,55.9,139.2,56.5,138.6z M56.5,147.5
				c0.6,0.5,1,0.8,1,0.9v8.1c-0.1,0-0.7-0.6-1.9-1.9v-6.2C55.6,148.4,55.9,148.1,56.5,147.5z"/>
		</g>
	</g>
	<g id="8" show:initial="false" show:unit="11" show:channel="10">
		<g>
			<path d="M48.1,138.3c0.6,0.5,1,0.8,1,0.9v6.2c0,0.1-0.3,0.4-1,0.9c-0.6-0.5-1-0.8-1-0.9v-6.2C47.1,139.1,47.4,138.8,48.1,138.3z
				 M48.1,147.2c0.6,0.5,1,0.8,1,0.9v6.2c0,0.1-0.3,0.4-1,0.9c-0.6-0.5-1-0.8-1-0.9v-6.2C47.1,148,47.4,147.7,48.1,147.2z M49.4,137
				h6.2c0.1,0,0.4,0.3,0.9,1c-0.5,0.6-0.8,1-0.9,1h-6.2c-0.1,0-0.4-0.3-0.9-1C49,137.3,49.3,137,49.4,137z M49.3,145.8h6.3
				c0.3,0.3,0.5,0.6,0.8,1c-0.3,0.4-0.6,0.7-0.8,1h-6.3c-0.3-0.3-0.5-0.6-0.8-1C48.8,146.4,49,146.1,49.3,145.8z M49.4,154.6h6.2
				c0.1,0,0.4,0.3,0.9,1c-0.5,0.6-0.8,1-0.9,1h-6.2c-0.1,0-0.4-0.3-0.9-1C49,155,49.3,154.6,49.4,154.6z M56.8,138.3
				c0.6,0.5,1,0.8,1,0.9v6.2c0,0.1-0.3,0.4-1,0.9c-0.6-0.5-1-0.8-1-0.9v-6.2C55.9,139.1,56.2,138.8,56.8,138.3z M56.8,147.2
				c0.6,0.5,1,0.8,1,0.9v6.2c0,0.1-0.3,0.4-1,0.9c-0.6-0.5-1-0.8-1-0.9v-6.2C55.9,148,56.2,147.7,56.8,147.2z"/>
		</g>
	</g>
	<g id="9" show:initial="false" show:unit="00" show:channel="01">
		<g>
			<path d="M47.1,137.7c0.1,0,0.7,0.6,1.9,1.9v6.1c0,0.1-0.3,0.4-1,1c-0.1,0-0.4-0.3-1-1V137.7z M47.4,137.3h8.1
				c0.1,0,0.4,0.3,0.9,1c-0.5,0.6-0.8,1-0.9,1h-6.2C49.3,139.2,48.7,138.6,47.4,137.3z M49.4,146.1h6.2c0.1,0,0.4,0.3,0.9,1
				c-0.5,0.6-0.8,1-0.9,1h-6.2c-0.1,0-0.4-0.3-0.9-1C49,146.5,49.3,146.1,49.4,146.1z M56.8,138.6c0.6,0.5,1,0.8,1,0.9v6.2
				c0,0.1-0.3,0.4-1,0.9c-0.6-0.5-1-0.8-1-0.9v-6.2C55.9,139.5,56.2,139.2,56.8,138.6z M56.8,147.5c0.6,0.5,1,0.8,1,0.9v8.1
				c-0.1,0-0.7-0.6-1.9-1.9v-6.2C55.9,148.4,56.2,148.1,56.8,147.5z"/>
		</g>
	</g>
	<g id="10" show:initial="false" show:unit="10" show:channel="01">
		<g>
			<path d="M45.4,137.7v8c0,0.1-0.3,0.4-1,1c-0.1,0-0.4-0.3-1-1v-6.2L45.4,137.7z M44.4,147.6c0.1,0,0.4,0.3,1,1v8
				c-0.1,0-0.7-0.6-1.9-1.9v-6.1C43.4,148.5,43.7,148.1,44.4,147.6z"/>
		</g>
		<g>
			<path d="M48.1,138.4c0.6,0.5,1,0.8,1,0.9v6.2c0,0.1-0.3,0.4-1,0.9c-0.6-0.5-1-0.8-1-0.9v-6.2C47.1,139.2,47.4,138.9,48.1,138.4z
				 M48.1,147.2c0.6,0.5,1,0.8,1,0.9v6.2c0,0.1-0.3,0.4-1,0.9c-0.6-0.5-1-0.8-1-0.9v-6.2C47.1,148,47.4,147.7,48.1,147.2z M49.4,137
				h6.2c0.1,0,0.4,0.3,0.9,1c-0.5,0.6-0.8,1-0.9,1h-6.2c-0.1,0-0.4-0.3-0.9-1C49,137.3,49.3,137,49.4,137z M49.4,154.6h6.2
				c0.1,0,0.4,0.3,0.9,1c-0.5,0.6-0.8,1-0.9,1h-6.2c-0.1,0-0.4-0.3-0.9-1C49,155,49.3,154.7,49.4,154.6z M56.8,138.4
				c0.6,0.5,1,0.8,1,0.9v6.2c0,0.1-0.3,0.4-1,0.9c-0.6-0.5-1-0.8-1-0.9v-6.2C55.9,139.2,56.2,138.9,56.8,138.4z M56.8,147.2
				c0.6,0.5,1,0.8,1,0.9v6.2c0,0.1-0.3,0.4-1,0.9c-0.6-0.5-1-0.8-1-0.9v-6.2C55.9,148.1,56.2,147.8,56.8,147.2z"/>
		</g>
	</g>
	<g id="11" show:initial="false" show:unit="01" show:channel="01">
		<g>
			<path d="M56.6,137.6v8.2c0,0.1-0.3,0.4-1,1c-0.1,0-0.4-0.3-1-1v-6.3L56.6,137.6z M55.6,147.6c0.1,0,0.4,0.3,1,1v8.2
				c-0.1,0-0.7-0.7-2-2v-6.2C54.6,148.6,55,148.2,55.6,147.6z"/>
		</g>
		<g>
			<path d="M45.4,137.7v8.1c0,0.1-0.3,0.4-1,1c-0.1,0-0.4-0.3-1-1v-6.2L45.4,137.7z M44.4,147.5c0.1,0,0.4,0.3,1,1v8.1
				c-0.1,0-0.7-0.6-1.9-1.9v-6.1C43.4,148.5,43.7,148.1,44.4,147.5z"/>
		</g>
	</g>
	<g id="12" show:initial="false" show:unit="11" show:channel="01">
		<g>
			<path d="M45.4,137.7v8.1c0,0.1-0.3,0.4-1,1c-0.1,0-0.4-0.3-1-1v-6.2L45.4,137.7z M44.4,147.5c0.1,0,0.4,0.3,1,1v8.1
				c-0.1,0-0.7-0.6-1.9-1.9v-6.1C43.4,148.5,43.7,148.1,44.4,147.5z"/>
		</g>
		<g>
			<path d="M48.1,147.2c0.6,0.5,1,0.8,1,0.9v6.2c0,0.1-0.3,0.4-1,0.9c-0.6-0.5-1-0.8-1-0.9v-6.2C47.1,148,47.4,147.7,48.1,147.2z
				 M49.4,137h6.2c0.1,0,0.4,0.3,0.9,1c-0.5,0.6-0.8,1-0.9,1h-6.2c-0.1,0-0.4-0.3-0.9-1C49,137.3,49.3,137,49.4,137z M49.3,145.8
				h6.3c0.3,0.3,0.5,0.6,0.8,1c-0.3,0.4-0.6,0.7-0.8,1h-6.3c-0.3-0.3-0.5-0.6-0.8-1C48.8,146.4,49,146.1,49.3,145.8z M49.4,154.6
				h6.2c0.1,0,0.4,0.3,0.9,1c-0.5,0.6-0.8,1-0.9,1h-6.2c-0.1,0-0.4-0.3-0.9-1C49,155,49.3,154.6,49.4,154.6z M56.8,138.3
				c0.6,0.5,1,0.8,1,0.9v6.2c0,0.1-0.3,0.4-1,0.9c-0.6-0.5-1-0.8-1-0.9v-6.2C55.9,139.1,56.2,138.8,56.8,138.3z"/>
		</g>
	</g>
	<g id="13" show:initial="false" show:unit="00" show:channel="11">
		<g>
			<path d="M45.4,137.7v8.1c0,0.1-0.3,0.4-1,1c-0.1,0-0.4-0.3-1-1v-6.2L45.4,137.7z M44.4,147.5c0.1,0,0.4,0.3,1,1v8.1
				c-0.1,0-0.7-0.6-1.9-1.9v-6.1C43.4,148.5,43.7,148.1,44.4,147.5z"/>
		</g>
		<g>
			<path d="M48,137h6.2c0.1,0,0.4,0.3,0.9,1c-0.5,0.6-0.8,1-0.9,1H48c-0.1,0-0.4-0.3-0.9-1C47.6,137.3,47.9,137,48,137z M48,145.8
				h6.2c0.1,0,0.4,0.3,0.9,1c-0.5,0.6-0.8,1-0.9,1H48c-0.1,0-0.4-0.3-0.9-1C47.6,146.1,47.9,145.8,48,145.8z M48,154.6h6.2
				c0.1,0,0.4,0.3,0.9,1c-0.5,0.6-0.8,1-0.9,1H48c-0.1,0-0.4-0.3-0.9-1C47.6,155,47.9,154.6,48,154.6z M55.5,138.3
				c0.6,0.5,1,0.8,1,0.9v6.2c0,0.1-0.3,0.4-1,0.9c-0.6-0.5-1-0.8-1-0.9v-6.2C54.5,139.1,54.9,138.8,55.5,138.3z M55.5,147.2
				c0.6,0.5,1,0.8,1,0.9v6.2c0,0.1-0.3,0.4-1,0.9c-0.6-0.5-1-0.8-1-0.9v-6.2C54.5,148,54.9,147.7,55.5,147.2z"/>
		</g>
	</g>
	<g id="14" show:initial="false" show:unit="10" show:channel="11">
		<g>
			<path d="M45.4,137.7v8.1c0,0.1-0.3,0.4-1,1c-0.1,0-0.4-0.3-1-1v-6.2L45.4,137.7z M44.4,147.5c0.1,0,0.4,0.3,1,1v8.1
				c-0.1,0-0.7-0.6-1.9-1.9v-6.1C43.4,148.5,43.7,148.1,44.4,147.5z"/>
		</g>
		<g>
			<path d="M47.1,137.7c0.1,0,0.7,0.6,1.9,1.9v6.1c0,0.1-0.3,0.4-1,1c-0.1,0-0.4-0.3-1-1V137.7z M49.4,146.1h6.2
				c0.1,0,0.4,0.3,0.9,1c-0.5,0.6-0.8,1-0.9,1h-6.2c-0.1,0-0.4-0.3-0.9-1C49,146.5,49.3,146.1,49.4,146.1z M57.8,137.7v8.1
				c0,0.1-0.3,0.4-1,1c-0.1,0-0.4-0.3-1-1v-6.1C55.9,139.6,56.5,138.9,57.8,137.7z M56.8,147.5c0.6,0.5,1,0.8,1,0.9v8.1
				c-0.1,0-0.7-0.6-1.9-1.9v-6.2C55.9,148.4,56.2,148.1,56.8,147.5z"/>
		</g>
	</g>
	<g id="15" show:initial="false" show:unit="01" show:channel="11">
		<g>
			<path d="M45.4,137.7v8.1c0,0.1-0.3,0.4-1,1c-0.1,0-0.4-0.3-1-1v-6.2L45.4,137.7z M44.4,147.5c0.1,0,0.4,0.3,1,1v8.1
				c-0.1,0-0.7-0.6-1.9-1.9v-6.1C43.4,148.5,43.7,148.1,44.4,147.5z"/>
		</g>
		<g>
			<path d="M48.1,138.3c0.6,0.5,1,0.8,1,0.9v6.2c0,0.1-0.3,0.4-1,0.9c-0.6-0.5-1-0.8-1-0.9v-6.2C47.1,139.1,47.4,138.8,48.1,138.3z
				 M49.4,137h6.2c0.1,0,0.4,0.3,0.9,1c-0.5,0.6-0.8,1-0.9,1h-6.2c-0.1,0-0.4-0.3-0.9-1C49,137.3,49.3,137,49.4,137z M49.3,145.8
				h6.3c0.3,0.3,0.5,0.6,0.8,1c-0.3,0.4-0.6,0.7-0.8,1h-6.3c-0.3-0.3-0.5-0.6-0.8-1C48.8,146.4,49,146.1,49.3,145.8z M49.4,154.6
				h6.2c0.1,0,0.4,0.3,0.9,1c-0.5,0.6-0.8,1-0.9,1h-6.2c-0.1,0-0.4-0.3-0.9-1C49,155,49.3,154.6,49.4,154.6z M56.8,147.2
				c0.6,0.5,1,0.8,1,0.9v6.2c0,0.1-0.3,0.4-1,0.9c-0.6-0.5-1-0.8-1-0.9v-6.2C55.9,148,56.2,147.7,56.8,147.2z"/>
		</g>
	</g>
	<g id="16" show:initial="false" show:unit="11" show:channel="11">
		<g>
			<path d="M45.4,137.7v8.1c0,0.1-0.3,0.4-1,1c-0.1,0-0.4-0.3-1-1v-6.2L45.4,137.7z M44.4,147.5c0.1,0,0.4,0.3,1,1v8.1
				c-0.1,0-0.7-0.6-1.9-1.9v-6.1C43.4,148.5,43.7,148.1,44.4,147.5z"/>
		</g>
		<g>
			<path d="M48.1,138.3c0.6,0.5,1,0.8,1,0.9v6.2c0,0.1-0.3,0.4-1,0.9c-0.6-0.5-1-0.8-1-0.9v-6.2C47.1,139.1,47.4,138.8,48.1,138.3z
				 M48.1,147.2c0.6,0.5,1,0.8,1,0.9v6.2c0,0.1-0.3,0.4-1,0.9c-0.6-0.5-1-0.8-1-0.9v-6.2C47.1,148,47.4,147.7,48.1,147.2z M49.4,137
				h6.2c0.1,0,0.4,0.3,0.9,1c-0.5,0.6-0.8,1-0.9,1h-6.2c-0.1,0-0.4-0.3-0.9-1C49,137.3,49.3,137,49.4,137z M49.3,145.8h6.3
				c0.3,0.3,0.5,0.6,0.8,1c-0.3,0.4-0.6,0.7-0.8,1h-6.3c-0.3-0.3-0.5-0.6-0.8-1C48.8,146.4,49,146.1,49.3,145.8z M49.4,154.6h6.2
				c0.1,0,0.4,0.3,0.9,1c-0.5,0.6-0.8,1-0.9,1h-6.2c-0.1,0-0.4-0.3-0.9-1C49,155,49.3,154.6,49.4,154.6z M56.8,147.2
				c0.6,0.5,1,0.8,1,0.9v6.2c0,0.1-0.3,0.4-1,0.9c-0.6-0.5-1-0.8-1-0.9v-6.2C55.9,148,56.2,147.7,56.8,147.2z"/>
		</g>
	</g>
</g>
</svg>
