<?xml version="1.0" standalone="no"?>
<!DOCTYPE svg PUBLIC "-//W3C//DTD SVG 20010904//EN"
 "http://www.w3.org/TR/2001/REC-SVG-20010904/DTD/svg10.dtd">
<svg version="1.0" xmlns="http://www.w3.org/2000/svg"
 width="2000.000000pt" height="484.000000pt" viewBox="0 0 2000.000000 484.000000"
 preserveAspectRatio="xMidYMid meet">
<metadata>
Created by potrace 1.12, written by Peter Selinger 2001-2015
</metadata>
<g transform="translate(0.000000,484.000000) scale(0.100000,-0.100000)"
fill="#000000" stroke="none">
<path d="M8405 4769 c-2577 -32 -5276 -151 -7830 -344 -253 -19 -468 -35 -477
-35 -17 0 -18 -99 -18 -1930 l0 -1930 23 -4 c25 -5 183 -17 1072 -81 4241
-304 8119 -396 12005 -285 1577 45 3192 122 4840 230 736 49 1802 126 1858
136 l32 5 0 1925 c0 1531 -3 1926 -12 1929 -23 8 -1074 85 -1768 130 -3242
209 -6518 295 -9725 254z m3520 -319 c1791 -30 3452 -94 5430 -210 590 -35
625 -37 1405 -90 239 -17 505 -35 590 -40 85 -6 170 -13 188 -16 l32 -5 0
-1633 0 -1634 -57 -6 c-77 -8 -766 -60 -1218 -91 -1875 -129 -3868 -219 -5890
-265 -626 -14 -1718 -30 -2097 -30 l-318 0 0 2015 0 2015 673 0 c369 0 938 -5
1262 -10z m-9095 -1815 c4 -517 8 -675 18 -692 18 -33 44 -43 107 -43 65 0 62
4 90 -133 11 -54 15 -91 9 -97 -42 -42 -315 -59 -411 -27 -69 24 -134 84 -164
149 l-24 53 0 700 0 700 140 32 c77 17 160 30 185 30 l45 -2 5 -670z m840 475
l0 -200 -187 2 -188 3 -3 185 c-1 101 0 190 2 197 4 10 49 13 191 13 l185 0 0
-200z m738 -287 l2 -483 43 0 43 0 139 225 c76 124 143 229 149 233 8 6 370
-10 384 -17 10 -5 -19 -53 -170 -274 -95 -139 -172 -261 -172 -272 0 -11 82
-143 183 -293 103 -156 180 -280 177 -288 -4 -11 -45 -14 -220 -14 l-215 0
-112 198 c-150 263 -143 254 -188 250 l-36 -3 -5 -220 -5 -220 -176 -3 c-140
-2 -179 0 -188 11 -8 11 -10 221 -9 803 l3 788 145 32 c80 18 163 32 185 31
l40 -2 3 -482z m-3200 119 l2 -323 55 3 55 3 223 320 223 320 227 3 227 2 0
-33 c0 -28 -43 -91 -266 -392 -146 -197 -268 -364 -271 -371 -2 -7 126 -186
286 -398 205 -271 291 -392 291 -410 l0 -26 -233 0 -233 0 -239 340 -240 339
-52 1 -53 0 -2 -337 -3 -338 -195 0 -195 0 -3 813 -2 812 197 -2 198 -3 3
-323z m5230 320 c17 -11 506 -1588 498 -1607 -4 -13 -39 -15 -205 -15 -149 0
-202 3 -208 13 -4 6 -40 129 -79 272 l-71 260 -268 0 -268 0 -71 -260 c-39
-143 -75 -266 -79 -272 -6 -10 -59 -13 -208 -13 -166 0 -201 2 -205 15 -8 19
482 1596 498 1607 17 10 649 10 666 0z m1436 -442 c138 -20 248 -96 299 -208
21 -45 22 -61 25 -429 2 -249 -1 -389 -7 -402 -29 -54 -191 -130 -346 -162
-75 -16 -353 -17 -421 -1 -138 31 -228 88 -282 180 -25 43 -27 57 -31 170 -4
151 8 190 78 255 92 86 151 107 423 150 l203 33 3 36 c4 50 -20 92 -65 113
-58 28 -224 23 -392 -10 -74 -15 -137 -23 -141 -19 -11 12 -34 180 -26 199 25
66 460 126 680 95z m1394 -6 c136 -28 234 -93 284 -187 23 -42 23 -44 23 -512
l0 -470 -185 0 -185 0 -3 438 c-3 493 1 473 -78 503 -50 19 -178 16 -226 -7
l-28 -12 0 -451 c0 -248 -4 -457 -8 -464 -7 -9 -51 -12 -188 -10 l-179 3 -3
501 -2 502 40 35 c67 62 176 107 313 132 104 19 331 18 425 -1z m-5600 -611
l-3 -558 -174 -3 c-119 -2 -178 1 -187 9 -12 9 -14 105 -14 554 0 298 3 545 7
548 3 4 89 7 190 7 l183 0 -2 -557z"/>
<path d="M18590 3872 c-85 -22 -143 -58 -208 -126 -79 -83 -115 -168 -120
-282 -7 -151 33 -249 143 -353 170 -161 434 -159 605 5 100 95 140 188 140
324 0 136 -42 232 -145 329 -113 107 -261 143 -415 103z m276 -81 c79 -37 152
-109 191 -188 25 -53 28 -68 28 -163 0 -96 -3 -110 -29 -165 -35 -71 -115
-153 -180 -185 -104 -50 -238 -50 -343 1 -64 31 -144 114 -178 184 -27 55 -30
69 -30 165 0 95 3 111 28 163 51 103 156 189 264 217 69 17 177 5 249 -29z"/>
<path d="M18550 3450 l0 -240 45 0 45 0 0 90 0 90 33 0 c28 -1 39 -10 101 -90
l69 -90 60 0 c69 0 73 -13 -34 110 -36 41 -69 80 -72 87 -4 7 7 20 27 32 70
44 86 144 30 202 -33 35 -95 49 -214 49 l-90 0 0 -240z m203 159 c30 -16 37
-28 37 -65 0 -52 -28 -76 -93 -82 l-57 -4 0 81 0 81 46 0 c25 0 55 -5 67 -11z"/>
<path d="M12095 3276 l-140 -31 0 -700 0 -700 28 -57 c34 -69 92 -121 161
-145 104 -36 396 -12 413 34 6 16 -24 177 -39 206 -7 13 -21 17 -64 17 -62 0
-88 10 -106 43 -10 17 -14 175 -18 692 l-5 670 -45 2 c-25 0 -108 -13 -185
-31z"/>
<path d="M12797 3303 c-9 -8 -9 -356 -1 -377 5 -14 32 -16 190 -16 l184 0 0
200 0 200 -183 0 c-101 0 -187 -3 -190 -7z"/>
<path d="M13690 3278 c-74 -16 -141 -35 -147 -40 -20 -16 -19 -1571 1 -1587 9
-8 68 -11 187 -9 l174 3 5 220 5 220 40 3 41 3 128 -226 128 -225 214 0 c178
0 216 2 220 15 3 8 -70 129 -180 294 -102 155 -186 283 -186 287 0 3 79 122
176 265 96 143 174 265 171 272 -2 8 -60 15 -188 23 -171 10 -185 10 -200 -6
-8 -10 -76 -115 -149 -234 l-133 -217 -41 3 -41 3 -5 480 -5 480 -40 2 c-22 1
-101 -12 -175 -29z"/>
<path d="M15065 3277 l-160 -32 -3 -550 c-3 -609 0 -648 60 -770 119 -245 427
-362 823 -314 257 31 435 142 523 326 l37 78 0 645 0 645 -31 3 c-34 3 -364
-55 -376 -67 -4 -3 -9 -282 -10 -618 -3 -697 4 -644 -94 -693 -43 -22 -64 -25
-178 -29 -183 -5 -261 24 -308 112 l-23 42 -5 625 -5 625 -45 2 c-25 1 -117
-13 -205 -30z"/>
<path d="M16754 3297 c-2 -7 -3 -96 -2 -197 l3 -185 188 -3 187 -2 0 200 0
200 -185 0 c-142 0 -187 -3 -191 -13z"/>
<path d="M17640 3277 l-145 -32 -3 -655 c-2 -457 0 -675 8 -722 19 -110 80
-186 181 -225 87 -34 482 -14 522 26 7 7 5 48 -3 116 -15 123 -2 114 -169 118
-165 3 -155 -18 -159 342 l-3 284 158 3 158 3 3 121 c2 92 -1 124 -11 132 -8
7 -70 13 -158 14 l-144 3 -5 250 -5 250 -40 2 c-22 1 -105 -13 -185 -30z"/>
<path d="M10315 3258 c-3 -7 -4 -373 -3 -813 l3 -800 195 0 195 0 3 338 2 337
53 0 52 0 240 -340 240 -340 233 0 232 0 0 28 c-1 20 -76 127 -291 410 -160
211 -288 389 -286 395 3 7 124 173 271 371 226 304 266 364 266 392 l0 34
-227 -2 -226 -3 -224 -322 -225 -323 -54 0 -54 0 -2 323 -3 322 -193 3 c-148
2 -194 0 -197 -10z"/>
<path d="M12802 2203 l3 -558 176 -3 c140 -2 179 0 188 11 8 11 10 160 9 558
l-3 544 -188 3 -187 2 2 -557z"/>
<path d="M16757 2754 c-4 -4 -7 -251 -7 -549 0 -407 3 -544 12 -553 18 -18
352 -17 367 2 8 9 10 164 9 557 l-3 544 -186 3 c-102 1 -188 -1 -192 -4z"/>
<path d="M6057 2993 c-7 -12 -137 -497 -137 -511 0 -9 48 -12 185 -12 134 0
185 3 185 12 0 14 -130 499 -136 510 -7 10 -91 11 -97 1z"/>
<path d="M7670 2159 c-85 -10 -159 -43 -178 -79 -8 -16 -12 -52 -10 -97 4 -78
17 -101 73 -131 40 -20 177 -20 228 2 l37 15 0 150 0 151 -37 -1 c-21 -1 -72
-5 -113 -10z"/>
</g>
</svg>
