<?xml version="1.0" encoding="utf-8"?>
<!-- Generator: Adobe Illustrator 17.0.0, SVG Export Plug-In . SVG Version: 6.00 Build 0)  -->
<!DOCTYPE svg PUBLIC "-//W3C//DTD SVG 1.1//EN" "http://www.w3.org/Graphics/SVG/1.1/DTD/svg11.dtd">
<svg version="1.1" id="Layer_1" xmlns="http://www.w3.org/2000/svg" xmlns:xlink="http://www.w3.org/1999/xlink" x="0px" y="0px"
	 width="675.012px" height="998.34px" viewBox="0 0 675.012 998.34" enable-background="new 0 0 675.012 998.34"
	 xml:space="preserve">
<g>
	<path d="M611.917,998.34H63.096C28.305,998.34,0,970.036,0,935.245V63.095C0,28.304,28.305,0,63.096,0h548.821
		c34.791,0,63.095,28.304,63.095,63.095v872.15C675.012,970.036,646.708,998.34,611.917,998.34z M63.096,11.339
		c-28.539,0-51.757,23.218-51.757,51.756v872.15c0,28.539,23.218,51.757,51.757,51.757h548.821
		c28.538,0,51.757-23.218,51.757-51.757V63.095c0-28.539-23.219-51.756-51.757-51.756H63.096z"/>
</g>
<g>
	<path d="M343.256,356.954c-15.748,0-30.44-10.166-41.369-28.624c-10.654-17.993-16.521-41.856-16.521-67.193
		s5.867-49.2,16.521-67.192c10.929-18.458,25.621-28.624,41.369-28.624c15.747,0,30.439,10.166,41.368,28.624
		c10.654,17.993,16.521,41.855,16.521,67.192s-5.867,49.2-16.521,67.193C373.695,346.788,359.003,356.954,343.256,356.954z
		 M343.256,170.989c-28.795,0-52.221,40.44-52.221,90.147s23.426,90.148,52.221,90.148c28.794,0,52.22-40.44,52.22-90.148
		S372.05,170.989,343.256,170.989z"/>
</g>
<path fill="#0078CC" d="M383.829,307.535l5.182-2.993c0.551-1.724,1.069-3.483,1.556-5.274l-8.854,5.087
	c-0.591-0.3-2.579-1.698-4.03-2.551c-0.652-0.383-1.166-0.685-1.236-0.725c-0.648-0.362-1.098-0.628-1.547-0.892
	c-0.53-0.312-1.059-0.624-1.576-0.913l0.001-0.002c-0.308-0.173-0.622-0.364-0.947-0.562c-0.46-0.28-0.94-0.572-1.405-0.822
	l-0.004-12.709c1.051-0.584,2.777-1.598,4.595-2.667c3.097-1.821,6.252-3.825,6.367-3.819c0.115,0.007,2.802,1.699,5.698,3.393
	c2.063,1.207,4.118,2.409,5.297,3.064l0.011,3.769c0.479-2.546,0.896-5.14,1.243-7.779c-0.943-0.565-2.695-1.627-4.561-2.729
	c-2.204-1.302-4.481-2.647-5.796-3.368l-0.01-12.574l0.131-0.083c0.198-0.124,0.428-0.268,0.67-0.414l-0.001-0.001l10.349-5.953
	c0.122,0.066,0.281,0.156,0.438,0.244c-0.216-6.953-0.891-13.699-1.972-20.15c-1.076-0.655-2.618-1.601-4.25-2.554
	c-2.068-1.208-4.126-2.411-5.321-3.071l0.018-12.706c0.572-0.308,1.204-0.697,1.757-1.035c0.237-0.145,0.454-0.279,0.696-0.422
	c0.304-0.179,0.994-0.583,1.856-1.085c-0.419-1.218-0.854-2.417-1.305-3.598c-0.156,0.092-0.329,0.193-0.524,0.308
	c-1.625,0.956-4.251,2.679-4.399,2.678c-0.088,0-3.887-2.368-7.288-4.321v-0.006c-1.584-0.909-2.985-1.721-3.714-2.157l0.011-12.758
	c0.538-0.336,1.23-0.716,1.805-1.031l0.574-0.316c0.341-0.191,1.34-0.774,2.549-1.478c0.28-0.163,0.575-0.343,0.865-0.517
	c-0.727-1.052-1.469-2.073-2.228-3.057c-2.779,1.656-5.201,3.333-5.379,3.315c-0.063-0.007-2.42-1.46-5.067-3.023
	c-2.272-1.342-4.66-2.752-6.036-3.493l0.001-11.106c-1.325-0.677-2.671-1.267-4.037-1.763c0.09,0.053,0.177,0.105,0.252,0.15
	l-0.017,12.698l-5.529,3.232l0.002,0.003l-0.976,0.572c-1.61,0.946-4.324,2.724-4.484,2.725h-0.005
	c-0.062,0.001-4.093-2.504-7.557-4.492c-1.455-0.835-2.73-1.573-3.441-2c-0.077-3.521-0.034-8.522-0.001-12.269l0.004-0.434
	c0.124-0.074,0.283-0.168,0.431-0.255c-1.42,0.506-2.818,1.116-4.193,1.817c0.004,0.712,0.008,1.436,0.013,2.174
	c0.02,3.023,0.041,6.207-0.011,8.934c-1.232,0.671-3.363,1.926-5.486,3.178c-2.845,1.676-5.363,3.354-5.519,3.349
	c-0.189-0.006-2.708-1.664-5.506-3.313c-0.762,0.987-1.507,2.013-2.236,3.069c2.195,1.304,4.458,2.648,5.811,3.362l0.002,12.719
	c-1.215,0.645-3.229,1.84-5.274,3.053c-1.912,1.134-3.852,2.285-5.071,2.958l-5.367-3.068c-0.528,1.36-1.034,2.748-1.52,4.159
	l4.168,2.394c0.045,2.485,0.023,5.481,0.002,8.261c-0.011,1.534-0.022,3.029-0.026,3.763l-9.185,5.277
	c-1.144,6.488-1.874,13.283-2.138,20.295c0.016-0.011,0.037-0.031,0.052-0.04l8.883,5.09l0.002-0.003
	c0.138,0.081,0.38,0.227,0.625,0.375l-0.001,0.002c0.563,0.339,1.161,0.699,1.765,1.016l-0.019,12.688
	c-1.184,0.636-3.146,1.801-5.149,2.99c-2.041,1.211-4.03,2.453-5.065,3.082c0.362,2.858,0.803,5.666,1.319,8.416l0.003-3.669
	c0.832-0.524,2.411-1.416,3.698-2.142c0.813-0.459,1.526-0.862,1.827-1.041l0.22-0.132c1.149-0.688,5.022-3.19,5.148-3.174
	c0.128,0.016,2.531,1.538,4.257,2.547c0.678,0.396,1.216,0.711,1.489,0.864l0.002-0.003l4.674,2.697l-0.001,0.003l0.209,0.122
	c0.153,0.089,0.302,0.177,0.499,0.286c0.004,0.831,0.014,2.301,0.023,3.779c0.02,3.015,0.041,6.189-0.012,8.908
	c-1.232,0.671-3.364,1.927-5.487,3.178c-2.844,1.676-5.362,3.354-5.518,3.349c-0.202-0.007-2.991-1.851-5.97-3.585
	c-0.945-0.55-1.864-1.085-2.679-1.556c0.487,1.794,1.007,3.557,1.559,5.285c1.981,1.176,3.939,2.331,5.158,2.974l0.002,10.25
	c1.081,2.305,2.226,4.516,3.432,6.626l9.495,5.441l0,7.714c1.226,1.327,2.485,2.572,3.776,3.724l0.021-11.43
	c0.727-0.441,2.002-1.182,3.444-2.01l0.003,0.004c3.458-1.985,7.46-4.476,7.522-4.475c0.109,0.001,3.354,2.049,6.589,3.906
	c1.843,1.058,3.551,2.051,4.42,2.581l-0.001,12.716c-1.308,0.793-4.218,2.495-6.804,3.982c-1.615,0.928-2.904,1.757-3.611,2.193
	c1.522,0.637,3.07,1.161,4.64,1.562l7.915-4.529c0.67,0.351,2.988,1.917,5.579,3.432c0.635,0.371,1.263,0.738,1.866,1.09
	c1.594-0.408,3.164-0.943,4.708-1.595c-0.184-0.135-0.408-0.29-0.736-0.478c-1.687-0.963-3.935-2.268-4.278-2.473l-0.022-0.017
	l-5.471-3.133l0.012-12.723c1.241-0.673,3.338-1.913,5.432-3.151c2.84-1.679,5.374-3.371,5.525-3.364
	c0.11,0.005,2.625,1.609,5.406,3.25c2.179,1.286,4.383,2.587,5.631,3.262c0.034,1.394,0.047,3.133,0.049,4.943
	c0.002,2.193-0.015,4.496-0.035,6.438c1.299-1.16,2.566-2.414,3.799-3.752l0.011-7.617c0.571-0.308,1.202-0.695,1.753-1.034
	c0.238-0.145,0.454-0.278,0.699-0.423c0.801-0.473,4.242-2.48,6.646-3.841c0.139-0.079,0.243-0.151,0.36-0.226
	c1.191-2.087,2.324-4.273,3.393-6.551L383.829,307.535z M380.06,275.557l-3.047,1.793c-3.473,2.042-7.873,4.706-7.956,4.745
	c-0.138-0.041-3.964-2.415-7.34-4.374c-1.593-0.924-2.987-1.739-3.657-2.145v-12.774c0.506-0.318,1.295-0.757,1.873-1.078
	l0.468-0.261l0.011-0.005c0.556-0.315,1.102-0.633,1.79-1.035c2.58-1.505,6.606-4.084,6.768-4.065
	c0.055,0.007,3.536,2.094,5.081,2.998v0.005l0.653,0.382h0.006c0.211,0.122,0.464,0.273,1.1,0.644l0.002-0.004
	c0.609,0.357,1.216,0.712,2.031,1.172l-0.001,0.003c0.065,0.037,0.242,0.132,0.453,0.245l-0.001,0.002
	c0.583,0.313,1.495,0.642,1.766,0.812V275.557z M332.273,262.552c0-0.049,0.003-0.069,0.007-0.068l0.015,0.031
	c0.023,0.069,0.061,0.229,0.102,0.209c0.137-0.066,0.277-0.135,0.48-0.253l0.001,0.002l10.601-6.087
	c0.579,0.287,3.296,2.091,6.059,3.724c1.861,1.1,3.633,2.147,4.731,2.74l-0.019,12.695c-0.478,0.258-0.951,0.546-1.408,0.826
	c-0.372,0.227-0.736,0.45-1.012,0.604c-0.764,0.427-1.384,0.785-1.995,1.138c-0.438,0.253-0.858,0.496-1.155,0.666h-0.005
	c-0.088,0.05-0.416,0.245-0.861,0.509c-1.412,0.838-3.691,2.584-4.242,2.786l-10.642-6.118l-0.001,0.001
	c-0.2-0.118-0.307-0.176-0.418-0.234c-0.136-0.072-0.184,0.302-0.238,0.259V262.552z M331.142,258.738l-0.006,0.005l-0.021,0.012
	l-0.322,0.189h-0.005c-0.351,0.208-0.457,0.308-0.476,0.301c-0.276-0.101-0.8-0.427-1.689-0.98c-0.93-0.579-2.222-1.383-4.051-2.43
	l-0.003,0.004l-4.693-2.703l-0.001,0.001c-0.211-0.125-0.35-0.192-0.483-0.256c-0.004-0.002-0.007,0.007-0.011,0.022
	c-0.021,0.091-0.038,0.42-0.038,0.206v-0.128v-12.977c0.633-0.372,3.199-1.794,4.558-2.547l0.001,0.002
	c0.429-0.237,0.751-0.416,0.896-0.502c0.431-0.255,2.773-1.618,4.404-2.549c0.822-0.469,1.057-0.792,1.227-0.812
	c0.239,0.024,2.841,1.798,5.735,3.498c2.015,1.183,3.997,2.347,5.171,2.99l0.021,13.133c-0.177,0.183-0.799,0.088-1.79,0.677v0.006
	c-2.311,1.375-5.984,3.447-6.86,3.939C332.272,258.084,331.689,258.422,331.142,258.738z M349.335,255.256
	c-0.852-0.496-1.525-0.888-1.921-1.114c-0.067-0.038-0.252-0.139-0.469-0.257c-0.547-0.298-1.399-0.763-1.774-0.976v-12.817
	l0.248-0.139l-0.001-0.002c0.166-0.092,0.315-0.176,0.497-0.284l0.001,0.003l10.485-6c0.67,0.35,2.986,1.917,5.577,3.431
	c2.034,1.189,4.035,2.36,5.189,3l0,12.718c-1.231,0.659-3.249,1.856-5.286,3.064c-2.87,1.703-5.639,3.435-5.71,3.432
	C356.03,259.309,351.981,256.797,349.335,255.256z M384.068,234.963c2.509,1.422,5.876,3.386,6.676,3.864
	c0.285,0.17,0.592,0.333,0.917,0.505c0.551,0.291,1.118,0.424,1.298,0.541l-0.034,12.868l-11.096,6.372
	c-1.252-0.666-4.31-2.455-6.475-3.722c-1.042-0.609-1.887-1.104-2.205-1.284h-0.006l-0.702-0.407
	c-0.319-0.184-0.646-0.373-0.867-0.497c-0.057-0.032-0.166-0.089-0.286-0.15c-0.136-0.07-0.332,0.802-0.332,0.316v-13.758
	c0-0.044,0.001-0.075,0.003-0.096c0.01-0.091,0.039,0.026,0.077,0.16c0.039,0.136,0.086,0.291,0.13,0.269
	c0.158-0.076,0.309-0.149,0.487-0.255c1.024-0.603,4.922-2.867,7.827-4.516c1.544-0.876,2.285-1.54,2.468-1.54v0.006
	C382.114,233.637,382.742,234.211,384.068,234.963z M374.429,214.513c2.175,1.284,4.376,2.583,5.622,3.257
	c0.034,1.395,0.048,3.134,0.049,4.946c0.002,2.708-0.023,5.594-0.05,7.747c-1.157,0.623-3.069,1.762-5.037,2.935
	c-2.907,1.731-5.743,3.563-5.884,3.578c-0.168-0.021-0.448-0.363-1.312-0.856c-1.687-0.963-3.934-2.267-4.277-2.472l-0.022-0.017
	l-5.471-3.133l0.012-12.723c1.24-0.673,3.334-1.912,5.427-3.149c2.841-1.68,5.379-3.373,5.529-3.366
	C369.122,211.264,371.646,212.871,374.429,214.513z M345.181,195.42c1.225-0.661,3.276-1.874,5.339-3.095
	c2.547-1.506,4.789-3.064,5.382-3.361l8.904,5.101l0.002-0.002l0.438,0.267c0.556,0.339,1.287,0.785,1.923,1.127l-0.003,12.653
	c-1.201,0.646-3.197,1.837-5.225,3.046c-2.875,1.714-5.656,3.479-5.739,3.475c-0.101-0.005-2.535-1.549-5.27-3.161
	c-2.198-1.296-4.456-2.627-5.766-3.335L345.181,195.42z M343.258,211.26c0.111,0.001,3.342,2.044,6.573,3.9
	c1.847,1.061,3.56,2.057,4.431,2.587l-0.001,12.715c-1.309,0.793-4.218,2.495-6.803,3.981c-2.359,1.356-4.056,2.521-4.194,2.521
	c-0.146,0-1.298-0.857-3.205-1.951c-2.787-1.598-6.277-3.645-7.797-4.552l0.023-12.718c0.725-0.438,2.005-1.18,3.457-2.014
	c3.453-1.982,7.429-4.47,7.495-4.469H343.258z M319.369,195.441c1.194-0.645,3.193-1.835,5.226-3.046
	c2.878-1.714,5.628-3.485,5.729-3.479c0.085,0.005,2.447,1.498,5.113,3.08c2.236,1.327,4.561,2.707,5.909,3.431l0,12.699
	c-0.458,0.25-0.919,0.53-1.38,0.809c-0.358,0.217-0.717,0.436-1.037,0.616l-0.011,0.006l-6.248,3.6l-0.002-0.003
	c-0.122,0.069-0.369,0.22-0.668,0.403c-0.682,0.419-1.336,1.107-1.536,1.086h-0.006c-0.155-0.015-2.473-1.52-4.17-2.51
	c-0.647-0.377-1.158-0.675-1.442-0.835l0-0.001l-5.479-3.133L319.369,195.441z M306.43,223.466c0.017-1.899,0.033-3.797,0.013-5.683
	v-0.011l-0.001-0.025c0.036-0.017,0.078-0.037,0.128-0.065c0.219-0.119,0.488-0.266,0.726-0.402l0.005-0.006l6.339-3.656
	l0.022-0.011c0.822-0.491,1.375-0.829,1.838-1.112c1.19-0.727,1.792-1.095,2.049-1.157c0.096-0.023,0.03,0.102,0.282,0.26
	c0.217,0.136,0.472,0.297,0.794,0.48l-0.001,0.002l9.857,5.648v12.709c-0.467,0.253-0.943,0.542-1.41,0.826l0.001,0.003
	c-0.358,0.218-0.711,0.432-1.008,0.599c-0.475,0.268-1.287,0.743-2.284,1.327c-1.835,1.074-4.273,2.501-5.706,3.298l-11.648-6.708
	C306.394,227.688,306.412,225.576,306.43,223.466z M295.692,253.367l-0.542-0.331c-0.549-0.336-1.215-0.745-1.815-1.066l0-12.67
	l7.71-4.453c0.212-0.124,0.55-0.313,0.884-0.502c0.38-0.214,0.765-0.43,1.281-0.739c0.253-0.151,0.35-0.207,0.438-0.258l0.129-0.075
	c1.294,0.838,3.731,2.195,6.154,3.543c2.11,1.175,4.21,2.344,5.442,3.103c-0.009,1.491,0.019,3.038,0.048,4.598
	c0.046,2.545,0.094,5.127-0.028,7.512c-0.655,0.393-2.182,1.281-3.918,2.283c-2.915,1.683-6.092,3.622-6.914,4.095L295.692,253.367z
	 M308.768,276.881l-0.001,0.002c-0.126-0.072-0.29-0.161-0.493-0.271c-0.626-0.337-1.644-0.414-1.833-0.671l0.017-13.091
	c1.183-0.635,3.133-1.794,5.127-2.978c2.908-1.728,5.777-3.523,5.846-3.519c0.078,0.004,3.518,2.106,6.787,3.983
	c1.794,1.031,3.435,1.985,4.247,2.482c0.076,2.392,0.046,6.103,0.02,9.28c-0.012,1.447-0.023,2.791-0.027,3.463l-11.028,6.286
	L308.768,276.881z M327.072,321.047c-0.359,0.218-0.719,0.436-1.039,0.617l-0.011,0.006l-6.248,3.599l-0.002-0.003
	c-0.123,0.069-0.371,0.221-0.672,0.406c-0.683,0.419-1.34,1.104-1.538,1.085c-0.16-0.016-2.457-1.511-4.154-2.501
	c-0.653-0.381-1.173-0.684-1.458-0.844l0-0.001l-5.48-3.133l0.002-12.725c1.198-0.646,3.197-1.836,5.228-3.046
	c2.878-1.714,5.626-3.483,5.727-3.478c0.083,0.005,2.45,1.499,5.117,3.082c2.235,1.326,4.558,2.706,5.905,3.429l0,12.699
	C327.992,320.488,327.532,320.768,327.072,321.047z M330.355,304.409c-0.062,0.001-4.091-2.504-7.556-4.491
	c-1.456-0.835-2.731-1.574-3.442-2.001c-0.077-3.534-0.033-8.557-0.001-12.309l0.003-0.394c2.651-1.57,10.926-6.516,10.996-6.516
	c0.095,0.001,3.78,2.301,7.15,4.237c1.653,0.95,3.124,1.803,3.859,2.244l-0.017,12.697l-5.529,3.232l0.002,0.003l-0.989,0.579
	C333.218,302.638,330.51,304.407,330.355,304.409z M354.268,320.223c-1.2,0.646-3.196,1.836-5.223,3.045
	c-2.876,1.715-5.659,3.48-5.742,3.477c-0.095-0.004-2.539-1.548-5.271-3.159l0.001-0.002c-2.198-1.296-4.456-2.627-5.765-3.334
	l0.015-12.716c1.224-0.661,3.275-1.874,5.339-3.094c2.548-1.507,4.789-3.065,5.382-3.361l8.903,5.101l0.001-0.002l0.444,0.27
	c0.555,0.338,1.284,0.783,1.917,1.124L354.268,320.223z M351.184,301.39c-2.272-1.342-4.66-2.752-6.035-3.493l0.002-12.727
	l5.559-3.18l0.017-0.011c0.56-0.331,1.007-0.583,1.454-0.836c0.548-0.31,1.095-0.62,1.684-0.971l0.005-0.005l0.327-0.199h0.006
	c0.674-0.411,1.758-1.278,1.915-1.271c0.124,0.005,2.714,1.658,5.57,3.331c2.117,1.24,4.243,2.486,5.465,3.157
	c0.027,2.118,0.056,5.222,0.054,8.05c-0.001,1.751-0.015,3.403-0.049,4.655c-1.218,0.654-3.292,1.884-5.379,3.121
	c-2.841,1.684-5.344,3.423-5.526,3.404C356.189,304.406,353.831,302.953,351.184,301.39z M380.043,320.229l-5.531,3.214l0,0.001
	c-0.119,0.068-0.538,0.315-1.063,0.623c-1.626,0.957-4.243,2.675-4.392,2.674c-0.087,0-3.89-2.37-7.293-4.324v-0.006
	c-1.583-0.909-2.983-1.72-3.71-2.157l0.011-12.755c0.538-0.336,1.23-0.715,1.805-1.031c0.229-0.126,0.443-0.243,0.574-0.317
	c0.337-0.189,1.338-0.773,2.543-1.475c2.594-1.513,5.842-3.643,6.039-3.64c0.149,0.002,2.628,1.636,5.542,3.305
	c2.209,1.265,4.406,2.537,5.473,3.177V320.229z"/>
</svg>
