<?xml version="1.0" encoding="utf-8"?>
<!-- Generator: Adobe Illustrator 17.0.0, SVG Export Plug-In . SVG Version: 6.00 Build 0)  -->
<!DOCTYPE svg PUBLIC "-//W3C//DTD SVG 1.1//EN" "http://www.w3.org/Graphics/SVG/1.1/DTD/svg11.dtd">
<svg version="1.1" id="Layer_1" xmlns="http://www.w3.org/2000/svg" xmlns:xlink="http://www.w3.org/1999/xlink" x="0px" y="0px"
	 width="169.773px" height="423.488px" viewBox="0 0 169.773 423.488" enable-background="new 0 0 169.773 423.488"
	 xml:space="preserve" xmlns:pulse="-">
<g>
	<path d="M152.766,423.488H17.008C7.629,423.488,0,415.858,0,406.48V17.008C0,7.63,7.629,0,17.008,0h135.758
		c9.378,0,17.008,7.629,17.008,17.008V406.48C169.773,415.858,162.144,423.488,152.766,423.488z M17.008,5.669
		c-6.252,0-11.339,5.087-11.339,11.339V406.48c0,6.252,5.086,11.338,11.339,11.338h135.758c6.252,0,11.338-5.086,11.338-11.338
		V17.008c0-6.252-5.086-11.339-11.338-11.339H17.008z"/>
</g>
<g>
	<path d="M118.095,406.466H51.678c-4.605,0-8.352-3.746-8.352-8.351v-91.133c0-4.604,3.747-8.351,8.352-8.351h66.417
		c4.605,0,8.352,3.746,8.352,8.351v91.133C126.446,402.72,122.7,406.466,118.095,406.466z M51.678,301.466
		c-3.042,0-5.517,2.475-5.517,5.517v91.133c0,3.042,2.475,5.517,5.517,5.517h66.417c3.042,0,5.518-2.475,5.518-5.517v-91.133
		c0-3.042-2.476-5.517-5.518-5.517H51.678z"/>
</g>
<g>
	<path d="M118.095,400.797H51.678c-1.479,0-2.682-1.203-2.682-2.682v-91.133c0-1.479,1.203-2.682,2.682-2.682h66.417
		c1.479,0,2.682,1.203,2.682,2.682v91.133C120.776,399.594,119.573,400.797,118.095,400.797z M51.831,397.963h66.111v-90.828H51.831
		V397.963z"/>
</g>
<g>
	<rect x="135.74" y="2.835" width="2.834" height="417.818"/>
</g>
<g>
	<rect x="31.198" y="2.835" width="2.835" height="417.818"/>
</g>
<g>
	<path d="M84.887,46.735c-5.479,0-9.938-4.458-9.938-9.938s4.458-9.938,9.938-9.938s9.938,4.458,9.938,9.938
		S90.366,46.735,84.887,46.735z M84.887,28.277c-4.698,0-8.52,3.822-8.52,8.52s3.822,8.52,8.52,8.52s8.52-3.822,8.52-8.52
		S89.585,28.277,84.887,28.277z"/>
</g>
<rect pulse:initial="true" x="51.831" y="307.135" fill="#FFFFFF" width="66.111" height="90.828"/>
</svg>
