<svg width="280.18" height="395.7950000000001" xmlns="http://www.w3.org/2000/svg">
 <style type="text/css">
  <![CDATA[
    svg .move {
        -moz-animation: move 2s infinite ease-in-out alternate;
        -webkit-animation: move 2s infinite ease-in-out alternate;
        -ms-animation: move 2s infinite ease-in-out alternate;
        animation: move 2s infinite ease-in-out alternate;
    }

    @-webkit-keyframes move {
        from {
            transform: rotate(8deg) translate(50px, -30px);
        }
        20% {
            transform: rotate(8deg) translate(50px, -30px);
        }
        80% {
            transform: rotate(0.5deg) translate(-64px, -5px);
        }
        to {
            transform: rotate(0.5deg) translate(-64px, -5px);
        }
    }

    @keyframes move {
        from {
            transform: rotate(8deg) translate(50px, -30px);
        }
        20% {
            transform: rotate(8deg) translate(50px, -30px);
        }
        80% {
            transform: rotate(0.5deg) translate(-64px, -5px);
        }
        to {
            transform: rotate(0.5deg) translate(-64px, -5px);
        }
    }
   ]]>
 </style>

 <g>
  <title>background</title>
  <rect fill="none" id="canvas_background" height="402" width="582" y="-1" x="-1"/>
 </g>
 <g>
  <title>Layer 1</title>
  <path id="svg_8" d="m170.262426,379.104507l-8.538215,-4.621579l-0.689655,-8.620694l4.137933,-14.482765l50.000023,-172.758699c0.262352,0.138803 5.779597,-5.723269 6.124425,-5.723269c0.344828,0 6.896555,-2.413794 6.634202,-2.552597c0.262353,0.138802 7.848564,-0.550853 7.58621,-0.689655c0.262354,0.138802 9.227876,-0.550853 8.965521,-0.689655c0.262355,0.138802 9.572704,1.862941 9.572704,1.518113c0,-0.344828 4.137933,0 3.875577,-0.138802c0.262356,0.138802 4.055461,3.931908 3.793105,3.793105c0.262356,0.138803 2.331323,7.380186 2.068966,7.241383c0.262356,0.138803 -19.047999,97.035406 -19.310354,96.896596c0.262355,0.13881 -30.082489,97.035413 -30.344841,96.896596c0.262352,0.138818 -10.082481,10.828479 -10.344832,10.68966c0.262352,0.138819 -25.944559,-2.274976 -25.944559,-1.58532" fill-opacity="null" stroke-opacity="null" stroke-width="0" stroke="#000" fill="#fff"/>
  <g id="svg_1">
   <path id="svg_2" d="m200.169,62.002l0.209,0.306l0.648,-3.321c2.328,-11.935 -12.181,-31.555 -21.321,-43.914c-0.974,-1.317 -1.884,-2.548 -2.888,-3.932c-0.304,-0.565 -0.635,-1.095 -0.989,-1.591c-1.869,-2.621 -4.356,-4.265 -6.789,-5.015c-1.062,-0.327 -2.112,-0.488 -3.095,-0.488l0,0.004l-25.574,-4.051l-19.627,2.428l-0.05,-0.006c-3.855,0 -9.461,1.946 -14.207,5.718c-3.725,2.961 -6.958,7.059 -8.461,12.243l0,0l-96.995,318.924l-0.005,0.022c-0.328,1.137 -0.596,2.356 -0.773,3.614c-0.53,3.759 -0.297,8.005 1.446,11.737c0.927,1.985 2.271,3.814 4.138,5.337c4.833,4.83 13.65,13.013 21.003,19.259c5.598,4.755 10.438,8.418 12.277,8.763l0.05,0.011l45.568,6.941l0.005,0c2.868,0.424 9.805,-0.808 15.727,-4.767c3.941,-2.634 7.486,-6.473 9.199,-11.828l-0.053,-0.017l0.07,0.02l90.487,-316.397zm-195.914,291.482c-1.481,-3.171 -1.668,-6.857 -1.203,-10.154c0.161,-1.14 0.396,-2.22 0.679,-3.205l0.001,0l97,-318.939l0.005,-0.016c1.32,-4.554 4.192,-8.18 7.509,-10.815c4.232,-3.363 9.13,-5.098 12.447,-5.098l0,-0.004l16.329,-2.145c-10.369,11.529 -26.316,64.776 -45.993,130.483c-4.455,14.876 -9.061,30.258 -13.769,45.694c-7.485,24.542 -15.085,48.846 -22.435,72.35c-18.713,59.841 -30.622,98.327 -33.005,112.784c-6.663,-2.247 -15.204,-5.879 -17.565,-10.935zm77.599,-3.72l0.004,0.001c-0.222,0.736 -6.172,19.875 -23.534,17.424l-31.888,-1.315c-0.977,-0.291 -2.096,-0.631 -3.299,-1.021c2.522,-15.196 16.834,-60.966 33.042,-112.796c7.351,-23.506 14.952,-47.813 22.438,-72.359c4.708,-15.439 9.315,-30.823 13.771,-45.701c19.154,-63.962 37.288,-124.51 46.96,-131.195l0.079,-0.01l26.468,4.084l0.05,0.006c0.723,0 1.492,0.117 2.265,0.355c1.892,0.583 3.836,1.877 5.316,3.952c1.516,2.126 2.543,5.08 2.543,8.948c0,2.528 -0.436,5.43 -1.451,8.724c-5.169,16.761 -92.512,320.031 -92.764,320.903z"/>
   <path id="svg_3" d="m275.462,187.401c-3.034,-4.446 -6.966,-8.87 -10.004,-12.288l-0.951,-1.07c-0.299,-0.338 -0.609,-0.69 -0.944,-1.075c-0.1,-0.152 -0.206,-0.303 -0.317,-0.451c-0.122,-0.162 -0.243,-0.314 -0.361,-0.452c-0.625,-0.729 -1.339,-1.32 -2.092,-1.779c-0.82,-0.5 -1.685,-0.845 -2.534,-1.043c-0.35,-0.082 -0.702,-0.14 -1.051,-0.174c-0.344,-0.034 -0.681,-0.044 -1.007,-0.031l-16.135,-1.388l-0.041,-0.003l-0.05,0.007l-12.296,1.69l-0.01,-0.001l-0.027,0.001c-1.317,0.057 -2.925,0.44 -4.581,1.128c-1.502,0.624 -3.054,1.504 -4.47,2.623c-1.229,0.971 -2.362,2.123 -3.281,3.446c-0.832,1.198 -1.492,2.538 -1.892,4.01l-0.009,0.034l-53.174,185.077l-0.004,0.02l-0.001,0c-0.092,0.342 -0.175,0.701 -0.246,1.073c-0.067,0.353 -0.122,0.714 -0.163,1.079c-0.132,1.186 -0.12,2.451 0.105,3.703c0.2,1.11 0.567,2.208 1.149,3.229c0.342,0.6 0.755,1.172 1.249,1.701c0.465,0.5 1.002,0.963 1.616,1.379c1.68,1.396 4.062,3.282 6.63,5.239c2.328,1.774 4.813,3.612 7.074,5.206c1.058,0.745 3.032,2.023 4.935,3.01c1.316,0.683 2.608,1.23 3.561,1.376l0.018,0.002l28.539,3.098l0.044,0.005l0.013,-0.001c1.073,0.085 2.923,-0.162 4.98,-0.826c1.629,-0.525 3.401,-1.314 5.034,-2.405c1.319,-0.881 2.559,-1.962 3.58,-3.263c0.827,-1.056 1.509,-2.257 1.971,-3.614l0.03,0.007l0.104,-0.389l0.084,-0.313l0.031,-0.103l-0.004,-0.001l48.825,-182.279l0.206,0.25l0.155,-0.917l0.325,-1.918c0.608,-3.575 -1.54,-8.107 -4.613,-12.609zm-105.941,190.229c-2.718,-1.03 -5.172,-2.364 -6.126,-4.038c-0.447,-0.785 -0.73,-1.642 -0.882,-2.52c-0.175,-1.004 -0.181,-2.031 -0.074,-3.001c0.035,-0.312 0.081,-0.615 0.135,-0.907c0.055,-0.293 0.121,-0.581 0.195,-0.858l0.005,-0.017l53.188,-185.125l0,0l0.002,-0.006l0.003,-0.008c0.327,-1.204 0.87,-2.302 1.557,-3.286c0.77,-1.103 1.722,-2.069 2.757,-2.886c1.201,-0.948 2.505,-1.695 3.761,-2.225c1.363,-0.575 2.664,-0.895 3.708,-0.94l0.461,-0.02l-0.006,-0.045l8.783,-1.261c-5.871,8.014 -13.681,34.922 -25.005,75.034c-2.438,8.635 -4.958,17.563 -7.541,26.525c-4.104,14.242 -8.288,28.353 -12.334,41.998c-10.093,34.039 -16.59,56.212 -17.917,65.049c-1.498,-0.394 -3.123,-0.877 -4.67,-1.463zm92.909,-196.889c-0.111,0.8 -0.295,1.655 -0.56,2.565c-0.957,3.283 -6.888,25.07 -14.367,52.652c-14.921,55.028 -36.015,133.152 -36.106,133.489l-0.023,0.084c-0.165,0.539 -1.021,3.124 -3.011,5.573c-2.136,2.627 -5.588,5.09 -10.909,4.641l-0.002,0l-0.034,0l-20.067,0.117c-0.553,-0.124 -1.18,-0.269 -1.848,-0.433c1.406,-9.138 9.481,-36.378 17.962,-64.981c4.047,-13.647 8.231,-27.761 12.337,-42.008c2.584,-8.966 5.105,-17.896 7.544,-26.533c10.154,-35.968 19.781,-70.063 25.636,-75.705l0.535,-0.077l16.688,1.382l0.013,0l0.031,0.002l0.018,0.001l0.022,-0.001c0.21,-0.009 0.428,-0.003 0.65,0.019c0.215,0.021 0.44,0.059 0.671,0.113c0.586,0.137 1.187,0.378 1.756,0.727c0.524,0.322 1.024,0.737 1.464,1.252c0.496,0.579 0.918,1.283 1.221,2.12c0.279,0.772 0.458,1.661 0.501,2.672c0.031,0.715 -0.006,1.492 -0.122,2.329z" class="mov2e"/>
  </g>
  <path id="svg_7" d="m-89.392884,73.242276c-0.344828,46.551749 73.793142,-6.551728 73.793142,-6.896555" opacity="0.5" fill-opacity="null" stroke-opacity="null" stroke-width="0" stroke="#000" fill="#fff"/>
 </g>
</svg>