<?xml version="1.0" encoding="utf-8"?>
<!-- Generator: Adobe Illustrator 17.0.0, SVG Export Plug-In . SVG Version: 6.00 Build 0)  -->
<!DOCTYPE svg PUBLIC "-//W3C//DTD SVG 1.1//EN" "http://www.w3.org/Graphics/SVG/1.1/DTD/svg11.dtd">
<svg version="1.1" id="Layer_1" xmlns="http://www.w3.org/2000/svg" xmlns:xlink="http://www.w3.org/1999/xlink" x="0px" y="0px"
	 width="587.201px" height="917.896px" viewBox="0 0 587.201 917.896" enable-background="new 0 0 587.201 917.896"
	 xml:space="preserve">
<path d="M581.945,897.357c-0.606-0.372-1.219-0.741-1.835-1.11c-19.295-11.545-42.239-21.33-68.451-29.306
	c0.871-3.546,1.742-7.091,2.617-10.636c7.461-30.24,15.177-61.511,20.141-92.901c19.478-123.175,28.456-246.023,26.685-365.135
	c-1.771-119.128-14.345-237.869-37.372-352.926l-0.16-0.584c-5.48-15.484-15.099-26.28-28.589-32.086
	c-12.023-5.174-40.213-6.407-60.797-7.308c-5.167-0.226-9.63-0.421-13.18-0.65c-26.042-1.677-55.792-3.049-88.424-4.079
	c-26.004-0.819-49.563-0.849-74.137-0.094c-33.855,1.041-64.622,2.445-91.445,4.173c-3.55,0.229-8.013,0.424-13.18,0.65
	c-20.583,0.9-48.774,2.133-60.797,7.308c-13.49,5.806-23.109,16.602-28.588,32.086l-0.161,0.584
	C41.245,160.398,28.671,279.139,26.899,398.268c-1.771,119.111,7.207,241.96,26.686,365.135c4.916,31.085,12.52,61.85,19.874,91.602
	c0.982,3.975,1.962,7.956,2.94,11.939c-26.776,8.141-50.144,18.164-69.7,30.023l-0.778,0.474c-2.858,1.697-6.773,4.021-5.781,8.072
	c0.989,4.041,5.877,4.313,7.718,4.414c95.234,5.288,191.647,7.969,286.561,7.97c0.011,0,0.015,0,0.026,0
	c94.045,0,189.283-2.635,283.055-7.829c2.74-0.151,8.443-0.468,9.549-4.852C588.083,901.115,583.98,898.603,581.945,897.357z
	 M560.688,895.291c-56.086-10.645-104.882-20.824-145.274-30.31c-79.426-18.13-163.395-18.129-242.84,0.003
	c-40.375,9.482-89.163,19.66-145.242,30.304c59.1-29.755,146.968-45.41,255.896-45.41c3.613,0,7.253,0.018,10.999,0.052
	c3.673-0.034,7.299-0.052,10.919-0.052C413.844,849.877,501.632,865.537,560.688,895.291z M154.189,13.86
	c5.214-0.228,9.717-0.425,13.355-0.659c26.729-1.722,57.399-3.121,91.16-4.159c24.393-0.75,47.781-0.721,73.607,0.094
	c32.539,1.026,62.195,2.394,88.145,4.065c3.638,0.234,8.141,0.431,13.354,0.659c6.718,0.294,14.662,0.643,22.582,1.176
	c73.271,228.381,80.664,453.372,21.95,668.764c-11.222,32.577-31.164,53.412-59.272,61.924c-8.731,2.645-23.098,4.45-42.702,5.367
	c-42.827,2.007-99.743,2.129-156.158,0.335c-24.058-0.764-41.311-2.683-51.28-5.702c-28.108-8.512-48.051-29.347-59.272-61.924
	C50.944,468.408,58.336,243.417,131.608,15.036C139.528,14.503,147.472,14.154,154.189,13.86z M81.714,852.965
	c-7.311-29.578-14.871-60.164-19.729-90.89C23.199,516.807,26.752,276.333,72.55,47.313c4.732-13.187,12.531-21.965,23.833-26.829
	c6.077-2.616,18.025-4.138,30.656-5.118c-36.252,113.47-56.558,226.863-60.338,337.121c-3.838,111.956,9.241,223.824,38.873,332.5
	l0.041,0.132c11.687,33.979,32.575,55.739,62.083,64.676c10.325,3.127,27.948,5.105,52.378,5.882
	c26.552,0.844,53.218,1.264,78.483,1.264c28.515,0,55.245-0.535,78.009-1.601c19.954-0.934,34.669-2.8,43.735-5.545
	c29.509-8.937,50.396-30.696,62.083-64.676l0.04-0.132c29.633-108.676,42.712-220.544,38.873-332.5
	c-3.779-110.258-24.085-223.651-60.337-337.121c12.631,0.979,24.579,2.502,30.657,5.118c11.302,4.864,19.1,13.642,23.832,26.829
	c45.798,229.023,49.352,469.496,10.565,714.762c-4.907,31.033-12.578,62.125-19.996,92.192c-0.846,3.425-1.687,6.852-2.528,10.279
	c-53.947-15.257-120.969-23.173-198.346-23.173c-3.646,0-7.299,0.018-10.919,0.052c-3.692-0.034-7.359-0.052-10.999-0.052
	c-77.544,0-144.657,7.916-198.661,23.176C83.618,860.685,82.667,856.821,81.714,852.965z M294.418,909.392
	c-92.352-0.001-186.128-2.544-278.849-7.56c61.435-11.514,114.556-22.512,157.963-32.708
	c78.813-17.988,162.126-17.987,240.922-0.003c43.417,10.197,96.533,21.195,157.961,32.707c-92.13,5.019-185.617,7.563-277.97,7.563
	C294.439,909.392,294.424,909.392,294.418,909.392z"/>
<g>
	<path fill-rule="evenodd" clip-rule="evenodd" fill="#000000" d="M294,615.049c38.06,0,68.914,19.475,68.914,43.5
		c0,24.024-30.854,43.5-68.914,43.5c-38.06,0-68.914-19.476-68.914-43.5C225.087,634.524,255.94,615.049,294,615.049"/>
</g>
</svg>
