<?xml version="1.0" encoding="utf-8"?>
<!-- Generator: Adobe Illustrator 20.0.0, SVG Export Plug-In . SVG Version: 6.00 Build 0)  -->
<svg version="1.1" id="Layer_1" xmlns="http://www.w3.org/2000/svg" xmlns:xlink="http://www.w3.org/1999/xlink" x="0px" y="0px"
	 viewBox="0 0 1080.14 1119.62" style="enable-background:new 0 0 1080.14 1119.62;" xml:space="preserve">
<style type="text/css">
	.st0{clip-path:url(#SVGID_2_);}
</style>
<g>
	<defs>
		<rect id="SVGID_1_" y="0.01" width="1080.14" height="1119.61"/>
	</defs>
	<clipPath id="SVGID_2_">
		<use xlink:href="#SVGID_1_"  style="overflow:visible;"/>
	</clipPath>
	<path class="st0" d="M380.64,910.53l22.19-19.59l2.57,2.91l5.18-14.42l-14.96,3.35l2.52,2.86l-23.38,20.64
		c-10.39-7.22-22.27-12.84-37.76-3.14l3.76,6c11.3-7.08,19.8-3.88,28.52,1.97l-22.89,20.2l4.69,5.31l24.11-21.28
		c0.24,0.18,0.47,0.35,0.71,0.53c7.77,5.76,16.16,11.97,26.11,11.97c6.91,0,14.58-3,23.33-11.23l-4.86-5.16
		C403.71,927.25,393.45,920.01,380.64,910.53"/>
	<polygon class="st0" points="561.83,924.44 536.09,924.44 536.09,878.42 529,878.42 529,931.53 561.83,931.53 	"/>
	<path class="st0" d="M379.79,954.15c-22.59,0-40.98,18.38-40.98,40.97c0,22.59,18.38,40.98,40.98,40.98
		c22.59,0,40.97-18.38,40.97-40.98C420.76,972.53,402.38,954.15,379.79,954.15 M379.79,1032.56c-20.64,0-37.43-16.79-37.43-37.43
		c0-20.64,16.79-37.43,37.43-37.43c20.64,0,37.43,16.79,37.43,37.43C417.22,1015.76,400.43,1032.56,379.79,1032.56"/>
	<path class="st0" d="M557.21,954.15c-22.59,0-40.98,18.38-40.98,40.97c0,22.59,18.38,40.98,40.98,40.98
		c22.59,0,40.97-18.38,40.97-40.98C598.18,972.53,579.8,954.15,557.21,954.15 M557.21,1032.56c-20.64,0-37.43-16.79-37.43-37.43
		c0-20.64,16.79-37.43,37.43-37.43c20.64,0,37.43,16.79,37.43,37.43C594.64,1015.76,577.85,1032.56,557.21,1032.56"/>
	<path class="st0" d="M902.17,778.03V316.57c0-11.62-9.45-21.07-21.07-21.07H174.09c-11.62,0-21.07,9.45-21.07,21.07v461.46
		c0,11.61,9.45,21.06,21.07,21.06H881.1C892.72,799.09,902.17,789.64,902.17,778.03 M160.11,778.03V316.57
		c0-7.71,6.27-13.98,13.98-13.98H881.1c7.71,0,13.98,6.27,13.98,13.98v461.46c0,7.71-6.27,13.98-13.98,13.98H174.09
		C166.38,792.01,160.11,785.74,160.11,778.03"/>
	<path class="st0" d="M183.93,230.48c10.16,0,18.43-8.27,18.43-18.43c0-10.16-8.27-18.43-18.43-18.43
		c-10.16,0-18.43,8.27-18.43,18.43C165.49,222.21,173.76,230.48,183.93,230.48 M183.93,197.16c8.21,0,14.89,6.68,14.89,14.89
		c0,8.21-6.68,14.89-14.89,14.89s-14.89-6.68-14.89-14.89C169.04,203.84,175.72,197.16,183.93,197.16"/>
	<path class="st0" d="M1080.14,74.83l-74.83-74.83H622.67v18.96H79.84c-1.88,0-3.68,0.75-5.01,2.07L2.08,93.79
		C0.75,95.12,0,96.92,0,98.8v897c0,1.88,0.75,3.68,2.08,5.01l72.75,72.75c1.33,1.33,3.13,2.08,5.01,2.08h223.08v7.77
		c0,5.86,4.77,10.62,10.63,10.62h25.51v16.01c0,5.28,4.3,9.58,9.58,9.58h286.05c5.28,0,9.58-4.3,9.58-9.58v-16.01h13.57
		c5.86,0,10.62-4.77,10.62-10.62v-7.77h26.63v7.77c0,5.86,4.77,10.62,10.62,10.62h11.9v16.01c0,5.28,4.3,9.58,9.58,9.58h286.05
		c5.28,0,9.58-4.3,9.58-9.58v-16.01h27.18c5.86,0,10.62-4.77,10.62-10.62h3.54V473.59h15.96V74.83z M939.92,99.86l3.67-2.96
		l-3.86-2.7c-13.06-9.13-16.29-15.32-16.7-18.9c-0.26-2.28,0.48-4.3,2.35-6.38l0.91-1.01V33.13h55.13l68.6,68.6v49.02h-34.77
		l-1.01,0.91c-2.08,1.86-4.1,2.61-6.38,2.35c-3.58-0.41-9.77-3.65-18.92-16.73l-3.12-4.46l-2.82,4.66
		c-5.32,8.79-14.61,14.03-24.86,14.03c-16.01,0-29.03-13.03-29.03-29.04C929.1,113.65,933.04,105.4,939.92,99.86 M637.18,1110.04
		c0,1.38-1.12,2.5-2.5,2.5H348.64c-1.35,0-2.5-1.14-2.5-2.5v-16.01h291.04V1110.04z M661.38,1083.41c0,1.95-1.59,3.54-3.54,3.54
		H313.55c-1.95,0-3.54-1.59-3.54-3.54V825.32c0-1.95,1.59-3.54,3.54-3.54h344.29c1.95,0,3.54,1.59,3.54,3.54V1083.41z
		 M668.47,1061.46V825.32c0-5.86-4.77-10.62-10.62-10.62H313.55c-5.86,0-10.63,4.77-10.63,10.62v236.14H82.77l-68.6-68.6V101.73
		l68.6-68.6H919.2v32.13c-2.58,3.31-3.66,6.95-3.21,10.84c0.77,6.67,6.05,13.66,16.13,21.31c-6.47,6.7-10.1,15.61-10.1,25.06
		c0,19.92,16.2,36.12,36.12,36.12c11.01,0,21.13-4.86,27.94-13.22c7.51,9.78,14.4,14.92,20.96,15.67c0.57,0.07,1.14,0.1,1.7,0.1
		c3.26,0,6.32-1.11,9.15-3.31h32.13V814.7H705.72c-5.86,0-10.62,4.77-10.62,10.62v236.14H668.47z M1015.74,1110.04
		c0,1.38-1.12,2.5-2.5,2.5H727.2c-1.38,0-2.5-1.12-2.5-2.5v-16.01h291.04V1110.04z M1050.01,1086.95H705.72
		c-1.95,0-3.54-1.59-3.54-3.54V825.32c0-1.95,1.59-3.54,3.54-3.54h344.29v261.62h3.54
		C1053.55,1085.36,1051.96,1086.95,1050.01,1086.95 M1073.05,466.51h-8.87V98.8c0-1.88-0.75-3.68-2.08-5.01l-72.75-72.75
		c-1.33-1.33-3.13-2.07-5.01-2.07H629.75V7.09h372.62l70.68,70.67V466.51z"/>
	<polygon class="st0" points="583.54,931.49 596.56,905.46 585.67,905.46 585.67,872.24 581.42,872.24 581.42,905.46 570.53,905.46
			"/>
	<path class="st0" d="M793.14,910.53l22.11-19.52l2.57,2.91l0.12,0.14l5.31-14.78l-15.33,3.43l2.64,2.99l-23.3,20.56
		c-10.39-7.22-22.27-12.84-37.76-3.14l3.76,6c11.3-7.08,19.79-3.88,28.52,1.97l-22.88,20.2l4.69,5.31l24.11-21.28
		c0.24,0.17,0.47,0.35,0.71,0.53c7.78,5.76,16.16,11.97,26.11,11.97c6.91,0,14.58-3,23.32-11.23l-4.86-5.16
		C816.21,927.25,805.95,920.01,793.14,910.53"/>
	<polygon class="st0" points="974.34,924.44 948.59,924.44 948.59,878.42 941.5,878.42 941.5,931.53 974.34,931.53 	"/>
	<path class="st0" d="M792.29,954.15c-22.59,0-40.98,18.38-40.98,40.97c0,22.59,18.38,40.98,40.98,40.98
		c22.59,0,40.97-18.38,40.97-40.98C833.26,972.53,814.88,954.15,792.29,954.15 M792.29,1032.56c-20.64,0-37.43-16.79-37.43-37.43
		c0-20.64,16.79-37.43,37.43-37.43c20.64,0,37.43,16.79,37.43,37.43C829.72,1015.76,812.93,1032.56,792.29,1032.56"/>
	<path class="st0" d="M969.71,954.15c-22.59,0-40.97,18.38-40.97,40.97c0,22.59,18.38,40.98,40.97,40.98
		c22.59,0,40.97-18.38,40.97-40.98C1010.68,972.53,992.3,954.15,969.71,954.15 M969.71,1032.56c-20.64,0-37.43-16.79-37.43-37.43
		c0-20.64,16.79-37.43,37.43-37.43c20.64,0,37.43,16.79,37.43,37.43C1007.14,1015.76,990.35,1032.56,969.71,1032.56"/>
	<polygon class="st0" points="996.05,931.49 1009.06,905.46 998.17,905.46 998.17,872.24 993.92,872.24 993.92,905.46
		983.03,905.46 	"/>
</g>
</svg>
