<?xml version="1.0" encoding="utf-8"?>
<!-- Generator: Adobe Illustrator 20.0.0, SVG Export Plug-In . SVG Version: 6.00 Build 0)  -->
<svg version="1.1" id="Layer_1" xmlns="http://www.w3.org/2000/svg" xmlns:xlink="http://www.w3.org/1999/xlink" x="0px" y="0px"
	 viewBox="0 0 3243.5 597.7" style="enable-background:new 0 0 3243.5 597.7;" xml:space="preserve">
<g>
	<path d="M2757.8,65h-449.5c-12.9,0-23.4,10.5-23.4,23.4v422.5c0,12.9,10.5,23.4,23.4,23.4h449.5c12.9,0,23.4-10.5,23.4-23.4V88.3
		C2781.2,75.5,2770.7,65,2757.8,65z M2777,510.8c0,10.6-8.6,19.1-19.1,19.1h-449.5c-10.6,0-19.1-8.6-19.1-19.1V88.3
		c0-10.6,8.6-19.1,19.1-19.1h449.5c10.6,0,19.1,8.6,19.1,19.1V510.8z"/>
	<path d="M1990.1,44c-68.7,0-133.2,26.7-181.8,75.3c-48.6,48.6-75.3,113.1-75.3,181.8c0,68.7,26.7,133.2,75.3,181.8
		c48.6,48.6,113.1,75.3,181.8,75.3s133.2-26.7,181.8-75.3s75.3-113.1,75.3-181.8c0-68.7-26.7-133.2-75.3-181.8
		C2123.3,70.7,2058.8,44,1990.1,44z M2168.9,479.9c-47.8,47.8-111.3,74.1-178.8,74.1s-131-26.3-178.8-74.1
		c-47.8-47.8-74.1-111.3-74.1-178.8c0-67.5,26.3-131,74.1-178.8c47.8-47.8,111.3-74.1,178.8-74.1c67.5,0,131,26.3,178.8,74.1
		s74.1,111.3,74.1,178.8C2243,368.6,2216.7,432.1,2168.9,479.9z"/>
	<path d="M2143.5,126h0.2l-5.1-4.2c-33.1-27.5-72.7-45.1-115.1-51.1l-1.8-0.3v0c-10.4-1.4-20.9-2.1-31.6-2.1s-21.2,0.7-31.6,2.1v0
		l-1.8,0.3c-42.4,6.1-82,23.6-115.1,51.1l-5.1,4.2h0.2c-3.8,3.4-7.6,6.8-11.2,10.5c-44,44-68.2,102.4-68.2,164.6
		c0,62.2,24.2,120.6,68.2,164.6c3.9,3.9,7.9,7.6,12.1,11.2h-0.2l4.7,3.8c33,27.3,72.5,44.7,114.7,50.8l1.8,0.3v0
		c10.4,1.4,20.9,2.1,31.6,2.1s21.2-0.7,31.6-2.1v0l1.8-0.3c42.2-6,81.6-23.5,114.6-50.8l4.7-3.8h-0.2c4.1-3.6,8.2-7.3,12.1-11.2
		c44-44,68.2-102.4,68.2-164.6c0-62.2-24.2-120.6-68.2-164.6C2151.1,132.9,2147.3,129.4,2143.5,126z M2027.3,77
		c36.4,6,70.9,20.9,100.3,43.3h-100.3V77z M1952.9,77v43.3h-100.3C1882,97.9,1916.4,83,1952.9,77z M1952.9,525.2
		c-36-5.9-70.1-20.6-99.3-42.6h99.3V525.2z M2027.3,525.2v-42.6h99.3C2097.4,504.6,2063.3,519.2,2027.3,525.2z M2150.7,461.7
		c-5.4,5.4-11,10.5-16.8,15.2h-112.2V526c-10.4,1.4-20.9,2.2-31.6,2.2s-21.2-0.7-31.6-2.2v-49.1h-112.2c-5.8-4.8-11.4-9.9-16.8-15.2
		c-42.9-42.9-66.5-99.9-66.5-160.6s23.6-117.7,66.5-160.6c5.1-5.1,10.4-9.9,15.9-14.5h113.1V76.2c10.4-1.4,20.9-2.2,31.6-2.2
		s21.2,0.7,31.6,2.2V126h113.1c5.5,4.6,10.8,9.4,15.9,14.5c42.9,42.9,66.5,99.9,66.5,160.6S2193.6,418.8,2150.7,461.7z"/>
	<path d="M1433.4,44c-68.7,0-133.2,26.7-181.8,75.3c-48.6,48.6-75.3,113.1-75.3,181.8c0,68.7,26.7,133.2,75.3,181.8
		c48.6,48.6,113.1,75.3,181.8,75.3s133.2-26.7,181.8-75.3s75.3-113.1,75.3-181.8c0-68.7-26.7-133.2-75.3-181.8
		C1566.6,70.7,1502.1,44,1433.4,44z M1612.2,479.9c-47.8,47.8-111.3,74.1-178.8,74.1s-131-26.3-178.8-74.1s-74.1-111.3-74.1-178.8
		c0-67.5,26.3-131,74.1-178.8s111.3-74.1,178.8-74.1s131,26.3,178.8,74.1s74.1,111.3,74.1,178.8
		C1686.3,368.6,1660,432.1,1612.2,479.9z"/>
	<path d="M1586.8,126h0.2l-5.1-4.2c-33.1-27.5-72.7-45.1-115.1-51.1l-1.8-0.3v0c-10.4-1.4-20.9-2.1-31.6-2.1
		c-10.7,0-21.2,0.7-31.6,2.1v0l-1.8,0.3c-42.4,6.1-82,23.6-115.1,51.1l-5.1,4.2h0.2c-3.8,3.4-7.6,6.8-11.2,10.5
		c-44,44-68.2,102.4-68.2,164.6c0,62.2,24.2,120.6,68.2,164.6c3.9,3.9,7.9,7.6,12.1,11.2h-0.2l4.7,3.8c33,27.3,72.5,44.7,114.7,50.8
		l1.9,0.3v0c10.4,1.4,20.9,2.1,31.6,2.1c10.7,0,21.2-0.7,31.6-2.1v0l1.8-0.3c42.2-6,81.6-23.5,114.7-50.8l4.7-3.8h-0.2
		c4.1-3.6,8.2-7.3,12.1-11.2c44-44,68.2-102.4,68.2-164.6c0-62.2-24.2-120.6-68.2-164.6C1594.3,132.9,1590.6,129.4,1586.8,126z
		 M1470.6,77c36.4,6,70.9,20.9,100.3,43.3h-100.3V77z M1396.2,77v43.3h-100.3C1325.3,97.9,1359.7,83,1396.2,77z M1396.2,525.2
		c-36-5.9-70.1-20.6-99.3-42.6h99.3V525.2z M1470.6,525.2v-42.6h99.3C1540.7,504.6,1506.6,519.2,1470.6,525.2z M1594,461.7
		c-5.4,5.4-11,10.5-16.8,15.2H1465V526c-10.4,1.4-20.9,2.2-31.6,2.2c-10.7,0-21.2-0.7-31.6-2.2v-49.1h-112.2
		c-5.8-4.8-11.4-9.9-16.8-15.2c-42.9-42.9-66.5-99.9-66.5-160.6s23.6-117.7,66.5-160.6c5.1-5.1,10.4-9.9,15.9-14.5h113.1V76.2
		c10.4-1.4,20.9-2.2,31.6-2.2c10.7,0,21.2,0.7,31.6,2.2V126h113.1c5.5,4.6,10.8,9.4,15.9,14.5c42.9,42.9,66.5,99.9,66.5,160.6
		S1636.9,418.8,1594,461.7z"/>
	<path d="M876.7,44c-68.7,0-133.2,26.7-181.8,75.3c-48.6,48.6-75.3,113.1-75.3,181.8c0,68.7,26.7,133.2,75.3,181.8
		c48.6,48.6,113.1,75.3,181.8,75.3s133.2-26.7,181.8-75.3c48.6-48.6,75.3-113.1,75.3-181.8c0-68.7-26.7-133.2-75.3-181.8
		C1009.9,70.7,945.4,44,876.7,44z M1055.5,479.9c-47.8,47.8-111.3,74.1-178.8,74.1s-131-26.3-178.8-74.1s-74.1-111.3-74.1-178.8
		c0-67.5,26.3-131,74.1-178.8s111.3-74.1,178.8-74.1s131,26.3,178.8,74.1s74.1,111.3,74.1,178.8
		C1129.6,368.6,1103.3,432.1,1055.5,479.9z"/>
	<path d="M1030.1,126h0.2l-5.1-4.2c-33.1-27.5-72.7-45.1-115.1-51.1l-1.8-0.3v0c-10.4-1.4-20.9-2.1-31.6-2.1s-21.2,0.7-31.6,2.1v0
		l-1.8,0.3c-42.4,6.1-82,23.6-115.1,51.1l-5.1,4.2h0.2c-3.8,3.4-7.6,6.8-11.2,10.5c-44,44-68.2,102.4-68.2,164.6
		c0,62.2,24.2,120.6,68.2,164.6c3.9,3.9,7.9,7.6,12.1,11.2h-0.2l4.7,3.8c33,27.3,72.5,44.7,114.7,50.8l1.8,0.3v0
		c10.4,1.4,20.9,2.1,31.6,2.1c10.7,0,21.2-0.7,31.6-2.1v0l1.8-0.3c42.2-6,81.6-23.5,114.7-50.8l4.7-3.8h-0.2
		c4.1-3.6,8.2-7.3,12.1-11.2c44-44,68.2-102.4,68.2-164.6c0-62.2-24.2-120.6-68.2-164.6C1037.6,132.9,1033.9,129.4,1030.1,126z
		 M913.9,77c36.4,6,70.9,20.9,100.3,43.3H913.9V77z M839.5,77v43.3H739.2C768.6,97.9,803,83,839.5,77z M839.5,525.2
		c-36-5.9-70.1-20.6-99.3-42.6h99.3V525.2z M913.9,525.2v-42.6h99.3C984,504.6,949.9,519.2,913.9,525.2z M1037.3,461.7
		c-5.4,5.4-11,10.5-16.8,15.2H908.2V526c-10.4,1.4-20.9,2.2-31.6,2.2s-21.2-0.7-31.6-2.2v-49.1H732.9c-5.8-4.8-11.4-9.9-16.8-15.2
		c-42.9-42.9-66.5-99.9-66.5-160.6s23.6-117.7,66.5-160.6c5.1-5.1,10.4-9.9,15.9-14.5h113.1V76.2c10.4-1.4,20.9-2.2,31.6-2.2
		s21.2,0.7,31.6,2.2V126h113.1c5.5,4.6,10.8,9.4,15.9,14.5c42.9,42.9,66.5,99.9,66.5,160.6S1080.2,418.8,1037.3,461.7z"/>
	<path d="M319.6,44c-68.7,0-133.2,26.7-181.8,75.3c-48.6,48.6-75.3,113.1-75.3,181.8c0,68.7,26.7,133.2,75.3,181.8
		c48.6,48.6,113.1,75.3,181.8,75.3s133.2-26.7,181.8-75.3s75.3-113.1,75.3-181.8c0-68.7-26.7-133.2-75.3-181.8
		C452.8,70.7,388.3,44,319.6,44z M498.4,479.9C450.6,527.7,387.1,554,319.6,554s-131-26.3-178.8-74.1S66.7,368.6,66.7,301.1
		c0-67.5,26.3-131,74.1-178.8S252,48.2,319.6,48.2s131,26.3,178.8,74.1c47.8,47.8,74.1,111.3,74.1,178.8
		C572.5,368.6,546.2,432.1,498.4,479.9z"/>
	<path d="M473,126h0.2l-5.1-4.2c-33.1-27.5-72.6-45-114.9-51.1l-1.6-0.2v0c-10.5-1.4-21.2-2.2-31.9-2.2c-10.5,0-20.9,0.7-31.2,2.1v0
		l-2.1,0.3c-42.4,6-82.1,23.6-115.2,51.1L166,126h0.2c-3.8,3.4-7.6,6.8-11.2,10.5c-44,44-68.2,102.4-68.2,164.6
		c0,62.2,24.2,120.6,68.2,164.6c3.9,3.9,7.9,7.6,12.1,11.2h-0.2l4.7,3.8c33.1,27.4,72.6,44.8,114.8,50.8l2,0.3v0
		c10.3,1.4,20.7,2.1,31.2,2.1c10.8,0,21.4-0.7,31.9-2.2v0l1.6-0.2c42.2-6,81.6-23.5,114.6-50.8l4.7-3.8h-0.2
		c4.1-3.6,8.2-7.3,12.1-11.2c44-44,68.2-102.4,68.2-164.6c0-62.2-24.2-120.6-68.2-164.6C480.5,132.9,476.8,129.4,473,126z
		 M357.2,77.1c36.3,6,70.6,20.9,99.9,43.3h-99.9V77.1z M282.7,77v43.4H182.1C211.6,97.8,246.2,82.9,282.7,77z M282.7,525.2
		c-36.1-5.9-70.3-20.6-99.7-42.6h99.7V525.2z M357.2,525.1v-42.5h98.9C427,504.5,393,519.1,357.2,525.1z M480.2,461.7
		c-5.4,5.4-11,10.5-16.8,15.2H351.5v49c-10.5,1.5-21.2,2.2-31.9,2.2c-10.5,0-20.9-0.7-31.2-2.1v-49.1H175.8
		c-5.8-4.8-11.4-9.9-16.8-15.2c-42.9-42.9-66.5-99.9-66.5-160.6s23.6-117.7,66.5-160.6c5.1-5.1,10.4-9.9,15.9-14.5h113.5V76.1
		c10.3-1.4,20.7-2.1,31.2-2.1c10.8,0,21.4,0.8,31.9,2.2V126h112.7c5.5,4.6,10.8,9.4,15.9,14.5c42.9,42.9,66.5,99.9,66.5,160.6
		S523.1,418.8,480.2,461.7z"/>
	<path d="M319.9,166.9c-19.2,0-34.8,15.6-34.8,34.8c0,19.2,15.6,34.8,34.8,34.8c19.2,0,34.8-15.6,34.8-34.8
		C354.7,182.5,339.1,166.9,319.9,166.9z"/>
	<path d="M319.9,376.9c-19.2,0-34.8,15.6-34.8,34.8s15.6,34.8,34.8,34.8c19.2,0,34.8-15.6,34.8-34.8S339.1,376.9,319.9,376.9z"/>
	<path d="M876.7,166.9c-19.2,0-34.8,15.6-34.8,34.8c0,19.2,15.6,34.8,34.8,34.8c19.2,0,34.8-15.6,34.8-34.8
		C911.5,182.5,895.9,166.9,876.7,166.9z"/>
	<path d="M876.7,376.9c-19.2,0-34.8,15.6-34.8,34.8s15.6,34.8,34.8,34.8c19.2,0,34.8-15.6,34.8-34.8S895.9,376.9,876.7,376.9z"/>
	<path d="M1433.4,166.9c-19.2,0-34.8,15.6-34.8,34.8c0,19.2,15.6,34.8,34.8,34.8s34.8-15.6,34.8-34.8
		C1468.2,182.5,1452.6,166.9,1433.4,166.9z"/>
	<path d="M1433.4,376.9c-19.2,0-34.8,15.6-34.8,34.8s15.6,34.8,34.8,34.8s34.8-15.6,34.8-34.8S1452.6,376.9,1433.4,376.9z"/>
	<path d="M1990.1,166.9c-19.2,0-34.8,15.6-34.8,34.8c0,19.2,15.6,34.8,34.8,34.8s34.8-15.6,34.8-34.8
		C2024.9,182.5,2009.3,166.9,1990.1,166.9z"/>
	<path d="M1990.1,376.9c-19.2,0-34.8,15.6-34.8,34.8s15.6,34.8,34.8,34.8s34.8-15.6,34.8-34.8S2009.3,376.9,1990.1,376.9z"/>
	<path d="M2706.8,219.4h-84.2c-12.9,0-23.4,10.5-23.4,23.4v118c0,12.9,10.5,23.4,23.4,23.4h84.2c12.9,0,23.4-10.5,23.4-23.4v-118
		C2730.2,229.9,2719.7,219.4,2706.8,219.4z M2726,360.8c0,10.6-8.6,19.1-19.1,19.1h-84.2c-10.6,0-19.1-8.6-19.1-19.1v-118
		c0-10.6,8.6-19.1,19.1-19.1h84.2c10.6,0,19.1,8.6,19.1,19.1V360.8z"/>
	<path d="M2497.8,271.5c-16.6,0-30.1,13.5-30.1,30.1s13.5,30.1,30.1,30.1c16.6,0,30.1-13.5,30.1-30.1S2514.3,271.5,2497.8,271.5z
		 M2497.8,327.4c-14.2,0-25.8-11.6-25.8-25.8s11.6-25.8,25.8-25.8c14.2,0,25.8,11.6,25.8,25.8S2512,327.4,2497.8,327.4z"/>
	<path d="M3012.8,320.7v-35.5c57.4-0.5,105.8-10.5,143.9-29.7c39-19.8,68.2-49.8,86.8-89.3l-6.3-3c-17.9,38-46,66.9-83.6,86
		c-37.1,18.8-84.4,28.5-140.7,29V239c0-25.4-20.6-46-46-46h-96.7v-72.5c0-66.4-54-120.5-120.5-120.5H120.5C54,0,0,54,0,120.5v356.7
		c0,66.4,54,120.5,120.5,120.5h2629.2c66.4,0,120.5-54,120.5-120.5v-71h97.4c25,0,45.3-20.6,45.3-46v-32.5
		c114-0.8,189.4-31.1,230.4-92.7l-5.8-3.9C3197.8,290.7,3124.4,320,3012.8,320.7z M2856,477.2c0,58.6-47.7,106.3-106.3,106.3H120.5
		c-58.6,0-106.3-47.7-106.3-106.3V120.5c0-58.6,47.7-106.3,106.3-106.3h2629.2c58.6,0,106.3,47.7,106.3,106.3V477.2z M3005.8,360.2
		c0,12.7-6,24-15.2,31.1V273.7h-3.5v120c-4.1,2.5-8.6,4.2-13.5,5v-125h-3.5v125.4c-0.8,0.1-1.7,0.1-2.6,0.1h-10.9V273.7h-3.5v125.5
		h-13.5V273.7h-3.5v125.5h-13.5V273.7h-3.5v125.5h-13.5V273.7h-3.5v125.5h-13.5V273.7h-3.5v125.5h-15.1V200h96.7
		c21.5,0,39,17.5,39,39V360.2z"/>
</g>
<g>
	<path d="M2622.6,228.7h84.2c7.7,0,14.1,6.3,14.1,14.1v118c0,7.7-6.3,14.1-14.1,14.1h-84.2c-7.7,0-14.1-6.3-14.1-14.1
		v-118C2608.5,235.1,2614.9,228.7,2622.6,228.7"/>
</g>
<g>
	<path d="M2497.8,281.6c11,0,20,8.9,20,20c0,11-8.9,20-20,20s-20-8.9-20-20C2477.8,290.6,2486.7,281.6,2497.8,281.6"/>
</g>
</svg>
