<?xml version="1.0" encoding="UTF-8" standalone="no"?>
<!-- Generator: Adobe Illustrator 20.0.0, SVG Export Plug-In . SVG Version: 6.00 Build 0)  -->

<svg
   xmlns:dc="http://purl.org/dc/elements/1.1/"
   xmlns:cc="http://creativecommons.org/ns#"
   xmlns:rdf="http://www.w3.org/1999/02/22-rdf-syntax-ns#"
   xmlns:svg="http://www.w3.org/2000/svg"
   xmlns="http://www.w3.org/2000/svg"
   xmlns:sodipodi="http://sodipodi.sourceforge.net/DTD/sodipodi-0.dtd"
   xmlns:inkscape="http://www.inkscape.org/namespaces/inkscape"
   version="1.1"
   id="Layer_1"
   x="0px"
   y="0px"
   viewBox="450 50 2353.5 497.7"
   xml:space="preserve"
   inkscape:version="0.91 r13725"
   sodipodi:docname="pair.svg"
   width="120"
   height="597.70001"><metadata
     id="metadata57"><rdf:RDF><cc:Work
         rdf:about=""><dc:format>image/svg+xml</dc:format><dc:type
           rdf:resource="http://purl.org/dc/dcmitype/StillImage" /><dc:title></dc:title></cc:Work></rdf:RDF></metadata><defs
     id="defs55" /><sodipodi:namedview
     pagecolor="#ffffff"
     bordercolor="#666666"
     borderopacity="1"
     objecttolerance="10"
     gridtolerance="10"
     guidetolerance="10"
     inkscape:pageopacity="0"
     inkscape:pageshadow="2"
     inkscape:window-width="2560"
     inkscape:window-height="1396"
     id="namedview53"
     showgrid="false"
     inkscape:snap-page="false"
     inkscape:zoom="1.5292123"
     inkscape:cx="348.6629"
     inkscape:cy="281.64316"
     inkscape:window-x="3840"
     inkscape:window-y="0"
     inkscape:window-maximized="1"
     inkscape:current-layer="Layer_1" /><g
     id="g3"
     transform="matrix(0,-1,1,0,1322.9,1920.6)"><path
       d="m 2757.8,65 -449.5,0 c -12.9,0 -23.4,10.5 -23.4,23.4 l 0,422.5 c 0,12.9 10.5,23.4 23.4,23.4 l 449.5,0 c 12.9,0 23.4,-10.5 23.4,-23.4 l 0,-422.6 c 0,-12.8 -10.5,-23.3 -23.4,-23.3 z m 19.2,445.8 c 0,10.6 -8.6,19.1 -19.1,19.1 l -449.5,0 c -10.6,0 -19.1,-8.6 -19.1,-19.1 l 0,-422.5 c 0,-10.6 8.6,-19.1 19.1,-19.1 l 449.5,0 c 10.6,0 19.1,8.6 19.1,19.1 l 0,422.5 z"
       id="path5"
       inkscape:connector-curvature="0" /><path
       d="m 1990.1,44 c -68.7,0 -133.2,26.7 -181.8,75.3 -48.6,48.6 -75.3,113.1 -75.3,181.8 0,68.7 26.7,133.2 75.3,181.8 48.6,48.6 113.1,75.3 181.8,75.3 68.7,0 133.2,-26.7 181.8,-75.3 48.6,-48.6 75.3,-113.1 75.3,-181.8 0,-68.7 -26.7,-133.2 -75.3,-181.8 C 2123.3,70.7 2058.8,44 1990.1,44 Z m 178.8,435.9 c -47.8,47.8 -111.3,74.1 -178.8,74.1 -67.5,0 -131,-26.3 -178.8,-74.1 -47.8,-47.8 -74.1,-111.3 -74.1,-178.8 0,-67.5 26.3,-131 74.1,-178.8 47.8,-47.8 111.3,-74.1 178.8,-74.1 67.5,0 131,26.3 178.8,74.1 47.8,47.8 74.1,111.3 74.1,178.8 0,67.5 -26.3,131 -74.1,178.8 z"
       id="path7"
       inkscape:connector-curvature="0" /><path
       d="m 2143.5,126 0.2,0 -5.1,-4.2 C 2105.5,94.3 2065.9,76.7 2023.5,70.7 l -1.8,-0.3 0,0 c -10.4,-1.4 -20.9,-2.1 -31.6,-2.1 -10.7,0 -21.2,0.7 -31.6,2.1 l 0,0 -1.8,0.3 c -42.4,6.1 -82,23.6 -115.1,51.1 l -5.1,4.2 0.2,0 c -3.8,3.4 -7.6,6.8 -11.2,10.5 -44,44 -68.2,102.4 -68.2,164.6 0,62.2 24.2,120.6 68.2,164.6 3.9,3.9 7.9,7.6 12.1,11.2 l -0.2,0 4.7,3.8 c 33,27.3 72.5,44.7 114.7,50.8 l 1.8,0.3 0,0 c 10.4,1.4 20.9,2.1 31.6,2.1 10.7,0 21.2,-0.7 31.6,-2.1 l 0,0 1.8,-0.3 c 42.2,-6 81.6,-23.5 114.6,-50.8 l 4.7,-3.8 -0.2,0 c 4.1,-3.6 8.2,-7.3 12.1,-11.2 44,-44 68.2,-102.4 68.2,-164.6 0,-62.2 -24.2,-120.6 -68.2,-164.6 -3.7,-3.6 -7.5,-7.1 -11.3,-10.5 z M 2027.3,77 c 36.4,6 70.9,20.9 100.3,43.3 l -100.3,0 0,-43.3 z m -74.4,0 0,43.3 -100.3,0 C 1882,97.9 1916.4,83 1952.9,77 Z m 0,448.2 c -36,-5.9 -70.1,-20.6 -99.3,-42.6 l 99.3,0 0,42.6 z m 74.4,0 0,-42.6 99.3,0 c -29.2,22 -63.3,36.6 -99.3,42.6 z m 123.4,-63.5 c -5.4,5.4 -11,10.5 -16.8,15.2 l -112.2,0 0,49.1 c -10.4,1.4 -20.9,2.2 -31.6,2.2 -10.7,0 -21.2,-0.7 -31.6,-2.2 l 0,-49.1 -112.2,0 c -5.8,-4.8 -11.4,-9.9 -16.8,-15.2 -42.9,-42.9 -66.5,-99.9 -66.5,-160.6 0,-60.7 23.6,-117.7 66.5,-160.6 5.1,-5.1 10.4,-9.9 15.9,-14.5 l 113.1,0 0,-49.8 c 10.4,-1.4 20.9,-2.2 31.6,-2.2 10.7,0 21.2,0.7 31.6,2.2 l 0,49.8 113.1,0 c 5.5,4.6 10.8,9.4 15.9,14.5 42.9,42.9 66.5,99.9 66.5,160.6 0,60.7 -23.6,117.7 -66.5,160.6 z"
       id="path9"
       inkscape:connector-curvature="0" /><path
       d="m 1433.4,44 c -68.7,0 -133.2,26.7 -181.8,75.3 -48.6,48.6 -75.3,113.1 -75.3,181.8 0,68.7 26.7,133.2 75.3,181.8 48.6,48.6 113.1,75.3 181.8,75.3 68.7,0 133.2,-26.7 181.8,-75.3 48.6,-48.6 75.3,-113.1 75.3,-181.8 0,-68.7 -26.7,-133.2 -75.3,-181.8 C 1566.6,70.7 1502.1,44 1433.4,44 Z m 178.8,435.9 c -47.8,47.8 -111.3,74.1 -178.8,74.1 -67.5,0 -131,-26.3 -178.8,-74.1 -47.8,-47.8 -74.1,-111.3 -74.1,-178.8 0,-67.5 26.3,-131 74.1,-178.8 47.8,-47.8 111.3,-74.1 178.8,-74.1 67.5,0 131,26.3 178.8,74.1 47.8,47.8 74.1,111.3 74.1,178.8 0,67.5 -26.3,131 -74.1,178.8 z"
       id="path11"
       inkscape:connector-curvature="0" /><path
       d="m 1586.8,126 0.2,0 -5.1,-4.2 C 1548.8,94.3 1509.2,76.7 1466.8,70.7 l -1.8,-0.3 0,0 c -10.4,-1.4 -20.9,-2.1 -31.6,-2.1 -10.7,0 -21.2,0.7 -31.6,2.1 l 0,0 -1.8,0.3 c -42.4,6.1 -82,23.6 -115.1,51.1 l -5.1,4.2 0.2,0 c -3.8,3.4 -7.6,6.8 -11.2,10.5 -44,44 -68.2,102.4 -68.2,164.6 0,62.2 24.2,120.6 68.2,164.6 3.9,3.9 7.9,7.6 12.1,11.2 l -0.2,0 4.7,3.8 c 33,27.3 72.5,44.7 114.7,50.8 l 1.9,0.3 0,0 c 10.4,1.4 20.9,2.1 31.6,2.1 10.7,0 21.2,-0.7 31.6,-2.1 l 0,0 1.8,-0.3 c 42.2,-6 81.6,-23.5 114.7,-50.8 l 4.7,-3.8 -0.2,0 c 4.1,-3.6 8.2,-7.3 12.1,-11.2 44,-44 68.2,-102.4 68.2,-164.6 0,-62.2 -24.2,-120.6 -68.2,-164.6 -4,-3.6 -7.7,-7.1 -11.5,-10.5 z M 1470.6,77 c 36.4,6 70.9,20.9 100.3,43.3 l -100.3,0 0,-43.3 z m -74.4,0 0,43.3 -100.3,0 C 1325.3,97.9 1359.7,83 1396.2,77 Z m 0,448.2 c -36,-5.9 -70.1,-20.6 -99.3,-42.6 l 99.3,0 0,42.6 z m 74.4,0 0,-42.6 99.3,0 c -29.2,22 -63.3,36.6 -99.3,42.6 z M 1594,461.7 c -5.4,5.4 -11,10.5 -16.8,15.2 l -112.2,0 0,49.1 c -10.4,1.4 -20.9,2.2 -31.6,2.2 -10.7,0 -21.2,-0.7 -31.6,-2.2 l 0,-49.1 -112.2,0 c -5.8,-4.8 -11.4,-9.9 -16.8,-15.2 -42.9,-42.9 -66.5,-99.9 -66.5,-160.6 0,-60.7 23.6,-117.7 66.5,-160.6 5.1,-5.1 10.4,-9.9 15.9,-14.5 l 113.1,0 0,-49.8 c 10.4,-1.4 20.9,-2.2 31.6,-2.2 10.7,0 21.2,0.7 31.6,2.2 l 0,49.8 113.1,0 c 5.5,4.6 10.8,9.4 15.9,14.5 42.9,42.9 66.5,99.9 66.5,160.6 0,60.7 -23.6,117.7 -66.5,160.6 z"
       id="path13"
       inkscape:connector-curvature="0" /><path
       d="m 876.7,44 c -68.7,0 -133.2,26.7 -181.8,75.3 -48.6,48.6 -75.3,113.1 -75.3,181.8 0,68.7 26.7,133.2 75.3,181.8 48.6,48.6 113.1,75.3 181.8,75.3 68.7,0 133.2,-26.7 181.8,-75.3 48.6,-48.6 75.3,-113.1 75.3,-181.8 0,-68.7 -26.7,-133.2 -75.3,-181.8 C 1009.9,70.7 945.4,44 876.7,44 Z m 178.8,435.9 c -47.8,47.8 -111.3,74.1 -178.8,74.1 -67.5,0 -131,-26.3 -178.8,-74.1 -47.8,-47.8 -74.1,-111.3 -74.1,-178.8 0,-67.5 26.3,-131 74.1,-178.8 47.8,-47.8 111.3,-74.1 178.8,-74.1 67.5,0 131,26.3 178.8,74.1 47.8,47.8 74.1,111.3 74.1,178.8 0,67.5 -26.3,131 -74.1,178.8 z"
       id="path15"
       inkscape:connector-curvature="0" /><path
       d="m 1030.1,126 0.2,0 -5.1,-4.2 C 992.1,94.3 952.5,76.7 910.1,70.7 l -1.8,-0.3 0,0 C 897.9,69 887.4,68.3 876.7,68.3 866,68.3 855.5,69 845.1,70.4 l 0,0 -1.8,0.3 c -42.4,6.1 -82,23.6 -115.1,51.1 l -5.1,4.2 0.2,0 c -3.8,3.4 -7.6,6.8 -11.2,10.5 -44,44 -68.2,102.4 -68.2,164.6 0,62.2 24.2,120.6 68.2,164.6 3.9,3.9 7.9,7.6 12.1,11.2 l -0.2,0 4.7,3.8 c 33,27.3 72.5,44.7 114.7,50.8 l 1.8,0.3 0,0 c 10.4,1.4 20.9,2.1 31.6,2.1 10.7,0 21.2,-0.7 31.6,-2.1 l 0,0 1.8,-0.3 c 42.2,-6 81.6,-23.5 114.7,-50.8 l 4.7,-3.8 -0.2,0 c 4.1,-3.6 8.2,-7.3 12.1,-11.2 44,-44 68.2,-102.4 68.2,-164.6 0,-62.2 -24.2,-120.6 -68.2,-164.6 -3.9,-3.6 -7.6,-7.1 -11.4,-10.5 z M 913.9,77 c 36.4,6 70.9,20.9 100.3,43.3 l -100.3,0 0,-43.3 z m -74.4,0 0,43.3 -100.3,0 C 768.6,97.9 803,83 839.5,77 Z m 0,448.2 c -36,-5.9 -70.1,-20.6 -99.3,-42.6 l 99.3,0 0,42.6 z m 74.4,0 0,-42.6 99.3,0 c -29.2,22 -63.3,36.6 -99.3,42.6 z m 123.4,-63.5 c -5.4,5.4 -11,10.5 -16.8,15.2 l -112.3,0 0,49.1 c -10.4,1.4 -20.9,2.2 -31.6,2.2 -10.7,0 -21.2,-0.7 -31.6,-2.2 l 0,-49.1 -112.1,0 c -5.8,-4.8 -11.4,-9.9 -16.8,-15.2 -42.9,-42.9 -66.5,-99.9 -66.5,-160.6 0,-60.7 23.6,-117.7 66.5,-160.6 5.1,-5.1 10.4,-9.9 15.9,-14.5 l 113.1,0 0,-49.8 C 855.5,74.8 866,74 876.7,74 c 10.7,0 21.2,0.7 31.6,2.2 l 0,49.8 113.1,0 c 5.5,4.6 10.8,9.4 15.9,14.5 42.9,42.9 66.5,99.9 66.5,160.6 0,60.7 -23.6,117.7 -66.5,160.6 z"
       id="path17"
       inkscape:connector-curvature="0" /><path
       d="m 319.6,44 c -68.7,0 -133.2,26.7 -181.8,75.3 -48.6,48.6 -75.3,113.1 -75.3,181.8 0,68.7 26.7,133.2 75.3,181.8 48.6,48.6 113.1,75.3 181.8,75.3 68.7,0 133.2,-26.7 181.8,-75.3 C 550,434.3 576.7,369.8 576.7,301.1 576.7,232.4 550,167.9 501.4,119.3 452.8,70.7 388.3,44 319.6,44 Z M 498.4,479.9 C 450.6,527.7 387.1,554 319.6,554 252.1,554 188.6,527.7 140.8,479.9 93,432.1 66.7,368.6 66.7,301.1 66.7,233.6 93,170.1 140.8,122.3 188.6,74.5 252,48.2 319.6,48.2 c 67.6,0 131,26.3 178.8,74.1 47.8,47.8 74.1,111.3 74.1,178.8 0,67.5 -26.3,131 -74.1,178.8 z"
       id="path19"
       inkscape:connector-curvature="0" /><path
       d="m 473,126 0.2,0 -5.1,-4.2 C 435,94.3 395.5,76.8 353.2,70.7 l -1.6,-0.2 0,0 c -10.5,-1.4 -21.2,-2.2 -31.9,-2.2 -10.5,0 -20.9,0.7 -31.2,2.1 l 0,0 -2.1,0.3 c -42.4,6 -82.1,23.6 -115.2,51.1 l -5.2,4.2 0.2,0 c -3.8,3.4 -7.6,6.8 -11.2,10.5 -44,44 -68.2,102.4 -68.2,164.6 0,62.2 24.2,120.6 68.2,164.6 3.9,3.9 7.9,7.6 12.1,11.2 l -0.2,0 4.7,3.8 c 33.1,27.4 72.6,44.8 114.8,50.8 l 2,0.3 0,0 c 10.3,1.4 20.7,2.1 31.2,2.1 10.8,0 21.4,-0.7 31.9,-2.2 l 0,0 1.6,-0.2 c 42.2,-6 81.6,-23.5 114.6,-50.8 l 4.7,-3.8 -0.2,0 c 4.1,-3.6 8.2,-7.3 12.1,-11.2 44,-44 68.2,-102.4 68.2,-164.6 0,-62.2 -24.2,-120.6 -68.2,-164.6 -3.8,-3.6 -7.5,-7.1 -11.3,-10.5 z M 357.2,77.1 c 36.3,6 70.6,20.9 99.9,43.3 l -99.9,0 0,-43.3 z m -74.5,-0.1 0,43.4 -100.6,0 C 211.6,97.8 246.2,82.9 282.7,77 Z m 0,448.2 C 246.6,519.3 212.4,504.6 183,482.6 l 99.7,0 0,42.6 z m 74.5,-0.1 0,-42.5 98.9,0 C 427,504.5 393,519.1 357.2,525.1 Z m 123,-63.4 c -5.4,5.4 -11,10.5 -16.8,15.2 l -111.9,0 0,49 c -10.5,1.5 -21.2,2.2 -31.9,2.2 -10.5,0 -20.9,-0.7 -31.2,-2.1 l 0,-49.1 -112.6,0 C 170,472.1 164.4,467 159,461.7 116.1,418.8 92.5,361.8 92.5,301.1 c 0,-60.7 23.6,-117.7 66.5,-160.6 5.1,-5.1 10.4,-9.9 15.9,-14.5 l 113.5,0 0,-49.9 c 10.3,-1.4 20.7,-2.1 31.2,-2.1 10.8,0 21.4,0.8 31.9,2.2 l 0,49.8 112.7,0 c 5.5,4.6 10.8,9.4 15.9,14.5 42.9,42.9 66.5,99.9 66.5,160.6 0,60.7 -23.5,117.7 -66.4,160.6 z"
       id="path21"
       inkscape:connector-curvature="0" /><path
       d="m 319.9,166.9 c -19.2,0 -34.8,15.6 -34.8,34.8 0,19.2 15.6,34.8 34.8,34.8 19.2,0 34.8,-15.6 34.8,-34.8 0,-19.2 -15.6,-34.8 -34.8,-34.8 z"
       id="path23"
       inkscape:connector-curvature="0" /><path
       d="m 319.9,376.9 c -19.2,0 -34.8,15.6 -34.8,34.8 0,19.2 15.6,34.8 34.8,34.8 19.2,0 34.8,-15.6 34.8,-34.8 0,-19.2 -15.6,-34.8 -34.8,-34.8 z"
       id="path25"
       inkscape:connector-curvature="0" /><path
       d="m 876.7,166.9 c -19.2,0 -34.8,15.6 -34.8,34.8 0,19.2 15.6,34.8 34.8,34.8 19.2,0 34.8,-15.6 34.8,-34.8 0,-19.2 -15.6,-34.8 -34.8,-34.8 z"
       id="path27"
       inkscape:connector-curvature="0" /><path
       d="m 876.7,376.9 c -19.2,0 -34.8,15.6 -34.8,34.8 0,19.2 15.6,34.8 34.8,34.8 19.2,0 34.8,-15.6 34.8,-34.8 0,-19.2 -15.6,-34.8 -34.8,-34.8 z"
       id="path29"
       inkscape:connector-curvature="0" /><path
       d="m 1433.4,166.9 c -19.2,0 -34.8,15.6 -34.8,34.8 0,19.2 15.6,34.8 34.8,34.8 19.2,0 34.8,-15.6 34.8,-34.8 0,-19.2 -15.6,-34.8 -34.8,-34.8 z"
       id="path31"
       inkscape:connector-curvature="0" /><path
       d="m 1433.4,376.9 c -19.2,0 -34.8,15.6 -34.8,34.8 0,19.2 15.6,34.8 34.8,34.8 19.2,0 34.8,-15.6 34.8,-34.8 0,-19.2 -15.6,-34.8 -34.8,-34.8 z"
       id="path33"
       inkscape:connector-curvature="0" /><path
       d="m 1990.1,166.9 c -19.2,0 -34.8,15.6 -34.8,34.8 0,19.2 15.6,34.8 34.8,34.8 19.2,0 34.8,-15.6 34.8,-34.8 0,-19.2 -15.6,-34.8 -34.8,-34.8 z"
       id="path35"
       inkscape:connector-curvature="0" /><path
       d="m 1990.1,376.9 c -19.2,0 -34.8,15.6 -34.8,34.8 0,19.2 15.6,34.8 34.8,34.8 19.2,0 34.8,-15.6 34.8,-34.8 0,-19.2 -15.6,-34.8 -34.8,-34.8 z"
       id="path37"
       inkscape:connector-curvature="0" /><path
       d="m 2706.8,219.4 -84.2,0 c -12.9,0 -23.4,10.5 -23.4,23.4 l 0,118 c 0,12.9 10.5,23.4 23.4,23.4 l 84.2,0 c 12.9,0 23.4,-10.5 23.4,-23.4 l 0,-118 c 0,-12.9 -10.5,-23.4 -23.4,-23.4 z m 19.2,141.4 c 0,10.6 -8.6,19.1 -19.1,19.1 l -84.2,0 c -10.6,0 -19.1,-8.6 -19.1,-19.1 l 0,-118 c 0,-10.6 8.6,-19.1 19.1,-19.1 l 84.2,0 c 10.6,0 19.1,8.6 19.1,19.1 l 0,118 z"
       id="path39"
       inkscape:connector-curvature="0" /><path
       d="m 2497.8,271.5 c -16.6,0 -30.1,13.5 -30.1,30.1 0,16.6 13.5,30.1 30.1,30.1 16.6,0 30.1,-13.5 30.1,-30.1 0,-16.6 -13.6,-30.1 -30.1,-30.1 z m 0,55.9 c -14.2,0 -25.8,-11.6 -25.8,-25.8 0,-14.2 11.6,-25.8 25.8,-25.8 14.2,0 25.8,11.6 25.8,25.8 0,14.2 -11.6,25.8 -25.8,25.8 z"
       id="path41"
       inkscape:connector-curvature="0" /><path
       d="m 3012.8,320.7 0,-35.5 c 57.4,-0.5 105.8,-10.5 143.9,-29.7 39,-19.8 68.2,-49.8 86.8,-89.3 l -6.3,-3 c -17.9,38 -46,66.9 -83.6,86 -37.1,18.8 -84.4,28.5 -140.7,29 l 0,-39.2 c 0,-25.4 -20.6,-46 -46,-46 l -96.7,0 0,-72.5 C 2870.2,54.1 2816.2,0 2749.7,0 L 120.5,0 C 54,0 0,54 0,120.5 l 0,356.7 c 0,66.4 54,120.5 120.5,120.5 l 2629.2,0 c 66.4,0 120.5,-54 120.5,-120.5 l 0,-71 97.4,0 c 25,0 45.3,-20.6 45.3,-46 l 0,-32.5 c 114,-0.8 189.4,-31.1 230.4,-92.7 l -5.8,-3.9 c -39.7,59.6 -113.1,88.9 -224.7,89.6 z M 2856,477.2 c 0,58.6 -47.7,106.3 -106.3,106.3 l -2629.2,0 C 61.9,583.5 14.2,535.8 14.2,477.2 l 0,-356.7 C 14.2,61.9 61.9,14.2 120.5,14.2 l 2629.2,0 c 58.6,0 106.3,47.7 106.3,106.3 l 0,356.7 z m 149.8,-117 c 0,12.7 -6,24 -15.2,31.1 l 0,-117.6 -3.5,0 0,120 c -4.1,2.5 -8.6,4.2 -13.5,5 l 0,-125 -3.5,0 0,125.4 c -0.8,0.1 -1.7,0.1 -2.6,0.1 l -10.9,0 0,-125.5 -3.5,0 0,125.5 -13.5,0 0,-125.5 -3.5,0 0,125.5 -13.5,0 0,-125.5 -3.5,0 0,125.5 -13.5,0 0,-125.5 -3.5,0 0,125.5 -13.5,0 0,-125.5 -3.5,0 0,125.5 -15.1,0 0,-199.2 96.7,0 c 21.5,0 39,17.5 39,39 l 0,121.2 z"
       id="path43"
       inkscape:connector-curvature="0" /></g><g
     id="g45"
     transform="matrix(0,-1,1,0,1322.9,1920.6)"><path
       d="m 2622.6,228.7 84.2,0 c 7.7,0 14.1,6.3 14.1,14.1 l 0,118 c 0,7.7 -6.3,14.1 -14.1,14.1 l -84.2,0 c -7.7,0 -14.1,-6.3 -14.1,-14.1 l 0,-118 c 0,-7.7 6.4,-14.1 14.1,-14.1"
       id="path47"
       inkscape:connector-curvature="0" /></g><g
     id="g49"
     transform="matrix(0,-1,1,0,1322.9,1920.6)"><path
       d="m 2497.8,281.6 c 11,0 20,8.9 20,20 0,11 -8.9,20 -20,20 -11.1,0 -20,-8.9 -20,-20 0,-11 8.9,-20 20,-20"
       id="path51"
       inkscape:connector-curvature="0" /></g></svg>
